<svg id="그룹_170" data-name="그룹 170" xmlns="http://www.w3.org/2000/svg" xmlns:xlink="http://www.w3.org/1999/xlink" width="113.948" height="136.201" viewBox="0 0 113.948 136.201">
  <defs>
    <clipPath id="clip-path">
      <rect id="사각형_79" data-name="사각형 79" width="113.948" height="136.201" fill="none"/>
    </clipPath>
  </defs>
  <g id="그룹_169" data-name="그룹 169" clip-path="url(#clip-path)">
    <path id="패스_239" data-name="패스 239" d="M197.021,2.029,136.668,5.723c-2.488,0-5.215-1.677-5.446.812L120.244,124.927c-.231,2.488,2.538,1.773,5.026,1.773l59.938,2.733a5.049,5.049,0,0,0,4.923-4.506L201.109,6.535a4.038,4.038,0,0,0-4.088-4.506" transform="translate(-98.264 -1.658)" fill="#020202"/>
    <path id="패스_240" data-name="패스 240" d="M183.552,128.144,123.6,125.411c-.439,0-.911.025-1.368.049-1.461.077-2.842.15-3.562-.6a1.983,1.983,0,0,1-.448-1.627L129.2,4.841a1.815,1.815,0,0,1,.654-1.378c.7-.522,1.743-.312,2.949-.069a11.434,11.434,0,0,0,2.213.3L195.343,0h.023a4.408,4.408,0,0,1,4.457,4.911L188.844,123.3a5.433,5.433,0,0,1-5.292,4.842m-59.937-3.474,59.954,2.733a4.674,4.674,0,0,0,4.538-4.169L199.084,4.841a3.667,3.667,0,0,0-3.708-4.1L135.035,4.434h0a12.149,12.149,0,0,1-2.377-.313c-.989-.2-1.924-.388-2.359-.063a1.138,1.138,0,0,0-.358.852L118.957,123.3a1.279,1.279,0,0,0,.245,1.045c.485.5,1.7.441,2.989.373.466-.024.949-.05,1.424-.05" transform="translate(-96.608 0.001)" fill="#020202"/>
    <path id="패스_241" data-name="패스 241" d="M184.217,2.029H123.341a5.049,5.049,0,0,0-4.923,4.506L107.439,124.927a4.038,4.038,0,0,0,4.088,4.506H172.4a5.049,5.049,0,0,0,4.923-4.506L188.3,6.535a4.038,4.038,0,0,0-4.088-4.506" transform="translate(-87.794 -1.658)" fill="#09f"/>
    <path id="패스_242" data-name="패스 242" d="M170.745,128.145H109.869a4.408,4.408,0,0,1-4.457-4.911L116.39,4.842A5.433,5.433,0,0,1,121.682,0h60.876a4.408,4.408,0,0,1,4.457,4.91L176.037,123.3a5.433,5.433,0,0,1-5.292,4.842M121.682.741a4.677,4.677,0,0,0-4.554,4.169L106.15,123.3a3.668,3.668,0,0,0,3.719,4.1h60.876a4.677,4.677,0,0,0,4.554-4.169L186.277,4.842a3.668,3.668,0,0,0-3.719-4.1Z" transform="translate(-86.135)" fill="#020202"/>
    <path id="패스_243" data-name="패스 243" d="M263.377,2.029l-.234,2.527a4.357,4.357,0,0,0,4.41,4.861h25.592a5.448,5.448,0,0,0,5.312-4.861l.234-2.527Z" transform="translate(-215.049 -1.658)" fill="#020202"/>
    <path id="패스_244" data-name="패스 244" d="M351.366,14.166a1.584,1.584,0,0,1-1.6-1.767,1.98,1.98,0,0,1,1.931-1.767,1.583,1.583,0,0,1,1.6,1.767,1.98,1.98,0,0,1-1.931,1.767" transform="translate(-285.854 -8.69)" fill="#caddff"/>
    <path id="패스_245" data-name="패스 245" d="M237.838,226.853l-.195,0c-.276,0-.472-.271-.438-.611l.156-1.555-.645.008a2.237,2.237,0,0,1-.3.536,1.881,1.881,0,0,1-.41.395,1.828,1.828,0,0,1-1.039.334,1.62,1.62,0,0,1-.662-.123,1.333,1.333,0,0,1-.506-.375,1.566,1.566,0,0,1-.3-.605,2.274,2.274,0,0,1-.051-.821,2.544,2.544,0,0,1,.214-.822,2.1,2.1,0,0,1,.427-.62,1.825,1.825,0,0,1,1.272-.533,1.648,1.648,0,0,1,.564.085,1.361,1.361,0,0,1,.462.267,1.419,1.419,0,0,1,.33.434,1.77,1.77,0,0,1,.169.586l.609-.009.071-.707a.654.654,0,0,1,.562-.625l.2,0c.277,0,.473.269.439.61l-.354,3.529a.651.651,0,0,1-.562.622m-.158,1.878-3.664.032c-.252,0-.432-.249-.4-.561l.128-1.282a.647.647,0,0,1,.557-.619l.194,0c.274,0,.469.269.436.609l-.048.48c-.008.078.037.141.1.14l2.821-.028c.276,0,.473.271.438.611a.648.648,0,0,1-.562.621m-2.593-4.012a.527.527,0,0,0,.4-.2.894.894,0,0,0,.2-.512.735.735,0,0,0-.1-.508.412.412,0,0,0-.36-.19.531.531,0,0,0-.4.2.884.884,0,0,0-.205.512.735.735,0,0,0,.1.508.411.411,0,0,0,.359.19" transform="translate(-190.777 -181.492)" fill="#fff"/>
    <path id="패스_246" data-name="패스 246" d="M268.049,222.307l-.551,5.45a.6.6,0,0,1-.523.575l-.19,0c-.257,0-.439-.251-.407-.566l.049-.486,0-.037a.713.713,0,0,1-.223.281.437.437,0,0,1-.7-.228q-.049-.149-.1-.3-.143-.439-.263-.882-.228.5-.455.965-.078.16-.16.321c-.18.352-.556.473-.8.251a.746.746,0,0,1-.081-.852q.169-.347.334-.709.3-.665.55-1.3a2.923,2.923,0,0,0,.108-.34,2.8,2.8,0,0,0,.063-.385l.091-.9-.181,0c-.387.005-.624-.508-.333-1.015a.511.511,0,0,1,.42-.274l1.609-.025c.389-.006.627.508.335,1.017a.512.512,0,0,1-.421.274l-.206,0-.091.906a1.884,1.884,0,0,0-.008.358q.014.139.046.3.1.564.267,1.154c.056.2.161.548.25.84,0,.009,0,.018.006.028l.187-1.857h-.052c-.3,0-.508-.289-.471-.654a.7.7,0,0,1,.6-.668h.052l.125-1.235a.608.608,0,0,1,.524-.579l.19,0c.258,0,.44.249.409.565m.907-.608-.124,0a.661.661,0,0,0-.57.629l-.55,5.437c-.035.342.164.618.443.615h.123a.655.655,0,0,0,.569-.625l.552-5.444c.035-.343-.164-.618-.445-.614" transform="translate(-215.4 -181.194)" fill="#fff"/>
    <path id="패스_247" data-name="패스 247" d="M303.889,227.883l-.2,0a.507.507,0,0,1-.449-.619l.224-2.191-.569.007-.078.761a2.176,2.176,0,0,1-.212.762,1.978,1.978,0,0,1-.419.57,1.772,1.772,0,0,1-.572.358,1.864,1.864,0,0,1-.663.127,1.645,1.645,0,0,1-.64-.115,1.307,1.307,0,0,1-.495-.348,1.464,1.464,0,0,1-.3-.561,1.94,1.94,0,0,1-.056-.756l.289-2.851a2.183,2.183,0,0,1,.21-.761,1.994,1.994,0,0,1,.417-.571,1.794,1.794,0,0,1,.567-.361,1.867,1.867,0,0,1,.666-.132,1.658,1.658,0,0,1,.639.111,1.3,1.3,0,0,1,.5.346,1.462,1.462,0,0,1,.3.562,1.949,1.949,0,0,1,.057.759l-.076.738.569-.007.2-1.919a.668.668,0,0,1,.578-.633l.2,0c.284,0,.486.272.45.618l-.561,5.48a.662.662,0,0,1-.577.629m-3.21-2.056a.49.49,0,0,0,.1.378.381.381,0,0,0,.312.141.481.481,0,0,0,.341-.148.6.6,0,0,0,.172-.381l.284-2.781a.489.489,0,0,0-.1-.378.381.381,0,0,0-.312-.14.485.485,0,0,0-.341.149.6.6,0,0,0-.172.382Z" transform="translate(-244.737 -180.75)" fill="#fff"/>
    <path id="패스_248" data-name="패스 248" d="M336.062,225.6l.446-4.322a.674.674,0,0,1,.585-.637l.2,0a.508.508,0,0,1,.456.622l-.571,5.515a.668.668,0,0,1-.585.633l-.2,0a.51.51,0,0,1-.454-.623l.056-.543m-.605.663-2.863.026a.468.468,0,0,1-.415-.572l.509-4.959a.617.617,0,0,1,.535-.585l2.318-.036a.519.519,0,0,1,.465.636.688.688,0,0,1-.6.651l-1.44.021a.154.154,0,0,0-.134.146l-.334,3.249a.117.117,0,0,0,.1.143l1.988-.021a.528.528,0,0,1,.471.645.691.691,0,0,1-.6.656" transform="translate(-271.431 -180.324)" fill="#fff"/>
    <path id="패스_249" data-name="패스 249" d="M367.274,226.016a.513.513,0,0,1-.854-.114q-.1-.2-.186-.4-.233-.52-.418-1.009-.294.495-.642,1.032-.145.224-.3.44a.548.548,0,0,1-.853.158l-.006-.006a.788.788,0,0,1-.029-.953q.27-.409.5-.821.386-.683.687-1.317a1.73,1.73,0,0,0,.138-.413,4.412,4.412,0,0,0,.073-.458l.133-1.284a.677.677,0,0,1,.589-.639l.294,0a.51.51,0,0,1,.459.624l-.134,1.286a4.23,4.23,0,0,0-.022.458,1.48,1.48,0,0,0,.053.411q.171.628.4,1.268.14.4.322.816a.855.855,0,0,1-.205.922m1.319.907-.205,0a.514.514,0,0,1-.46-.627l.309-2.967-.458.006a.577.577,0,0,1-.518-.705h0a.764.764,0,0,1,.667-.721l.459-.006.12-1.15a.681.681,0,0,1,.593-.641l.206,0a.511.511,0,0,1,.461.626l-.58,5.551a.675.675,0,0,1-.593.637" transform="translate(-297.37 -179.895)" fill="#fff"/>
    <path id="패스_250" data-name="패스 250" d="M401.488,225.22a.7.7,0,0,1-.613.656l-2.716.025a.475.475,0,0,1-.426-.579l.5-4.771a.816.816,0,0,1,.712-.768.613.613,0,0,1,.554.749l-.411,3.916a.119.119,0,0,0,.107.145l1.819-.019a.529.529,0,0,1,.476.645m1.811-3.23-.2,0,.185-1.756a.515.515,0,0,0-.467-.629l-.208,0a.687.687,0,0,0-.6.645l-.454,4.314-.068.651-.065.612a.518.518,0,0,0,.465.631l.208,0a.681.681,0,0,0,.6-.641l.257-2.437.2,0a.747.747,0,0,0,.657-.7.563.563,0,0,0-.51-.688" transform="translate(-325.063 -179.484)" fill="#fff"/>
    <path id="패스_251" data-name="패스 251" d="M228.732,277.91a.734.734,0,0,1-1.222-.156q-.159-.308-.314-.623-.378-.773-.655-1.5-.422.726-.968,1.513-.239.344-.476.675a.77.77,0,0,1-1.213.193l-.008-.009a1.191,1.191,0,0,1-.041-1.42q.4-.6.754-1.2a21.185,21.185,0,0,0,1.031-1.933,2.581,2.581,0,0,0,.2-.607,6.67,6.67,0,0,0,.1-.675l.189-1.9a.976.976,0,0,1,.847-.936l.423,0c.417,0,.714.413.663.929l-.19,1.9a6.408,6.408,0,0,0-.031.677,2.246,2.246,0,0,0,.077.608,17.6,17.6,0,0,0,.619,1.881q.23.587.5,1.2A1.281,1.281,0,0,1,228.732,277.91Zm1.728,1.357h-.3a.769.769,0,0,1-.665-.936l.822-8.19a.983.983,0,0,1,.855-.941l.3,0c.421,0,.72.415.668.932l-.826,8.206a.97.97,0,0,1-.855.931" transform="translate(-182.767 -220.015)" fill="#fff"/>
    <path id="패스_252" data-name="패스 252" d="M278.646,274.579l-3.613,0a.708.708,0,0,1-.617-.863l.385-3.818a.91.91,0,0,1,.793-.87l3.619-.023a.708.708,0,0,1,.624.865l-.391,3.838a.909.909,0,0,1-.8.869m2.3,4.461-5.665-.024a.712.712,0,0,1-.618-.866l.2-1.958a.979.979,0,0,1,.86-.937h.3a.77.77,0,0,1,.672.939l-.074.734a.178.178,0,0,0,.155.217l4.365.01a.777.777,0,0,1,.679.945.984.984,0,0,1-.871.94m-3.22-6.569.137-1.345a.177.177,0,0,0-.155-.216l-1.005,0a.228.228,0,0,0-.2.217l-.136,1.343a.177.177,0,0,0,.155.216l1,0a.227.227,0,0,0,.2-.217m3.466,3.695h-.3a.775.775,0,0,1-.678-.943l.55-5.4a1,1,0,0,1,.872-.95l.3,0a.771.771,0,0,1,.681.941l-.553,5.406a.988.988,0,0,1-.872.944" transform="translate(-224.274 -219.75)" fill="#fff"/>
    <path id="패스_253" data-name="패스 253" d="M333.723,267.382l.31,0a.78.78,0,0,1,.694.951l-.879,8.448a.922.922,0,0,1-.821.876l-6.586-.027a.78.78,0,0,1-.683-.949.99.99,0,0,1,.877-.944l5.247.011a.23.23,0,0,0,.2-.219l.745-7.185a1.013,1.013,0,0,1,.891-.96m-1.366,1.451h0a.7.7,0,0,0-.624-.857l-1.068.006a.7.7,0,0,0-.622-.855l-.786.005a.908.908,0,0,0-.8.863L327.4,268a.9.9,0,0,0-.793.86.7.7,0,0,0,.617.852l4.33-.018a.91.91,0,0,0,.8-.864m-3.183,5.889a2.868,2.868,0,0,0,1.888-.584,2.521,2.521,0,0,0,.833-1.771,2.075,2.075,0,0,0-.466-1.77,2.4,2.4,0,0,0-1.769-.58l-.613,0a2.862,2.862,0,0,0-1.88.591,2.521,2.521,0,0,0-.824,1.764,2.075,2.075,0,0,0,.462,1.761,2.39,2.39,0,0,0,1.758.585Zm-.522-1.806a.428.428,0,0,1-.366-.156.53.53,0,0,1-.094-.388.639.639,0,0,1,.174-.388.528.528,0,0,1,.4-.157h.8a.429.429,0,0,1,.367.156.53.53,0,0,1,.094.388.638.638,0,0,1-.174.389.529.529,0,0,1-.4.157Z" transform="translate(-266.237 -218.323)" fill="#fff"/>
    <path id="패스_254" data-name="패스 254" d="M382.331,273.606l-3.664,0a.724.724,0,0,1-.642-.881l.365-3.5a.938.938,0,0,1,.827-.888l3.67-.024a.724.724,0,0,1,.648.883l-.37,3.518a.938.938,0,0,1-.833.887m1.744.444a1.829,1.829,0,0,1,.865.187,1.474,1.474,0,0,1,.561.511,2,2,0,0,1,.28.752,3.287,3.287,0,0,1,.023.9,3.422,3.422,0,0,1-.218.9,2.556,2.556,0,0,1-.449.75,2.024,2.024,0,0,1-.678.508,2.1,2.1,0,0,1-.908.184l-4.025-.018a1.774,1.774,0,0,1-.85-.19,1.437,1.437,0,0,1-.544-.509,1.988,1.988,0,0,1-.267-.747,3.418,3.418,0,0,1-.018-.891,3.551,3.551,0,0,1,.209-.891,2.524,2.524,0,0,1,.432-.746,1.968,1.968,0,0,1,.66-.508,2.046,2.046,0,0,1,.9-.187Zm-2.7-2.595.1-.974a.181.181,0,0,0-.162-.221l-.949,0a.235.235,0,0,0-.207.222l-.1.973a.181.181,0,0,0,.161.22l.948,0a.234.234,0,0,0,.208-.222m1.961,5.373a.57.57,0,0,0,.371-.116.45.45,0,0,0,.166-.316.391.391,0,0,0-.094-.322.457.457,0,0,0-.35-.124l-3.148,0a.544.544,0,0,0-.373.122.476.476,0,0,0-.16.321.364.364,0,0,0,.1.316.471.471,0,0,0,.343.118Zm1.6-3.049h-.314a.791.791,0,0,1-.7-.962l.385-3.663a1.028,1.028,0,0,1,.909-.969l.315,0a.788.788,0,0,1,.707.96l-.069.659h.138a.809.809,0,0,1,.725.985,1.051,1.051,0,0,1-.934.992h-.138l-.109,1.034a1.022,1.022,0,0,1-.91.965" transform="translate(-308.797 -219.186)" fill="#fff"/>
    <path id="패스_255" data-name="패스 255" d="M213.919,326.857c-9.45-.1-17.963-2.281-22.882-5.8a.894.894,0,0,1-.164-1.121.647.647,0,0,1,.933-.338c4.754,3.389,13.046,5.478,22.286,5.563,9.425.086,18.644-1.921,24.571-5.405a.634.634,0,0,1,.957.363,1.031,1.031,0,0,1-.43,1.177c-6.146,3.6-15.629,5.665-25.271,5.56" transform="translate(-155.901 -261.128)" fill="#fff"/>
    <path id="패스_256" data-name="패스 256" d="M187.1,272.956l-.708,0,.072-.732c.045-.459-.217-.829-.585-.827a.865.865,0,0,0-.747.834l-.072.73-.705,0a.861.861,0,0,0-.744.831c-.045.457.216.827.582.825h.269l-.347.52a.943.943,0,0,0,.043,1.154.609.609,0,0,0,.945-.2l.369-.552.261.551a.562.562,0,0,0,.509.348.637.637,0,0,0,.4-.154,1.013,1.013,0,0,0,.271-1.158l-.246-.52h.27a.864.864,0,0,0,.75-.833c.045-.459-.217-.83-.586-.828" transform="translate(-150.061 -221.816)" fill="#fff"/>
    <path id="패스_257" data-name="패스 257" d="M454.958,272.232a.717.717,0,0,0-.647-.872l-.785,0,.082-.77a.715.715,0,0,0-.645-.87.936.936,0,0,0-.831.878l-.082.769-.782,0a.931.931,0,0,0-.828.875.715.715,0,0,0,.642.869h.3l-.387.548a.954.954,0,0,0,.043,1.215.7.7,0,0,0,1.049-.206l.411-.581.287.58a.622.622,0,0,0,.563.366.731.731,0,0,0,.445-.162,1.032,1.032,0,0,0,.3-1.219l-.272-.548h.3a.935.935,0,0,0,.835-.877" transform="translate(-368.139 -220.444)" fill="#fff"/>
    <path id="패스_258" data-name="패스 258" d="M569.156,281.918a.274.274,0,0,1-.167-.492l.422-.322a6.1,6.1,0,0,0,.857-.9.274.274,0,0,1,.435.334,6.532,6.532,0,0,1-.958,1.005l-.422.322a.273.273,0,0,1-.166.056" transform="translate(-464.946 -228.92)" fill="#020202"/>
    <path id="패스_259" data-name="패스 259" d="M565.229,278.627a.274.274,0,0,1-.127-.517l.471-.245a6.093,6.093,0,0,0,1-.742.274.274,0,0,1,.37.4,6.554,6.554,0,0,1-1.117.825l-.471.245a.273.273,0,0,1-.126.031" transform="translate(-461.736 -226.433)" fill="#020202"/>
    <path id="패스_260" data-name="패스 260" d="M438.039,237.468c-1.292.167-8.313,1.588-8.91,9.5a.477.477,0,0,0,.239.447l4.06,2.337a.476.476,0,0,1,.239.427,84.41,84.41,0,0,1-.891,10.783c-.479,2.153-.811,3.909-.971,4.787a.474.474,0,0,0,.511.558,24.461,24.461,0,0,0,4.264-.71c1.632-.5,2.353-1.46,6.3.177a3.009,3.009,0,0,0,2.561-.123c2.16-1.143,6.658-3.172,9.76-2.148a.475.475,0,0,0,.614-.554,62.8,62.8,0,0,1-1.5-8.015c-.126-2.585,1.36-11.2.669-12.1a14.69,14.69,0,0,0-5.519-3.364c-.717-.2-1.473-.216-2.077-.365-1.518-.374-5.728-2.108-9.346-1.64" transform="translate(-350.725 -194.017)" fill="#b2e0ff"/>
    <path id="패스_261" data-name="패스 261" d="M436.159,276.548c1.207,1.8,2.6,2.378,5.65,1.593s9.5-5.408,12.694-9.811a.814.814,0,0,1,.844-.33c.624.073,3.192,1.064,5.1-.624s1.452-2.9,1.357-3.127c-.161-.388-3.008.108-3.778-.235s-.761-.876-.183-1.664c.69-.94-.848-1.155-2.018.514a9.838,9.838,0,0,1-2.99,2.9c-1.119.566-12.492,4.659-13.079,4.477s-4.28-2.414-4.28-2.414-.631,6.761.685,8.725" transform="translate(-355.789 -213.826)" fill="#fff"/>
    <path id="패스_262" data-name="패스 262" d="M438.293,277.533a4,4,0,0,1-3.594-2.057c-1.354-2.022-.756-8.623-.73-8.9l.04-.435.374.226c1.452.878,3.746,2.221,4.2,2.381h0c.866,0,11.554-3.777,12.892-4.454a9.571,9.571,0,0,0,2.889-2.809,2.656,2.656,0,0,1,2.1-1.351.623.623,0,0,1,.537.344.788.788,0,0,1-.176.812c-.284.388-.4.683-.351.877.037.139.18.265.425.375a6.707,6.707,0,0,0,1.961.079c1.25-.049,1.81-.056,1.959.3.2.478.457,1.769-1.428,3.437-1.718,1.52-3.882,1.015-4.922.772-.166-.039-.309-.072-.391-.082a.557.557,0,0,0-.574.195l-.016.024c-3.17,4.373-9.714,9.107-12.847,9.915a9.557,9.557,0,0,1-2.352.352m-3.139-2.362c1.06,1.582,2.227,2.287,5.354,1.48,3.045-.785,9.425-5.414,12.535-9.7a1.1,1.1,0,0,1,1.1-.449c.112.013.262.048.452.092.951.222,2.929.683,4.434-.649,1.547-1.368,1.452-2.354,1.307-2.762a7.517,7.517,0,0,0-1.452-.019,6.343,6.343,0,0,1-2.206-.126,1.176,1.176,0,0,1-.732-.735,1.621,1.621,0,0,1,.439-1.342c.117-.159.122-.249.117-.264a.32.32,0,0,0-.18-.023,2.364,2.364,0,0,0-1.51,1.12,10.127,10.127,0,0,1-3.091,2.983c-.68.344-11.835,4.5-13.193,4.5a.329.329,0,0,1-.092-.01c-.506-.158-2.969-1.619-3.961-2.213-.11,1.515-.384,6.529.674,8.11" transform="translate(-354.556 -212.602)" fill="#020202"/>
    <path id="패스_263" data-name="패스 263" d="M567.584,267.583l-.044.405-.253,2.337a16.879,16.879,0,0,0-.058,3.733,2.672,2.672,0,0,0,.874,1.834,3.284,3.284,0,0,0,1.305.759c1.712.623,2.458.431,3.08-1.338s.4-2.866-1.06-8.35a1.6,1.6,0,0,1,.731-1.851c1.007-.661.675-2.249-.254-3.451-1.482-1.918-4.588,5.667-4.322,5.922" transform="translate(-463.534 -213.601)" fill="#fff"/>
    <path id="패스_264" data-name="패스 264" d="M569.6,276.023a4.584,4.584,0,0,1-1.512-.34l-.022-.008a3.523,3.523,0,0,1-1.371-.8,2.938,2.938,0,0,1-.967-2.024,17.092,17.092,0,0,1,.06-3.783l.289-2.667a1.4,1.4,0,0,1,.1-.639c.334-1.118,2.2-5.6,3.777-5.892a.928.928,0,0,1,.943.4,3.785,3.785,0,0,1,.9,2.732,1.613,1.613,0,0,1-.709,1.115,1.308,1.308,0,0,0-.624,1.529l.007.023c1.481,5.555,1.694,6.69,1.054,8.511a2.669,2.669,0,0,1-1.2,1.693,1.636,1.636,0,0,1-.717.152m-2.98-9.795.025.024-.311,2.876a16.747,16.747,0,0,0-.058,3.67l0,.017v.017a2.415,2.415,0,0,0,.781,1.627,3.007,3.007,0,0,0,1.2.7l.022.008a2.463,2.463,0,0,0,1.806.208c.362-.172.647-.6.922-1.38.591-1.684.4-2.689-1.064-8.177a1.875,1.875,0,0,1,.843-2.162,1.065,1.065,0,0,0,.47-.748,3.241,3.241,0,0,0-.791-2.307.388.388,0,0,0-.5-.173c-1.3.463-3.246,5-3.347,5.8" transform="translate(-462.304 -212.375)" fill="#020202"/>
    <path id="패스_265" data-name="패스 265" d="M559.582,247.032s-2.515.269-3.294-.346c-.577-.455.5-1.819.581-1.926.683-.9,2.276-3,2.513-3.294.215-.269.625-.91,1.16-.863s3.5.535,3.717.63c.452.2.261.828-.07,1.174s-4.608,4.624-4.608,4.624" transform="translate(-454.515 -196.643)" fill="#020202"/>
    <path id="패스_266" data-name="패스 266" d="M446.333,378.655s-2.428,20.194-2.728,24.089-.749,17.531,0,24.273c.485,4.368.822,7.29,1,8.806a1.394,1.394,0,0,0,1.385,1.233h4.949a.461.461,0,0,0,.462-.456,91.359,91.359,0,0,1,1.345-14.678c1.349-6.892,2.847-17.68,3.6-22.026.25-1.45.46-3.063.638-4.64l.561,1.644c.561,1.644,2.7,12.736,3.3,17.081.545,3.953,1.462,19.807,1.624,22.64a.461.461,0,0,0,.461.435h6.338a.462.462,0,0,0,.46-.415c.295-2.938,2.03-20.7,1.756-28.653-.3-8.69-4.2-19.029-4.945-21.876s-1.754-10.066-1.754-10.066-15.193.229-18.442,2.608" transform="translate(-362.222 -307.343)" fill="#020202"/>
    <path id="패스_267" data-name="패스 267" d="M517.45,446.655l-.031,0a.274.274,0,0,1-.241-.3c.1-.9.2-1.86.293-2.851a5.254,5.254,0,0,1,3.39-4.412l1.094-.405a.274.274,0,0,1,.19.514l-1.094.405a4.7,4.7,0,0,0-3.035,3.949c-.093.994-.192,1.957-.294,2.861a.274.274,0,0,1-.272.243" transform="translate(-422.686 -358.52)" fill="#fff"/>
    <path id="패스_268" data-name="패스 268" d="M552.778,709.971H548.74a.7.7,0,0,0-.653.436,12.2,12.2,0,0,0-.99,4.837.994.994,0,0,0,.993.941h11.85a.864.864,0,0,0,.85-1.032,3.48,3.48,0,0,0-1.881-2.236c-2.1-1.224-4.747-2.448-5.581-2.827a1.329,1.329,0,0,0-.55-.119" transform="translate(-447.134 -580.258)" fill="#b2e0ff"/>
    <path id="패스_269" data-name="패스 269" d="M558.716,715.233h-11.85a1.266,1.266,0,0,1-1.267-1.2,12.564,12.564,0,0,1,1.01-4.955.976.976,0,0,1,.907-.606h4.038a1.594,1.594,0,0,1,.663.144c.777.353,3.477,1.6,5.606,2.839a3.746,3.746,0,0,1,2.012,2.418,1.124,1.124,0,0,1-.233.94,1.139,1.139,0,0,1-.886.421m-11.2-6.214a.43.43,0,0,0-.4.267,12,12,0,0,0-.969,4.719.718.718,0,0,0,.72.68h11.85a.593.593,0,0,0,.461-.219.578.578,0,0,0,.12-.484,3.308,3.308,0,0,0-1.75-2.054c-2.107-1.226-4.786-2.464-5.557-2.814a1.047,1.047,0,0,0-.436-.095Z" transform="translate(-445.91 -579.032)" fill="#020202"/>
    <path id="패스_270" data-name="패스 270" d="M580.007,716.048a.274.274,0,0,1-.192-.469l1.7-1.672a.274.274,0,0,1,.384.391l-1.7,1.672a.273.273,0,0,1-.192.079" transform="translate(-473.815 -583.41)" fill="#020202"/>
    <path id="패스_271" data-name="패스 271" d="M586.008,719.8a.274.274,0,0,1-.192-.469l1.7-1.672a.274.274,0,0,1,.384.391l-1.7,1.672a.273.273,0,0,1-.192.079" transform="translate(-478.719 -586.475)" fill="#020202"/>
    <path id="패스_272" data-name="패스 272" d="M455.245,709.971h-4.039a.7.7,0,0,0-.653.436,12.2,12.2,0,0,0-.99,4.837.994.994,0,0,0,.993.941h11.85a.863.863,0,0,0,.85-1.032,3.479,3.479,0,0,0-1.881-2.236c-2.1-1.224-4.747-2.448-5.581-2.827a1.328,1.328,0,0,0-.55-.119" transform="translate(-367.421 -580.258)" fill="#b2e0ff"/>
    <path id="패스_273" data-name="패스 273" d="M461.182,715.233h-11.85a1.266,1.266,0,0,1-1.267-1.2,12.574,12.574,0,0,1,1.01-4.955.977.977,0,0,1,.907-.606h4.039a1.594,1.594,0,0,1,.663.144c.777.353,3.479,1.6,5.606,2.839a3.746,3.746,0,0,1,2.012,2.418,1.124,1.124,0,0,1-.233.94,1.139,1.139,0,0,1-.886.421m-11.2-6.214a.43.43,0,0,0-.4.267,12.01,12.01,0,0,0-.969,4.718.718.718,0,0,0,.72.68h11.85a.593.593,0,0,0,.461-.219.578.578,0,0,0,.12-.484,3.308,3.308,0,0,0-1.75-2.054c-2.1-1.225-4.785-2.464-5.557-2.814a1.047,1.047,0,0,0-.436-.095Z" transform="translate(-366.195 -579.032)" fill="#020202"/>
    <path id="패스_274" data-name="패스 274" d="M479.993,715.247a.274.274,0,0,1-.192-.469l1.7-1.672a.274.274,0,1,1,.385.391l-1.7,1.672a.273.273,0,0,1-.192.079" transform="translate(-392.073 -582.756)" fill="#020202"/>
    <path id="패스_275" data-name="패스 275" d="M485.994,719a.274.274,0,0,1-.192-.469l1.7-1.672a.274.274,0,0,1,.384.391l-1.7,1.672a.273.273,0,0,1-.192.079" transform="translate(-396.978 -585.822)" fill="#020202"/>
    <path id="패스_276" data-name="패스 276" d="M505.281,163.527a2.419,2.419,0,0,1,.282.117,1.4,1.4,0,0,1,.428.512c.2.375.546,1.535.989,1.467s.989-1.876.989-1.876.171-.887,1.535-.546a11.131,11.131,0,0,1,2.831,1.16,1.926,1.926,0,0,0,1.194.273,1.953,1.953,0,0,0,1.5-2.081,2.614,2.614,0,0,0-2.422-2.115,8.148,8.148,0,0,1-2.865-.819c-.273-.136-1.879-.795-2.754-.307a3.709,3.709,0,0,0-1.793,2.32,3.761,3.761,0,0,0-.028,1.691c.009.09.026.176.112.2" transform="translate(-412.803 -130.06)" fill="#020202"/>
    <path id="패스_277" data-name="패스 277" d="M496.973,182.845a.074.074,0,0,1,.039.07,8.779,8.779,0,0,0,.07,1.847,6.117,6.117,0,0,1,.231,1.686c-.116.215-.546.231-.744.215s-.529.066-.612.232-.331,1.7-.43,2.067a.947.947,0,0,1-1.041.727c-.078-.008-.307-.06-.484-.1a.229.229,0,0,0-.278.187c-.294,1.867,1.594,3.971,2.047,4.451a.1.1,0,0,1-.032.158c-4.185,1.826-8.489-1.326-9.665-2.306a6,6,0,0,0,3.273-3.24,10.569,10.569,0,0,0,.332-3.612.355.355,0,0,0-.2-.332,1.787,1.787,0,0,1-.813-.989c-.17-.614-.1-2.572,1.52-1.787a1.4,1.4,0,0,1,.428.512c.2.375.546,1.535.989,1.467s.989-1.876.989-1.876.17-.887,1.535-.546a13.985,13.985,0,0,1,2.85,1.171" transform="translate(-397.267 -148.418)" fill="#fff"/>
    <path id="패스_278" data-name="패스 278" d="M491.7,193.994c-3.278,0-6.148-2.131-7.111-2.934l-.117-.1.021-.153c.023-.159.138-.21.284-.274a5.554,5.554,0,0,0,3.009-3.031,8.1,8.1,0,0,0,.315-2.963c0-.218-.008-.406,0-.55a.081.081,0,0,0-.046-.076,2.045,2.045,0,0,1-.962-1.165,2.274,2.274,0,0,1,.445-2.084,1.267,1.267,0,0,1,1.459-.023l.023.013a1.655,1.655,0,0,1,.526.614c.056.1.114.24.181.4.1.237.361.857.523.924a4.745,4.745,0,0,0,.768-1.671,1.058,1.058,0,0,1,.462-.626,1.769,1.769,0,0,1,1.406-.115,14.283,14.283,0,0,1,2.915,1.2.349.349,0,0,1,.181.331,8.467,8.467,0,0,0,.067,1.782c.018.106.048.25.082.41.173.818.241,1.228.12,1.452-.217.4-.878.369-1.008.358a.616.616,0,0,0-.345.085c-.042.128-.146.682-.216,1.054-.076.405-.148.788-.194.958a1.221,1.221,0,0,1-1.335.928,4.3,4.3,0,0,1-.469-.1c-.226,1.681,1.457,3.615,1.983,4.171a.373.373,0,0,1-.122.6,7.034,7.034,0,0,1-2.839.587m-6.426-3.086c1.468,1.141,5.157,3.526,8.817,2.091-.7-.782-2.226-2.72-1.947-4.5a.5.5,0,0,1,.611-.411c.355.083.438.094.451.1a.684.684,0,0,0,.748-.527c.04-.148.113-.538.184-.915a7.241,7.241,0,0,1,.265-1.2.948.948,0,0,1,.88-.382.889.889,0,0,0,.474-.068,5.949,5.949,0,0,0-.168-1.083c-.036-.168-.068-.321-.087-.432a8.854,8.854,0,0,1-.081-1.782,13.4,13.4,0,0,0-2.675-1.086,1.3,1.3,0,0,0-.968.04.515.515,0,0,0-.232.3l-.006.023c-.272.9-.7,1.99-1.21,2.068-.551.086-.863-.659-1.114-1.256-.059-.141-.115-.273-.157-.35a1.257,1.257,0,0,0-.325-.405c-.381-.18-.667-.194-.85-.041a1.793,1.793,0,0,0-.268,1.517,1.52,1.52,0,0,0,.664.814.629.629,0,0,1,.365.588c0,.138,0,.318,0,.526a8.495,8.495,0,0,1-.357,3.184,6.051,6.051,0,0,1-3.016,3.193m10.258-9.051h0m-.1-.189v0" transform="translate(-395.961 -147.19)" fill="#020202"/>
    <path id="패스_279" data-name="패스 279" d="M518.422,219.969a.273.273,0,0,1-.078-.011,9.131,9.131,0,0,1-2.128-.984.274.274,0,0,1,.3-.458,8.5,8.5,0,0,0,1.982.917.274.274,0,0,1-.077.537" transform="translate(-421.801 -178.555)" fill="#020202"/>
    <path id="패스_280" data-name="패스 280" d="M121.11,671.83l-1.336,8.761-3.234-1.645.924-8.741Z" transform="translate(-95.248 -547.758)" fill="#fff"/>
    <path id="패스_281" data-name="패스 281" d="M118.548,679.638a.275.275,0,0,1-.124-.03l-3.234-1.645a.274.274,0,0,1-.148-.273l.924-8.741a.274.274,0,0,1,.384-.222L120,670.353a.274.274,0,0,1,.159.292l-1.336,8.761a.275.275,0,0,1-.271.233m-2.942-2.078,2.728,1.387,1.248-8.179-3.111-1.386Z" transform="translate(-94.022 -546.531)" fill="#020202"/>
    <path id="패스_282" data-name="패스 282" d="M79.145,704.862a23.177,23.177,0,0,1,1.075,4.523,1.627,1.627,0,0,1-1.62,1.885H66.7a.879.879,0,0,1-.6-1.538,38.1,38.1,0,0,1,9.123-5.775l1.195,1.687s2.616-1.018,2.719-.782" transform="translate(-53.786 -575.343)" fill="#b2e0ff"/>
    <path id="패스_283" data-name="패스 283" d="M77.376,710.317H65.48a1.157,1.157,0,0,1-1.093-.75A1.14,1.14,0,0,1,64.7,708.3a38.606,38.606,0,0,1,9.2-5.821.274.274,0,0,1,.333.093l1.071,1.512c2.667-1.025,2.77-.788,2.87-.559a22.711,22.711,0,0,1,1.094,4.587,1.87,1.87,0,0,1-.417,1.523,1.922,1.922,0,0,1-1.472.682m-3.463-7.246a38.106,38.106,0,0,0-8.848,5.639.59.59,0,0,0-.166.663.606.606,0,0,0,.58.4h11.9a1.375,1.375,0,0,0,1.053-.487,1.324,1.324,0,0,0,.3-1.078,24.45,24.45,0,0,0-1-4.325,17.24,17.24,0,0,0-2.425.793.274.274,0,0,1-.323-.1Zm3.909.8h0Z" transform="translate(-52.562 -574.116)" fill="#020202"/>
    <path id="패스_284" data-name="패스 284" d="M86.3,735.614H75.659a.274.274,0,1,1,0-.548H86.3a.274.274,0,0,1,0,.548" transform="translate(-61.612 -600.768)" fill="#020202"/>
    <path id="패스_285" data-name="패스 285" d="M102.628,714.4a.274.274,0,0,1-.236-.135l-1.221-2.07a.274.274,0,0,1,.472-.278l1.221,2.07a.274.274,0,0,1-.236.413" transform="translate(-82.656 -581.739)" fill="#020202"/>
    <path id="패스_286" data-name="패스 286" d="M94.756,718.971a.274.274,0,0,1-.24-.14l-.791-1.417a.274.274,0,0,1,.479-.267l.791,1.417a.274.274,0,0,1-.239.408" transform="translate(-76.573 -586.008)" fill="#020202"/>
    <path id="패스_287" data-name="패스 287" d="M151.724,577.566a23.17,23.17,0,0,1,4.529-1.049,1.626,1.626,0,0,1,1.876,1.63l-.067,11.9a.879.879,0,0,1-1.541.586,38.108,38.108,0,0,1-5.723-9.156l1.693-1.185s-1-2.622-.767-2.723" transform="translate(-123.246 -471.169)" fill="#b2e0ff"/>
    <path id="패스_288" data-name="패스 288" d="M155.952,589.982a1.144,1.144,0,0,1-.863-.4,38.6,38.6,0,0,1-5.769-9.228.274.274,0,0,1,.095-.333l1.518-1.063c-1.009-2.672-.772-2.774-.543-2.873a22.718,22.718,0,0,1,4.593-1.068,1.873,1.873,0,0,1,1.521.426,1.922,1.922,0,0,1,.673,1.476l-.067,11.9a1.161,1.161,0,0,1-1.158,1.161m-6.04-9.636a38.1,38.1,0,0,0,5.589,8.879.59.59,0,0,0,.662.17.606.606,0,0,0,.4-.578l.067-11.9a1.374,1.374,0,0,0-.481-1.056,1.325,1.325,0,0,0-1.076-.3,24.45,24.45,0,0,0-4.33.975,17.253,17.253,0,0,0,.779,2.429.274.274,0,0,1-.1.323Zm.586-4h0Z" transform="translate(-122.021 -469.945)" fill="#020202"/>
    <path id="패스_289" data-name="패스 289" d="M181.952,595.888h0a.274.274,0,0,1-.273-.276l.06-10.638a.277.277,0,0,1,.276-.273.274.274,0,0,1,.272.276l-.06,10.638a.274.274,0,0,1-.274.273" transform="translate(-148.485 -477.876)" fill="#020202"/>
    <path id="패스_290" data-name="패스 290" d="M158.814,612.187a.274.274,0,0,1-.138-.511l2.077-1.209a.274.274,0,0,1,.276.474l-2.077,1.209a.273.273,0,0,1-.137.037" transform="translate(-129.574 -498.903)" fill="#020202"/>
    <path id="패스_291" data-name="패스 291" d="M164,621.565a.274.274,0,0,1-.132-.514l1.422-.783a.274.274,0,1,1,.264.48l-1.422.783a.272.272,0,0,1-.132.034" transform="translate(-133.809 -506.916)" fill="#020202"/>
    <path id="패스_292" data-name="패스 292" d="M43.258,372.824S33.487,386.01,30.409,394.68a4.375,4.375,0,0,0,1.15,4.674c3.578,3.315,11.232,10.324,16.146,14.237l1.468-3.727s-1.773-8.629-8.427-12.516L49,385.038l1.818-9.581Z" transform="translate(-24.647 -304.708)" fill="#020202"/>
    <path id="패스_293" data-name="패스 293" d="M113.689,377.938a5.513,5.513,0,0,1,4.474,6.205c-.919,6.416-2.375,16.845-2.651,20.361-.409,5.211.644,11.01.846,15.265s-4.626,14.148-4.626,14.148l-4.654-.321-.863-48.431-1.252-8.872Z" transform="translate(-85.786 -307.543)" fill="#020202"/>
    <path id="패스_294" data-name="패스 294" d="M111.743,557.43a.274.274,0,0,1-.274-.27l-.123-7.664a.274.274,0,0,1,.27-.278h0a.274.274,0,0,1,.274.27l.123,7.664a.274.274,0,0,1-.27.278Z" transform="translate(-91.003 -448.875)" fill="#caddff"/>
    <path id="패스_295" data-name="패스 295" d="M100.785,443.532a.274.274,0,0,1-.274-.273l-.02-3.49a4.176,4.176,0,0,0-1.735-3.358l-.241-.173a.274.274,0,1,1,.32-.445l.241.173a4.727,4.727,0,0,1,1.963,3.8l.02,3.491a.274.274,0,0,1-.273.276Z" transform="translate(-80.423 -356.13)" fill="#caddff"/>
    <path id="패스_296" data-name="패스 296" d="M98.853,178.766a6.3,6.3,0,0,1,6.2-1.729c2.434.664,3.661,2.77,4.526,4.255,1.53,2.625.791,3.575,1.993,5.1,2.13,2.7,5.468,1.012,8.063,2.985,3.959,3.009,4.5,13.221-.86,17.109-3.572,2.593-8.432,1.093-9.754.685-4.013-1.238-9.006-4.695-9.722-9.379-.593-3.874,1.96-7.1-.176-10.344a9.108,9.108,0,0,1-1.4-2.085,6.437,6.437,0,0,1,1.127-6.6" transform="translate(-79.51 -144.517)" fill="#020202"/>
    <path id="패스_297" data-name="패스 297" d="M132.141,161.094c-.914-.741-.336-2.929.25-4.109.219-.442,1.2-2.421,2.491-2.344,1.326.079,2.595,2.3,2.122,4.066-.591,2.2-3.791,3.256-4.862,2.387" transform="translate(-107.608 -126.386)" fill="#020202"/>
    <path id="패스_298" data-name="패스 298" d="M9.036,257.331l-3.408.023L1.5,250.1l3.354-.027Z" transform="translate(-1.226 -204.385)" fill="#b2e0ff"/>
    <path id="패스_299" data-name="패스 299" d="M4.4,256.4a.274.274,0,0,1-.238-.138L.036,249.011a.274.274,0,0,1,.236-.41l3.353-.028a.278.278,0,0,1,.24.137l4.183,7.257a.274.274,0,0,1-.236.411L4.4,256.4ZM.743,249.146l3.818,6.707,2.777-.019L3.47,249.124Z" transform="translate(0 -203.159)" fill="#020202"/>
    <path id="패스_300" data-name="패스 300" d="M24.267,260.841c-2.2.062-4.544,5.4-9.778,8.848-.542.357-1.152.575-1.656.166-1.686-1.37-5.14-4.356-5.7-6.255-.112-.382-.306-2.672-1.083-3.621-.486-.6-.913.106-.913.106s-2.287,3.111.212,5.051a3.1,3.1,0,0,1,.882,1.095,62.973,62.973,0,0,0,5.244,8.513c1.747,2.04,2.393,1.97,4.145,1.039l8.013-4.722s2.109-10.261.629-10.219" transform="translate(-3.42 -212.285)" fill="#fff"/>
    <path id="패스_301" data-name="패스 301" d="M12.634,275.454c-.8,0-1.5-.514-2.566-1.756a63.619,63.619,0,0,1-5.282-8.572,2.84,2.84,0,0,0-.8-1c-2.606-2.022-.417-5.215-.272-5.42a.988.988,0,0,1,.687-.466.782.782,0,0,1,.666.339,7.782,7.782,0,0,1,1.049,3.254c.035.212.064.4.084.464.543,1.853,4.1,4.9,5.606,6.119.2.165.562.326,1.333-.182a29.02,29.02,0,0,0,6.044-5.729c1.553-1.817,2.675-3.13,3.877-3.164a.567.567,0,0,1,.466.219c1,1.189-.507,8.814-.818,10.33a.274.274,0,0,1-.129.181l-8.013,4.722a4.329,4.329,0,0,1-1.926.66M4.441,258.788H4.435c-.092.006-.212.132-.265.215l-.012.018c-.087.118-2.1,2.921.159,4.672a3.391,3.391,0,0,1,.961,1.191,62.834,62.834,0,0,0,5.206,8.455c1.689,1.973,2.222,1.818,3.808.975l7.9-4.654c.7-3.423,1.543-9,.911-9.749-.019-.023-.026-.023-.03-.023-.958.027-2.069,1.327-3.476,2.973a29.468,29.468,0,0,1-6.159,5.831c-.793.523-1.459.573-1.98.15-1.918-1.558-5.221-4.461-5.787-6.39-.03-.1-.057-.272-.1-.53a7.449,7.449,0,0,0-.933-2.995c-.043-.052-.125-.139-.2-.139m18.623.827h0Z" transform="translate(-2.217 -211.059)" fill="#020202"/>
    <path id="패스_302" data-name="패스 302" d="M92.465,257.258a16.156,16.156,0,0,0-12.886-.487,1.1,1.1,0,0,0-.688,1.118,4.012,4.012,0,0,1-.789,2.729c-2.942,4.11-1.181,5.827-1.688,7.872a89.4,89.4,0,0,1-4.188,12.271c-.809,2.075,2.49,2.078,5.3,1.63s9.7-.444,12.59,1.145,3.185-2.3,2.86-4.894-.51-21.384-.51-21.384" transform="translate(-58.93 -208.942)" fill="#b2e0ff"/>
    <path id="패스_303" data-name="패스 303" d="M90.09,283a2.826,2.826,0,0,1-1.337-.4c-2.823-1.553-9.682-1.551-12.415-1.115-1.665.266-4.59.548-5.475-.55a1.382,1.382,0,0,1-.121-1.45,89.612,89.612,0,0,0,4.177-12.237,5.107,5.107,0,0,0,.014-1.837c-.158-1.442-.354-3.237,1.717-6.129a3.741,3.741,0,0,0,.738-2.545,1.366,1.366,0,0,1,.859-1.4,16.582,16.582,0,0,1,13.12.5.274.274,0,0,1,.143.238c0,.188.189,18.8.508,21.353.089.707.454,4.285-1.055,5.309a1.519,1.519,0,0,1-.872.264m-9.725-2.324c3.083,0,6.71.37,8.653,1.439.691.38,1.241.437,1.637.168.9-.613,1.062-2.846.819-4.788-.311-2.479-.491-19.264-.511-21.249a16.037,16.037,0,0,0-12.511-.4.821.821,0,0,0-.517.839,4.282,4.282,0,0,1-.839,2.913c-1.949,2.722-1.773,4.331-1.618,5.751a5.6,5.6,0,0,1-.027,2.028,90,90,0,0,1-4.2,12.3.867.867,0,0,0,.037.906c.512.635,2.367.768,4.962.353a28.057,28.057,0,0,1,4.113-.263" transform="translate(-57.699 -207.759)" fill="#020202"/>
    <path id="패스_304" data-name="패스 304" d="M117.508,277.588l-6.6-3.935a3.12,3.12,0,0,0-2.685-.245l-3.093,1.149a.5.5,0,0,0,.13.957,1.883,1.883,0,0,0,.644-.06,2.736,2.736,0,0,1,2.371.4,1.267,1.267,0,0,0,1.156.2.793.793,0,0,1,.841.307c1.323,1.824,6.114,8,10.413,8.151,4.1.142,2.775-13.316,1.425-19.658a4.474,4.474,0,0,0-2.811-2.721l-1.51-.576.773,15.4a.7.7,0,0,1-1.054.634" transform="translate(-85.659 -213.769)" fill="#fff"/>
    <path id="패스_305" data-name="패스 305" d="M119.522,283.56h-.074c-4.408-.152-9.247-6.363-10.625-8.263a.522.522,0,0,0-.549-.2,1.518,1.518,0,0,1-1.4-.248,2.514,2.514,0,0,0-2.13-.35,2.153,2.153,0,0,1-.738.067.769.769,0,0,1-.2-1.487l3.093-1.149a3.379,3.379,0,0,1,2.921.266l6.6,3.935a.423.423,0,0,0,.64-.385l-.773-15.4a.274.274,0,0,1,.371-.27l1.51.576a4.694,4.694,0,0,1,2.981,2.92c1.06,4.978,2.435,16.226-.079,19.224a1.965,1.965,0,0,1-1.55.766M108.4,274.528a1.065,1.065,0,0,1,.863.446c1.341,1.849,6.041,7.893,10.2,8.037a1.421,1.421,0,0,0,1.185-.569c2.153-2.567,1.25-12.71-.037-18.758a4.209,4.209,0,0,0-2.64-2.522l-1.117-.426.752,14.978a.972.972,0,0,1-1.468.883l-6.6-3.935a2.834,2.834,0,0,0-2.449-.223L104,273.589a.21.21,0,0,0-.142.234.215.215,0,0,0,.2.194,1.616,1.616,0,0,0,.55-.052,3.062,3.062,0,0,1,2.613.456.98.98,0,0,0,.913.143,1.065,1.065,0,0,1,.269-.035" transform="translate(-84.432 -212.543)" fill="#020202"/>
    <path id="패스_306" data-name="패스 306" d="M109.793,206.437a1.058,1.058,0,0,1-1.219-.186,6.248,6.248,0,0,1-.929-1.183l-.469.01a.276.276,0,0,1-.282-.264l-.081-1.833c-1.079-1.76-.229-2.7-.229-2.7.537-.934,2.374-1.452,3.636.3.437.607,1.123.156,1.495-.17a1.709,1.709,0,0,0,.373-.476c.252-.464.883-1.426,1.384-.52a2.962,2.962,0,0,1-.474,3.473l1.131,4.816a3.444,3.444,0,0,0,2.12,2.429l1.086.416s-1.7,5.556-6.5,5.453c-3.666-.079-2.086-5.033-2.086-5.033l.482-.212a2.88,2.88,0,0,0,1.646-3.271l-.323-1.426Z" transform="translate(-86.852 -162.672)" fill="#fff"/>
    <path id="패스_307" data-name="패스 307" d="M125.756,228.938a.274.274,0,0,1-.12-.521,2.91,2.91,0,0,0,1.358-2.177.274.274,0,0,1,.546.049,3.412,3.412,0,0,1-1.664,2.621.275.275,0,0,1-.12.028" transform="translate(-102.556 -184.702)" fill="#020202"/>
  </g>
</svg>
