<svg xmlns="http://www.w3.org/2000/svg" xmlns:xlink="http://www.w3.org/1999/xlink" width="212" height="91" viewBox="0 0 212 91">
  <defs>
    <clipPath id="clip-path">
      <rect id="사각형_2" data-name="사각형 2" width="212" height="91" transform="translate(0.276 0.09)" fill="#fff"/>
    </clipPath>
  </defs>
  <g id="그룹_4" data-name="그룹 4" transform="translate(-0.276 -0.09)">
    <g id="그룹_3" data-name="그룹 3" transform="translate(0 0)" clip-path="url(#clip-path)">
      <path id="패스_7" data-name="패스 7" d="M95,23.589H93.85a2.978,2.978,0,0,1-2.945-3.009V12.986H87.1a8.907,8.907,0,0,1-1.472,2.605,8.708,8.708,0,0,1-2.19,1.908,10.408,10.408,0,0,1-2.765,1.174,12.294,12.294,0,0,1-3.2.4,12.113,12.113,0,0,1-4-.642,9.458,9.458,0,0,1-3.231-1.871,8.728,8.728,0,0,1-2.173-2.99,9.761,9.761,0,0,1-.79-4.035,9.81,9.81,0,0,1,.79-4.018,8.682,8.682,0,0,1,2.173-3.007A9.482,9.482,0,0,1,73.474.643a12.132,12.132,0,0,1,4-.643A12.257,12.257,0,0,1,80.87.459,9.991,9.991,0,0,1,83.761,1.8a8.848,8.848,0,0,1,2.208,2.146,8.674,8.674,0,0,1,1.346,2.88h3.59V3.376A2.978,2.978,0,0,1,93.85.367H95a2.977,2.977,0,0,1,2.945,3.009v17.2A2.977,2.977,0,0,1,95,23.589m.18,9.171H73.513A2.745,2.745,0,0,1,70.8,29.987V23.7a2.976,2.976,0,0,1,2.944-3.008h1.149A2.976,2.976,0,0,1,77.836,23.7v2.352a.686.686,0,0,0,.679.693H95.178a2.976,2.976,0,0,1,2.944,3.007h0a2.977,2.977,0,0,1-2.944,3.008m-17.7-19.774a2.971,2.971,0,0,0,2.262-.954,3.49,3.49,0,0,0,.9-2.494,3.454,3.454,0,0,0-.915-2.495,3.117,3.117,0,0,0-4.488,0,3.454,3.454,0,0,0-.915,2.495,3.451,3.451,0,0,0,.915,2.494,2.987,2.987,0,0,0,2.244.954" transform="translate(-65.371 -0.201)" fill="#fff"/>
      <path id="패스_8" data-name="패스 8" d="M137.953,3.374V29.817a2.744,2.744,0,0,1-2.714,2.773h-1.107a2.744,2.744,0,0,1-2.715-2.773V27.276a3.03,3.03,0,0,1-1.136,1.359,2.967,2.967,0,0,1-4.252-1.145q-.378-.727-.745-1.447-1.1-2.146-2.064-4.311-1.042,2.421-2.1,4.677-.364.775-.752,1.556a3.092,3.092,0,0,1-4.555,1.187,3.347,3.347,0,0,1-.977-4.162q.79-1.683,1.544-3.442,1.382-3.228,2.46-6.31a11.405,11.405,0,0,0,.431-1.65,10.866,10.866,0,0,0,.143-1.871v-4.4h-1.059A3.188,3.188,0,0,1,115.8,2.344a2.647,2.647,0,0,1,2.3-1.3h9.407a3.188,3.188,0,0,1,2.555,4.97,2.648,2.648,0,0,1-2.3,1.3h-1.2v4.4a7.7,7.7,0,0,0,.162,1.743,14.134,14.134,0,0,0,.449,1.485,60.371,60.371,0,0,0,2.244,5.631c.446.982,1.262,2.677,1.954,4.1.021.043.031.09.05.134V15.789h-.3a3.211,3.211,0,0,1,0-6.42h.3V3.374A2.744,2.744,0,0,1,134.133.6h1.107a2.744,2.744,0,0,1,2.714,2.773M142.871.491h-.717A2.977,2.977,0,0,0,139.21,3.5V29.876a2.977,2.977,0,0,0,2.945,3.009h.717a2.978,2.978,0,0,0,2.945-3.009V3.5A2.978,2.978,0,0,0,142.871.491" transform="translate(-78.095 -0.326)" fill="#fff"/>
      <path id="패스_9" data-name="패스 9" d="M193.091,32.886h-1.148A2.978,2.978,0,0,1,189,29.877V19.312h-3.267V22.98a8.4,8.4,0,0,1-.772,3.669,8.206,8.206,0,0,1-2.082,2.733,9.1,9.1,0,0,1-3.088,1.706,12.362,12.362,0,0,1-7.521,0,9.127,9.127,0,0,1-3.07-1.706,8.194,8.194,0,0,1-2.082-2.733,8.4,8.4,0,0,1-.772-3.669V9.186a8.4,8.4,0,0,1,.772-3.669A8.2,8.2,0,0,1,169.2,2.784a9.138,9.138,0,0,1,3.07-1.706,12.346,12.346,0,0,1,7.521,0,9.115,9.115,0,0,1,3.088,1.706,8.209,8.209,0,0,1,2.082,2.733,8.4,8.4,0,0,1,.772,3.669v3.559H189V3.5A2.977,2.977,0,0,1,191.943.492h1.148A2.976,2.976,0,0,1,196.035,3.5V29.877a2.977,2.977,0,0,1-2.944,3.009M173.38,22.8a2.351,2.351,0,0,0,.772,1.834,2.9,2.9,0,0,0,3.769,0,2.351,2.351,0,0,0,.772-1.834V9.369a2.353,2.353,0,0,0-.772-1.834,2.9,2.9,0,0,0-3.769,0,2.353,2.353,0,0,0-.772,1.834Z" transform="translate(-92.066 -0.326)" fill="#fff"/>
      <path id="패스_10" data-name="패스 10" d="M236.147,24.19V3.5A2.977,2.977,0,0,1,239.091.491h1.148A2.978,2.978,0,0,1,243.184,3.5V29.876a2.978,2.978,0,0,1-2.945,3.009h-1.148a2.977,2.977,0,0,1-2.944-3.009v-2.6m-3.052,3.155H216.78a2.744,2.744,0,0,1-2.714-2.773V3.815a2.744,2.744,0,0,1,2.714-2.774h13.191a3.05,3.05,0,0,1,3.016,3.082A3.049,3.049,0,0,1,229.971,7.2h-8.189a.686.686,0,0,0-.679.693V23.5a.686.686,0,0,0,.679.693h11.313a3.119,3.119,0,0,1,0,6.236" transform="translate(-104.927 -0.326)" fill="#fff"/>
      <path id="패스_11" data-name="패스 11" d="M278.515,28.505a3.271,3.271,0,0,1-4.866-.584q-.659-.937-1.28-1.9-1.616-2.495-2.944-4.842-1.365,2.348-3.016,4.9-.688,1.063-1.407,2.089a3.272,3.272,0,0,1-4.726.716l-.038-.03a3.429,3.429,0,0,1-.723-4.561q1.284-1.947,2.353-3.9,1.778-3.247,3.105-6.255a6.591,6.591,0,0,0,.539-1.962,17.282,17.282,0,0,0,.143-2.183V3.866A2.977,2.977,0,0,1,268.6.858h1.65a2.977,2.977,0,0,1,2.945,3.008V9.993a16.985,16.985,0,0,0,.144,2.183,6.546,6.546,0,0,0,.538,1.962q1.328,3.008,2.962,6.071,1.022,1.916,2.289,3.911A3.429,3.429,0,0,1,278.515,28.505Zm7.927,4.379H285.3a2.977,2.977,0,0,1-2.945-3.009V15.752h-2.567a3.394,3.394,0,0,1,0-6.787h2.567V3.5A2.977,2.977,0,0,1,285.3.491h1.147A2.977,2.977,0,0,1,289.387,3.5V29.876a2.977,2.977,0,0,1-2.945,3.009" transform="translate(-117.022 -0.326)" fill="#fff"/>
      <path id="패스_12" data-name="패스 12" d="M327.533,26.978a3.049,3.049,0,0,1-3.016,3.081H309.423a2.744,2.744,0,0,1-2.714-2.773V4.637a3.519,3.519,0,1,1,7.037,0V23.2a.686.686,0,0,0,.679.693h10.093a3.049,3.049,0,0,1,3.016,3.081m8.132-15.188h-1.1V3.5A2.977,2.977,0,0,0,331.625.491h-1.148A2.978,2.978,0,0,0,327.533,3.5V29.876a2.978,2.978,0,0,0,2.945,3.009h1.148a2.977,2.977,0,0,0,2.945-3.009V18.357h1.1a3.284,3.284,0,0,0,0-6.566" transform="translate(-129.892 -0.326)" fill="#fff"/>
      <path id="패스_13" data-name="패스 13" d="M95.181,99.278a4.973,4.973,0,0,1-7.315-.748q-1.125-1.508-2.227-3.055-2.7-3.789-4.771-7.355-2.072,3.566-4.852,7.438-1.216,1.693-2.432,3.327a4.983,4.983,0,0,1-7.115.967l-.052-.042a5.218,5.218,0,0,1-1.085-6.993q2.006-2.942,3.785-5.9a85.273,85.273,0,0,0,4.989-9.5,10.016,10.016,0,0,0,.817-2.981,26.033,26.033,0,0,0,.218-3.316v-9.3a4.521,4.521,0,0,1,4.472-4.569h2.507a4.52,4.52,0,0,1,4.471,4.569v9.3a26.18,26.18,0,0,0,.218,3.316,9.976,9.976,0,0,0,.817,2.981A87.342,87.342,0,0,0,92.4,86.644q1.7,2.879,3.666,5.873A5.235,5.235,0,0,1,95.181,99.278Zm10.988,6.616h-1.744a4.522,4.522,0,0,1-4.472-4.57V61.267a4.522,4.522,0,0,1,4.472-4.57h1.744a4.522,4.522,0,0,1,4.472,4.57v40.057a4.522,4.522,0,0,1-4.472,4.57" transform="translate(-64.607 -14.578)" fill="#fff"/>
      <path id="패스_14" data-name="패스 14" d="M162.1,84.277H141.06a4.167,4.167,0,0,1-4.122-4.212v-18.6a4.167,4.167,0,0,1,4.122-4.211H162.1a4.167,4.167,0,0,1,4.122,4.211v18.6a4.167,4.167,0,0,1-4.122,4.212m15.954,21.617h-32.9a4.168,4.168,0,0,1-4.122-4.212v-9.55a4.521,4.521,0,0,1,4.471-4.569h1.745a4.521,4.521,0,0,1,4.471,4.569V95.7a1.042,1.042,0,0,0,1.031,1.052h25.306a4.57,4.57,0,0,1,0,9.138m-22.52-31.864V67.5a1.042,1.042,0,0,0-1.03-1.053h-5.846a1.042,1.042,0,0,0-1.031,1.053v6.53a1.042,1.042,0,0,0,1.031,1.053H154.5a1.042,1.042,0,0,0,1.03-1.053m22.247,17.934h-1.743a4.522,4.522,0,0,1-4.472-4.57V61.268a4.522,4.522,0,0,1,4.472-4.57h1.743a4.522,4.522,0,0,1,4.472,4.57V87.4a4.522,4.522,0,0,1-4.472,4.57" transform="translate(-84.142 -14.578)" fill="#fff"/>
      <path id="패스_15" data-name="패스 15" d="M254.755,56.243H256.5a4.521,4.521,0,0,1,4.471,4.568v40.416a4.167,4.167,0,0,1-4.122,4.212H219.367a4.57,4.57,0,0,1,0-9.137h29.887a1.042,1.042,0,0,0,1.03-1.053V60.811a4.521,4.521,0,0,1,4.472-4.568m-6.87,6.908h0a4.08,4.08,0,0,0-4.035-4.123H237.8a4.079,4.079,0,0,0-4.035-4.122h-4.471a4.079,4.079,0,0,0-4.035,4.122H219.2a4.124,4.124,0,0,0,0,8.247H243.85a4.08,4.08,0,0,0,4.035-4.124M233.271,91.4q6.706,0,10.387-2.814t3.681-8.5q0-5.683-3.681-8.5t-10.387-2.813h-3.49q-6.706,0-10.387,2.813t-3.68,8.5q0,5.683,3.68,8.5T229.781,91.4Zm-4.035-8.691a2.979,2.979,0,0,1-2.181-.752,2.665,2.665,0,0,1,0-3.733,2.973,2.973,0,0,1,2.181-.752h4.581a2.975,2.975,0,0,1,2.181.752,2.663,2.663,0,0,1,0,3.733,2.98,2.98,0,0,1-2.181.752Z" transform="translate(-105.15 -14.124)" fill="#fff"/>
      <path id="패스_16" data-name="패스 16" d="M311.092,82.382H290.6a4.167,4.167,0,0,1-4.121-4.211v-16.7a4.168,4.168,0,0,1,4.121-4.212h20.493a4.168,4.168,0,0,1,4.122,4.212v16.7a4.167,4.167,0,0,1-4.122,4.211m9.956,2.117a12.363,12.363,0,0,1,4.908.892,9.333,9.333,0,0,1,3.408,2.424,10.027,10.027,0,0,1,1.991,3.566,13.831,13.831,0,0,1,.654,4.262,13.323,13.323,0,0,1-.682,4.262,10.175,10.175,0,0,1-2.045,3.566,9.543,9.543,0,0,1-3.463,2.424,12.556,12.556,0,0,1-4.934.891H298.419a12.157,12.157,0,0,1-4.88-.891,9.122,9.122,0,0,1-3.354-2.424,9.919,9.919,0,0,1-1.936-3.566,14.385,14.385,0,0,1-.627-4.262,13.8,13.8,0,0,1,.655-4.262,10.011,10.011,0,0,1,1.99-3.566,9.323,9.323,0,0,1,3.408-2.424,12.361,12.361,0,0,1,4.908-.892ZM304.526,72.136V67.5a1.043,1.043,0,0,0-1.031-1.053h-5.3a1.042,1.042,0,0,0-1.031,1.053v4.636a1.042,1.042,0,0,0,1.031,1.052h5.3a1.042,1.042,0,0,0,1.031-1.052M318.594,97.7a3.226,3.226,0,0,0,1.991-.557,1.789,1.789,0,0,0,.736-1.5,1.891,1.891,0,0,0-.709-1.532,3.087,3.087,0,0,0-2.017-.584H301.036a3.087,3.087,0,0,0-2.018.584,1.891,1.891,0,0,0-.709,1.532,1.787,1.787,0,0,0,.736,1.5,3.221,3.221,0,0,0,1.99.557Zm7.088-14.486h-1.743a4.522,4.522,0,0,1-4.472-4.57V61.267a4.522,4.522,0,0,1,4.472-4.57h1.743a4.522,4.522,0,0,1,4.472,4.57v3.119h.763a4.682,4.682,0,0,1,0,9.361h-.763v4.9a4.522,4.522,0,0,1-4.472,4.57" transform="translate(-124.44 -14.578)" fill="#fff"/>
    </g>
  </g>
</svg>
