<svg id="그룹_126" data-name="그룹 126" xmlns="http://www.w3.org/2000/svg" xmlns:xlink="http://www.w3.org/1999/xlink" width="207" height="207" viewBox="0 0 207 207">
  <defs>
    <clipPath id="clip-path">
      <rect id="사각형_57" data-name="사각형 57" width="207" height="207" fill="none"/>
    </clipPath>
  </defs>
  <g id="그룹_125" data-name="그룹 125" clip-path="url(#clip-path)">
    <path id="패스_60" data-name="패스 60" d="M9.041,64.3a101.3,101.3,0,0,0-8.43,52.58c3.413,30.334,20.311,54.249,36.747,67.687,54.542,44.593,154.387,15.785,167.609-26.221,2.4-7.621,1.724-14.971.894-24.015-2.639-28.765-16.542-37.315-25.893-67.857-8.509-27.8-.12-30.923-8.077-43.28C154.632-3.612,104.808-4.963,70.526,7.888,57.357,12.825,25.4,27.966,9.041,64.3" transform="translate(0 0)" fill="#fff"/>
    <path id="패스_61" data-name="패스 61" d="M176.252,41.03a22.212,22.212,0,0,1,5.449.9c2.55.579,3.256.968,3.57,1.637.514,1.1-.254,2.445-.484,2.849-1.3,2.291-3.691,2.591-5.265,3.637-5.091,3.386-2.5,9.135-6.717,12.731-4.021,3.425-7.778-.6-15.008,2.668-5.692,2.571-5.162,5.878-9.8,7.335-5.669,1.78-14.552-.612-18.154-7.76-3.425-6.8-1.058-15.87,3.57-18.187,4.2-2.105,7.452,2.546,13.071.364,5.539-2.152,5.967-8.109,10.289-8.034,1.034.018.817.355,7.623,2.82,3.152,1.142,3.531,1.19,3.873,1.212,3.391.226,4.1-1.957,7.985-2.17" transform="translate(-96.296 -29.399)" fill="#020202"/>
    <path id="패스_62" data-name="패스 62" d="M228.446,135.607c2.422,14.857,2.7,15.076,3.03,16.632a65.587,65.587,0,0,1,1.227,8.59c.231,3.657-.455,25.621-11.787,30.457-4.092,1.747-5.278-1.464-13.992-1.115-8.93.357-10.74,3.54-14.636,2.425-8.432-2.413-11.186-20.538-10.722-31.738.378-9.122,4.91-17.735,13.972-34.961,1.38-2.624,3.59-6.63,7.149-7.141,1.632-.234,2.284.017,8.835,1.819,7.126,1.96,8.935-.125,11.994,1.806,3.16,2,3.718,5.791,4.929,13.227" transform="translate(-136.328 -89.083)" fill="#09f"/>
    <path id="패스_63" data-name="패스 63" d="M305.322,531.477v7.185l-3.451-.211-.679-6.974Z" transform="translate(-226.211 -398.928)" fill="#fff"/>
    <path id="패스_64" data-name="패스 64" d="M304.2,537.91h-.023l-3.451-.211a.374.374,0,0,1-.349-.337l-.679-6.974a.374.374,0,0,1,.371-.41h4.13a.374.374,0,0,1,.373.374v7.185a.374.374,0,0,1-.373.374m-3.11-.939,2.736.167v-6.413h-3.345Z" transform="translate(-225.084 -397.802)" fill="#020202"/>
    <path id="패스_65" data-name="패스 65" d="M297.815,561.464a23.41,23.41,0,0,0,6.384-.214,1.5,1.5,0,0,0,1.194-1.888,67.355,67.355,0,0,0-3.057-8.994l-.637,1.165-.51-1.23a.533.533,0,0,0-.407-.257l-1.323-.124a.691.691,0,0,0-.656.52l-.872,1.091-.5-1.3-.942,9.586a1.5,1.5,0,0,0,1.327,1.641" transform="translate(-222.672 -412.772)" fill="#fff"/>
    <path id="패스_66" data-name="패스 66" d="M299.087,560.84a22.906,22.906,0,0,1-2.438-.128,1.879,1.879,0,0,1-1.659-2.049l.942-9.586a.373.373,0,0,1,.72-.1l.268.691.417-.521a1.077,1.077,0,0,1,1.032-.722l1.323.124a.909.909,0,0,1,.693.437.411.411,0,0,1,.025.049l.211.51.263-.481a.367.367,0,0,1,.335-.194.374.374,0,0,1,.327.208,68.979,68.979,0,0,1,3.081,9.059,1.878,1.878,0,0,1-1.49,2.358,23.885,23.885,0,0,1-4.049.345m-2.56-10.182-.794,8.078a1.128,1.128,0,0,0,.995,1.232,22.983,22.983,0,0,0,6.281-.211,1.134,1.134,0,0,0,.766-.512,1.114,1.114,0,0,0,.132-.906,79.8,79.8,0,0,0-2.726-8.264l-.281.513a.378.378,0,0,1-.348.194.373.373,0,0,1-.325-.23l-.5-1.2a.16.16,0,0,0-.111-.061l-1.323-.124a.337.337,0,0,0-.253.213.375.375,0,0,1-.076.169l-.872,1.091a.373.373,0,0,1-.571.015" transform="translate(-221.546 -411.648)" fill="#020202"/>
    <path id="패스_67" data-name="패스 67" d="M303.294,588.239a16.5,16.5,0,0,1-3.678-.406.374.374,0,0,1,.181-.726,15.388,15.388,0,0,0,6.683,0,.374.374,0,0,1,.19.724,13.366,13.366,0,0,1-3.376.407" transform="translate(-224.815 -440.675)" fill="#020202"/>
    <path id="패스_68" data-name="패스 68" d="M309.375,574.465h-3.149a.374.374,0,0,1,0-.748h3.149a.374.374,0,0,1,0,.748" transform="translate(-229.712 -430.633)" fill="#020202"/>
    <path id="패스_69" data-name="패스 69" d="M202.986,516.235l-1.02,8.662-3.234-.113v-8.549Z" transform="translate(-149.258 -387.487)" fill="#fff"/>
    <path id="패스_70" data-name="패스 70" d="M200.839,524.144h-.013l-3.234-.112a.374.374,0,0,1-.36-.374v-8.55a.374.374,0,0,1,.373-.374h4.254a.374.374,0,0,1,.371.418l-1.02,8.662a.374.374,0,0,1-.371.33m-2.861-.848,2.53.088.93-7.9h-3.461Z" transform="translate(-148.131 -386.361)" fill="#020202"/>
    <path id="패스_71" data-name="패스 71" d="M187.278,542.3a44.116,44.116,0,0,1,.288,5.394c-.092,1.108-1.609,4.452-2.464,6.265a2.087,2.087,0,0,1-1.767,1.256c-.907.039-2.17.085-3.187.086a2.248,2.248,0,0,1-1.863-3.08,23.111,23.111,0,0,1,2.346-4.922,36.222,36.222,0,0,0,2.135-5.125H185.4l.517,2.193Z" transform="translate(-133.8 -406.956)" fill="#fff"/>
    <path id="패스_72" data-name="패스 72" d="M179.017,554.549a2.269,2.269,0,0,1-1.846-.986,2.872,2.872,0,0,1-.369-2.587,23.438,23.438,0,0,1,2.384-5,36.153,36.153,0,0,0,2.1-5.046.373.373,0,0,1,.354-.254h2.636a.374.374,0,0,1,.363.288l.318,1.349.883-1.342a.373.373,0,0,1,.683.165,43.519,43.519,0,0,1,.288,5.466c-.091,1.1-1.409,4.085-2.5,6.393a2.467,2.467,0,0,1-2.088,1.47c-.891.039-2.171.085-3.2.086Zm2.886-13.128a32.965,32.965,0,0,1-2.085,4.951,22.7,22.7,0,0,0-2.308,4.843,2.123,2.123,0,0,0,.268,1.911,1.512,1.512,0,0,0,1.239.675h0c1.019,0,2.287-.047,3.171-.085a1.725,1.725,0,0,0,1.445-1.042,29.723,29.723,0,0,0,2.429-6.136,33,33,0,0,0-.184-4.275l-.778,1.183a.373.373,0,0,1-.675-.12l-.449-1.9Z" transform="translate(-132.672 -405.83)" fill="#020202"/>
    <path id="패스_73" data-name="패스 73" d="M184.058,573.955h0l-3,0a.374.374,0,0,1,0-.748h0l3,0h0a2.407,2.407,0,0,0,2.148-1.381c1.427-2.883,1.5-2.945,1.592-3.017a.374.374,0,0,1,.516.538c-.052.079-.3.507-1.438,2.812a3.15,3.15,0,0,1-2.817,1.8m4.212-4.568h0" transform="translate(-135.701 -426.885)" fill="#020202"/>
    <path id="패스_74" data-name="패스 74" d="M189.509,574.9h-2.886a.374.374,0,0,1,0-.748h2.886a.374.374,0,0,1,0,.748" transform="translate(-139.883 -430.956)" fill="#020202"/>
    <path id="패스_75" data-name="패스 75" d="M231.161,231.523s-.344,26.437-1.453,43.647-3.3,30.37-3.3,30.37-3.764,1.355-6.234.645c0,0-2.046-15.1-2.51-20.2s.769-7.635.873-11.811-1.8-22.616-1.8-22.616-14.188,41.688-15.811,50.895c0,0-3.436.584-5.858-.742,0,0-.075-16.394.268-18.927.637-4.693,4.3-9.313,4.952-14.3s1.038-17.495,2.848-25a122.9,122.9,0,0,1,5.36-15.933Z" transform="translate(-146.507 -170.802)" fill="#020202"/>
    <path id="패스_76" data-name="패스 76" d="M241.83,261.138a.374.374,0,0,1-.142-.721,10.814,10.814,0,0,0,5.908-6.367.373.373,0,1,1,.717.209,11.41,11.41,0,0,1-6.341,6.851.373.373,0,0,1-.141.028" transform="translate(-181.347 -190.488)" fill="#fff"/>
    <path id="패스_77" data-name="패스 77" d="M224.617,267.29a.348.348,0,0,1-.049,0,.374.374,0,0,1-.322-.419,61.038,61.038,0,0,1,6.6-21.119.374.374,0,1,1,.643.381,60.266,60.266,0,0,0-6.505,20.834.374.374,0,0,1-.37.326" transform="translate(-168.418 -184.321)" fill="#fff"/>
    <path id="패스_78" data-name="패스 78" d="M479.211,132.7l-6.184,2.576-2.258,4.866a26.677,26.677,0,0,1-4.038,2.228c.244.522.486,1.044.714,1.571.372.857.729,1.719,1.084,2.583a17.875,17.875,0,0,0,3.742-5.216c3.815-.223,3.909-3.17,3.721-3.934s.159-1.631,1.912-2.785c1.918-1.263,1.306-1.888,1.306-1.888" transform="translate(-350.54 -99.602)" fill="#fff"/>
    <path id="패스_79" data-name="패스 79" d="M467.4,145.767a.4.4,0,0,1-.073-.007.376.376,0,0,1-.272-.224c-.321-.782-.7-1.691-1.081-2.576-.232-.535-.478-1.066-.71-1.561a.375.375,0,0,1,.187-.5,26.4,26.4,0,0,0,3.895-2.139l2.213-4.77a.374.374,0,0,1,.2-.188l6.183-2.576a.373.373,0,0,1,.41.084.809.809,0,0,1,.194.653c-.059.558-.585,1.166-1.562,1.809-1.807,1.189-1.867,1.929-1.755,2.383a3.681,3.681,0,0,1-.63,2.808,4.218,4.218,0,0,1-3.2,1.573,18.839,18.839,0,0,1-3.729,5.124.372.372,0,0,1-.264.109m-1.3-4.342c.185.4.376.816.558,1.236.3.7.6,1.411.871,2.065a17.3,17.3,0,0,0,3.268-4.692.374.374,0,0,1,.324-.231A3.627,3.627,0,0,0,474,138.517a2.926,2.926,0,0,0,.506-2.184c-.265-1.071.393-2.084,2.069-3.188a3.694,3.694,0,0,0,1.128-1.011l-5.523,2.3-2.2,4.734a.374.374,0,0,1-.131.154,27.294,27.294,0,0,1-3.747,2.1m3.54-2.413h0Z" transform="translate(-349.413 -98.476)" fill="#020202"/>
    <path id="패스_80" data-name="패스 80" d="M268.194,121.945s-8.467-1.214-16.8-1.456c0,0-10.454,27.318-10.453,29.161s4.464,4.2,10.453,2.7,13.6-1.654,17.877-.652c6.411,1.5-1.075-29.75-1.075-29.75" transform="translate(-180.958 -90.439)" fill="#fff"/>
    <path id="패스_81" data-name="패스 81" d="M246.5,152.079a9.834,9.834,0,0,1-5.919-1.676,2.539,2.539,0,0,1-1.144-1.88c0-1.859,9.4-26.492,10.478-29.3a.368.368,0,0,1,.359-.24c8.26.241,16.759,1.448,16.844,1.46a.373.373,0,0,1,.31.283c.253,1.058,6.164,25.95,2.423,29.72a1.823,1.823,0,0,1-1.8.481c-4.458-1.043-12.068-.764-17.7.651a15.836,15.836,0,0,1-3.854.5m4.017-32.335c-4.191,10.958-10.334,27.487-10.333,28.779a1.872,1.872,0,0,0,.857,1.29c1.609,1.257,5.057,2.068,9.132,1.045,5.732-1.44,13.493-1.721,18.053-.654a1.072,1.072,0,0,0,1.1-.28c2.83-2.852-.835-21.492-2.561-28.77-1.447-.2-8.905-1.178-16.244-1.41" transform="translate(-179.831 -89.312)" fill="#020202"/>
    <path id="패스_82" data-name="패스 82" d="M379.642,133.335l3.9,2.48s-4.117,9.534-13.073,12.446-17.422-5.341-17.422-5.341l.771,17.7s-4.327,2.569-4.327,2.342-1.892-39.48-1.892-39.48,3.493.056,5.051,2.277,7.452,11.4,14.229,11.509,12.759-3.931,12.759-3.931" transform="translate(-261.068 -92.684)" fill="#09f"/>
    <path id="패스_83" data-name="패스 83" d="M328.848,151.016l-15.391-1.589a1.165,1.165,0,0,0-1.092.97l-3.716,22.981a.791.791,0,0,0,.778.97l16.32-.8c.517,0,1.058.368,1.145-.168l3.716-22.981c.087-.536-1.245.62-1.761.62" transform="translate(-231.802 -112.16)" fill="#020202"/>
    <path id="패스_84" data-name="패스 84" d="M308.318,173.595a1.151,1.151,0,0,1-.9-.4,1.239,1.239,0,0,1-.26-1l3.716-22.981a1.532,1.532,0,0,1,1.461-1.284l.038,0,15.363,1.587a3.6,3.6,0,0,0,.767-.378c.524-.3.87-.506,1.166-.3a.475.475,0,0,1,.186.495l-3.716,22.981a.7.7,0,0,1-.286.492,1.032,1.032,0,0,1-.833.05,1.976,1.976,0,0,0-.395-.06l-16.3.8Zm4-24.92a.794.794,0,0,0-.706.655l-3.716,22.981a.487.487,0,0,0,.092.4.4.4,0,0,0,.318.136l16.3-.8h0a2.587,2.587,0,0,1,.568.076c.068.015.161.035.227.043l3.634-22.473-.162.093a2.644,2.644,0,0,1-1.153.48l-.038,0Z" transform="translate(-230.676 -111.034)" fill="#020202"/>
    <path id="패스_85" data-name="패스 85" d="M331.878,149.426H315.5a1.165,1.165,0,0,0-1.092.97L310.7,173.377a.791.791,0,0,0,.778.97h16.373a1.165,1.165,0,0,0,1.092-.97l3.716-22.981a.791.791,0,0,0-.779-.97" transform="translate(-233.339 -112.159)" fill="#fff"/>
    <path id="패스_86" data-name="패스 86" d="M326.723,173.594H310.35a1.141,1.141,0,0,1-.887-.4,1.239,1.239,0,0,1-.261-1l3.716-22.981a1.533,1.533,0,0,1,1.461-1.284h16.373a1.141,1.141,0,0,1,.886.4,1.238,1.238,0,0,1,.26,1l-3.716,22.981a1.532,1.532,0,0,1-1.46,1.284m-12.344-24.92a.79.79,0,0,0-.723.655l-3.716,22.981a.484.484,0,0,0,.092.4.4.4,0,0,0,.318.136h16.373a.79.79,0,0,0,.723-.655l3.716-22.981a.486.486,0,0,0-.092-.4.4.4,0,0,0-.318-.136Z" transform="translate(-232.214 -111.034)" fill="#020202"/>
    <path id="패스_87" data-name="패스 87" d="M310.655,191.089l.176,2.163,6.557-1.194a1.925,1.925,0,0,1,.242.568,2.13,2.13,0,0,1-.465,1.929c-.286.357-1.419.367-1.331,1.076.077.619-2.486,1.1-4.7,1.513-2.482.462-2.27-3.082-1.656-4.9.478-1.414,1.179-1.159,1.179-1.159" transform="translate(-232.132 -143.419)" fill="#fff"/>
    <path id="패스_88" data-name="패스 88" d="M309.578,196.434a1.736,1.736,0,0,1-1.367-.6c-.981-1.135-.672-3.511-.225-4.832a2.134,2.134,0,0,1,.961-1.327.929.929,0,0,1,.7-.064.374.374,0,0,1,.245.321l.143,1.752,6.152-1.12a.373.373,0,0,1,.373.154,2.282,2.282,0,0,1,.3.688,2.491,2.491,0,0,1-.535,2.257,1.619,1.619,0,0,1-.709.418c-.442.171-.558.252-.543.377.11.882-1.441,1.264-5.006,1.927a2.654,2.654,0,0,1-.485.047m-.4-6.024a1.762,1.762,0,0,0-.487.834c-.468,1.385-.57,3.347.082,4.1a1.131,1.131,0,0,0,1.152.306c1.419-.264,4.034-.75,4.4-1.157-.05-.7.617-.954,1.02-1.11a1.6,1.6,0,0,0,.4-.189,1.761,1.761,0,0,0,.395-1.6,1.8,1.8,0,0,0-.083-.245l-6.288,1.145a.373.373,0,0,1-.439-.337Zm.231-.088h0Z" transform="translate(-230.996 -142.293)" fill="#020202"/>
    <path id="패스_89" data-name="패스 89" d="M246.681,142.947l-1.315-2s-6.522,1.325-9.532,0c-5.258-2.314-4.263-10.4-3.369-14.425a31.317,31.317,0,0,1,2.871-7.541,23.691,23.691,0,0,0-8.106,8.746c-3.276,6.011-4.342,19.465,6.614,21.9,7.167,1.59,12.837-6.672,12.837-6.672" transform="translate(-168.977 -89.305)" fill="#09f"/>
    <path id="패스_90" data-name="패스 90" d="M227.281,201.8a.371.371,0,0,1-.24-.088c-3.564-3-3.336-9.251-3.325-9.515a.373.373,0,1,1,.746.032c0,.061-.222,6.147,3.059,8.91a.374.374,0,0,1-.24.66" transform="translate(-168.017 -143.994)" fill="#fff"/>
    <path id="패스_91" data-name="패스 91" d="M300.877,70.311a.305.305,0,0,0,.442-.148c.34-.837.885-2.457,2-2.715,1.429-.33,3.742-.757,3.94.375.175.992-.031,2.7,1.012,3.944.1.119.014.309-.11.4l-.656.554a1.166,1.166,0,0,0-.274.633,5.775,5.775,0,0,1-.306,1.831,6.066,6.066,0,0,1-2.169.176l-1.449,4.991a.348.348,0,0,0,.246.435l1.724.587s-1.385,1.944-5.71,1.651a8.494,8.494,0,0,1-4.789-2.139s5.376-.765,6.1-7.131a.4.4,0,0,0-.156-.363c-.429-.323-1.583-1.274-1.381-2.238.215-1.024.978-1.179,1.534-.848" transform="translate(-221.394 -50.356)" fill="#fff"/>
    <path id="패스_92" data-name="패스 92" d="M299.31,82.3c-.284,0-.582-.01-.894-.031a8.8,8.8,0,0,1-5.022-2.243.374.374,0,0,1,.207-.64c.207-.03,5.1-.814,5.783-6.8-.677-.523-1.763-1.532-1.532-2.635a1.587,1.587,0,0,1,.852-1.2,1.331,1.331,0,0,1,1.171.067l.064-.161c.383-.967.961-2.428,2.169-2.707,2.052-.474,3.256-.494,3.905-.063a1.094,1.094,0,0,1,.487.737,8.916,8.916,0,0,1,.09.9,4.8,4.8,0,0,0,.839,2.865.569.569,0,0,1,.128.434.761.761,0,0,1-.3.508l-.641.542a.977.977,0,0,0-.143.383c-.008.082-.016.178-.025.282-.1,1.186-.178,1.613-.42,1.806a4.227,4.227,0,0,1-2.125.272l-1.367,4.707,1.732.564a.374.374,0,0,1,.184.571c-.057.08-1.356,1.838-5.145,1.838m-4.848-2.363a7.876,7.876,0,0,0,4,1.585c2.832.192,4.336-.617,4.984-1.121l-1.133-.386a.713.713,0,0,1-.429-.336.729.729,0,0,1-.066-.562l1.449-4.992a.374.374,0,0,1,.381-.269,6.828,6.828,0,0,0,1.88-.081,8.768,8.768,0,0,0,.174-1.3c.009-.108.018-.206.026-.29a1.5,1.5,0,0,1,.42-.895l.62-.524a5.539,5.539,0,0,1-.927-3.19c-.021-.306-.04-.594-.08-.823a.347.347,0,0,0-.164-.243c-.446-.3-1.564-.239-3.325.168-.827.191-1.338,1.482-1.643,2.254l-.095.238a.679.679,0,0,1-.979.328.607.607,0,0,0-.556-.063.867.867,0,0,0-.422.665c-.156.744.91,1.614,1.24,1.862a.775.775,0,0,1,.3.7,8.117,8.117,0,0,1-5.663,7.268m5.48-11.081h0" transform="translate(-220.268 -49.227)" fill="#020202"/>
    <path id="패스_93" data-name="패스 93" d="M463.5,314.594s-2.565,23.329-19.786,24.856l19.786.282s7.326-14.872,7.624-20.663-7.624-4.475-7.624-4.475" transform="translate(-333.251 -236.039)" fill="#fff"/>
    <path id="패스_94" data-name="패스 94" d="M462.371,338.97h-.005l-19.786-.281a.374.374,0,0,1-.027-.747c6.994-.62,12.39-4.916,16.037-12.768A42.668,42.668,0,0,0,462,313.418a.373.373,0,0,1,.31-.328c.182-.03,4.482-.717,6.739,1.3a4.237,4.237,0,0,1,1.318,3.561c-.3,5.8-7.361,20.2-7.662,20.809a.373.373,0,0,1-.335.208m-16.111-.977,15.88.226c.89-1.834,7.211-15.029,7.482-20.3a3.526,3.526,0,0,0-1.07-2.964c-1.693-1.514-4.9-1.27-5.847-1.158a43.858,43.858,0,0,1-3.43,11.681c-3.064,6.606-7.518,10.872-13.015,12.521" transform="translate(-332.124 -234.903)" fill="#020202"/>
    <path id="패스_95" data-name="패스 95" d="M463.045,568.85c-.481-.488-3.262-9.154-3.262-9.154l-5.5,3.928,6.025,8.111Z" transform="translate(-341.194 -420.109)" fill="#fff"/>
    <path id="패스_96" data-name="패스 96" d="M459.186,570.984h-.022a.374.374,0,0,1-.277-.15l-6.024-8.112a.374.374,0,0,1,.083-.528l5.5-3.928a.374.374,0,0,1,.572.19c1.3,4.063,2.862,8.6,3.182,9.016a.362.362,0,0,1,0,.51l-2.733,2.885a.373.373,0,0,1-.271.116m-5.5-8.4,5.532,7.449,2.237-2.362c-.651-1.312-2.185-5.967-3-8.5Z" transform="translate(-340.067 -418.984)" fill="#020202"/>
    <path id="패스_97" data-name="패스 97" d="M446.135,594.771l3.655-.022a7.188,7.188,0,0,0,5.985-3.276l3.613-5.732a3.222,3.222,0,0,0-1.211-4.561,14.838,14.838,0,0,0-3.459-1.55c-.752.072-1.056,3.635-1.056,3.635l-3.256.126s-1.608,6.7-3.024,7.462a6.219,6.219,0,0,0-2.235,2.113,1.169,1.169,0,0,0,.987,1.8" transform="translate(-334.187 -435.071)" fill="#020202"/>
    <path id="패스_98" data-name="패스 98" d="M450.037,603.9a.374.374,0,0,1-.055-.744l5-.754a3.41,3.41,0,0,0,2.426-1.629l4.417-7.392a.374.374,0,1,1,.641.384l-4.417,7.392a4.153,4.153,0,0,1-2.955,1.984l-5,.754a.349.349,0,0,1-.056,0" transform="translate(-337.721 -445.257)" fill="#fff"/>
    <path id="패스_99" data-name="패스 99" d="M466.419,609.279a.375.375,0,0,1-.1-.013l-2.785-.76a.374.374,0,0,1,.2-.722l2.785.76a.374.374,0,0,1-.1.735" transform="translate(-347.933 -456.194)" fill="#fff"/>
    <path id="패스_100" data-name="패스 100" d="M463.361,615.934a.377.377,0,0,1-.089-.011l-1.867-.458a.374.374,0,0,1,.177-.727l1.867.457a.374.374,0,0,1-.088.738" transform="translate(-346.326 -461.417)" fill="#fff"/>
    <path id="패스_101" data-name="패스 101" d="M384.7,580.627l-6.38,6.422-3.382-1.244,5.881-8.216Z" transform="translate(-281.594 -433.539)" fill="#fff"/>
    <path id="패스_102" data-name="패스 102" d="M377.188,586.3a.376.376,0,0,1-.128-.023l-3.382-1.244a.374.374,0,0,1-.175-.569l5.881-8.216a.373.373,0,0,1,.533-.077l3.881,3.039a.374.374,0,0,1,.035.559l-6.38,6.422a.373.373,0,0,1-.265.11m-2.792-1.8,2.7.992,5.914-5.953L379.764,577Z" transform="translate(-280.468 -432.414)" fill="#020202"/>
    <path id="패스_103" data-name="패스 103" d="M336.811,606.274a18.421,18.421,0,0,1-.215,5.146,2.806,2.806,0,0,1-2.75,2.191H318.188a1.2,1.2,0,0,1-.769-2.12c2.784-2.337,7.906-5.9,14.2-6.952L333.379,607Z" transform="translate(-238.075 -453.769)" fill="#020202"/>
    <path id="패스_104" data-name="패스 104" d="M339.9,631.515H323.672a.374.374,0,0,1,0-.748H339.9a.374.374,0,0,1,0,.748" transform="translate(-242.814 -473.455)" fill="#fff"/>
    <path id="패스_105" data-name="패스 105" d="M357.452,613.653a.373.373,0,0,1-.345-.232l-.859-2.087a.374.374,0,1,1,.69-.285l.859,2.088a.374.374,0,0,1-.345.517" transform="translate(-267.539 -458.481)" fill="#fff"/>
    <path id="패스_106" data-name="패스 106" d="M346.824,616.468a.373.373,0,0,1-.354-.257l-.622-1.883a.374.374,0,1,1,.709-.235l.621,1.883a.375.375,0,0,1-.237.473.382.382,0,0,1-.117.019" transform="translate(-259.735 -460.747)" fill="#fff"/>
    <path id="패스_107" data-name="패스 107" d="M429.649,407.278s-29.158-3.4-37.829,4.119,13.687,39.853,13.687,39.853l7.07-5.253-6.707-22.853,26.954-7.668Z" transform="translate(-292.777 -305.128)" fill="#020202"/>
    <path id="패스_108" data-name="패스 108" d="M445.817,416.017a71.243,71.243,0,0,1-22.406,2.943,7.9,7.9,0,0,0-7.155,4.311c-3.137,6.164-9.928,17.262-20.99,24.456l-5.283-2.852,13.484-30.407a11.21,11.21,0,0,1,6.381-5.98l26.723-9.817s8.286-2.32,12.349,5.09c.725,1.323,2.073-1.042,2.394.026,1.1,3.661-1.858,11.074-5.5,12.23" transform="translate(-292.898 -298.985)" fill="#020202"/>
    <path id="패스_109" data-name="패스 109" d="M418.544,443.887a.374.374,0,0,1-.341-.526L424.3,429.62a11.646,11.646,0,0,1,6.593-6.179l12.8-4.7a.374.374,0,0,1,.257.7l-12.8,4.7a10.9,10.9,0,0,0-6.168,5.781l-6.093,13.741a.373.373,0,0,1-.342.222" transform="translate(-314.068 -314.29)" fill="#fff"/>
    <path id="패스_110" data-name="패스 110" d="M447.121,552.527a.374.374,0,0,1-.269-.633c1.214-1.265,2.409-2.624,3.551-4.038a.374.374,0,1,1,.581.471c-1.156,1.431-2.365,2.806-3.594,4.086a.372.372,0,0,1-.269.115" transform="translate(-335.531 -411.117)" fill="#fff"/>
    <path id="패스_111" data-name="패스 111" d="M461.471,541.969a.374.374,0,0,1-.29-.609c.562-.7,1.121-1.418,1.663-2.146a.374.374,0,1,1,.6.447c-.548.736-1.113,1.466-1.681,2.17a.372.372,0,0,1-.29.139" transform="translate(-346.309 -404.622)" fill="#fff"/>
    <path id="패스_112" data-name="패스 112" d="M529.367,253.578c-3.341-.787-4.734-.8-16.878-.357-2.968.108-6.5,3.839-6.848,6.794.944,2.834,5.3,16.828-2.3,27.761a23.637,23.637,0,0,1-4.557,4.884,15.272,15.272,0,0,0,5.248,2.811c3.918,1.165,5.888-.094,9.046,0,8.352.25,11.415,9.568,16.809,8.4,1.44-.312,3.349-1.438,5.14-5.214a58.217,58.217,0,0,0,2.42-10.962,60.217,60.217,0,0,0-2.859-26.525c-.591-1.858-1.278-6.663-5.217-7.59" transform="translate(-374.61 -189.849)" fill="#09f"/>
    <path id="패스_113" data-name="패스 113" d="M514.1,273.933s1.964-15.775,7.624-17.121l-1.3,20.751Z" transform="translate(-386.115 -192.764)" fill="#09f"/>
    <path id="패스_114" data-name="패스 114" d="M637.948,312.386c.041,1.874.031,3.587-.046,4.978-.5,8.966-1.705,18.4-2.445,26.21-.157,1.653,2.463-.561,5.839-.544a4.273,4.273,0,0,1,2.664.967c1.374,1.115,3.766,3.089,3.487,3.089H635a3.686,3.686,0,0,1-3.678-3.513L629.653,308.8Z" transform="translate(-472.902 -231.789)" fill="#fff"/>
    <path id="패스_115" data-name="패스 115" d="M646.32,346.334H633.873a4.055,4.055,0,0,1-4.052-3.869L628.154,307.7a.373.373,0,0,1,.521-.362l8.294,3.582a.374.374,0,0,1,.226.335c.044,1.981.028,3.666-.046,5.008-.344,6.208-1.014,12.506-1.663,18.6-.286,2.685-.556,5.221-.784,7.629a.6.6,0,0,0,.005.2,4.6,4.6,0,0,0,1.383-.342,12.724,12.724,0,0,1,4.04-.812h.041a4.657,4.657,0,0,1,2.9,1.05c3.776,3.065,3.735,3.182,3.625,3.493a.412.412,0,0,1-.373.26m-17.392-38.075,1.64,34.17a3.308,3.308,0,0,0,3.305,3.156h11.613c-.456-.411-1.306-1.139-2.888-2.424a3.912,3.912,0,0,0-2.431-.883,11.942,11.942,0,0,0-3.843.774c-1.005.333-1.67.552-2.091.215a.914.914,0,0,1-.275-.854c.229-2.412.5-4.95.785-7.637.648-6.082,1.317-12.37,1.66-18.559.07-1.268.087-2.852.05-4.71Zm5.784,34.438h0Z" transform="translate(-471.776 -230.663)" fill="#020202"/>
    <path id="패스_116" data-name="패스 116" d="M629.642,308.58c2.585,1.1,5.621,2.388,8.3,3.538,0,.034,0,.066,0,.1l-8.295-3.582Z" transform="translate(-472.894 -231.621)" fill="#fff"/>
    <path id="패스_117" data-name="패스 117" d="M636.813,311.465a.371.371,0,0,1-.148-.031l-8.295-3.582a.374.374,0,0,1-.225-.326l0-.056a.374.374,0,0,1,.519-.362c3.211,1.362,6,2.552,8.3,3.539a.374.374,0,0,1,.226.336l0,.1a.374.374,0,0,1-.373.382" transform="translate(-471.768 -230.495)" fill="#020202"/>
    <path id="패스_118" data-name="패스 118" d="M629.826,274.79s-.553-9.371-1.362-12.992c-1.7-7.617-11.554-7.7-11.554-7.7l1.721,19.386Z" transform="translate(-463.332 -190.729)" fill="#09f"/>
    <path id="패스_119" data-name="패스 119" d="M574.775,210.941l-.334-4.74c-.226-.016-.382-.025-.428-.026-1.32-.015-1.749-.444-1.863-1.53a8.117,8.117,0,0,1,.235-2.95.628.628,0,0,0-.027-.406l-.225-.53a.462.462,0,0,1,.152-.475l.12-.1a4.833,4.833,0,0,0,1.076-1.271c.264-.444.713-1.276,1.021-1.424.867-.415,4.386-2.259,6.353.963,1.534,2.512-.972,5.971-1.883,7.1-.22.274,1.487,5.644,1.487,5.644l2.207.534s-1.7,3.029-6.875,1.776c-3.683-.892-3.1-2.265-3.1-2.265Z" transform="translate(-429.681 -147.561)" fill="#fff"/>
    <path id="패스_120" data-name="패스 120" d="M577.046,213.069a10.491,10.491,0,0,1-2.471-.318c-1.781-.431-2.881-1.044-3.27-1.821a1.172,1.172,0,0,1-.084-.955.374.374,0,0,1,.289-.223l1.741-.257-.287-4.068-.084,0c-1.465-.017-2.09-.54-2.229-1.865a8.489,8.489,0,0,1,.245-3.084.255.255,0,0,0-.009-.164l-.226-.53a.4.4,0,0,1-.017-.049.836.836,0,0,1,.276-.862l.12-.1a4.459,4.459,0,0,0,.992-1.173l.117-.2a3.587,3.587,0,0,1,1.063-1.37l.092-.044c3.094-1.5,5.361-1.11,6.74,1.15,1.584,2.6-.709,6.019-1.847,7.454a46.32,46.32,0,0,0,1.424,5.176l2,.485a.374.374,0,0,1,.237.547c-.062.111-1.327,2.274-4.817,2.274m-5.128-2.62a.707.707,0,0,0,.073.18c.175.314.767.912,2.76,1.4,3.684.893,5.478-.454,6.145-1.183l-1.652-.4a.374.374,0,0,1-.268-.25c-1.768-5.562-1.559-5.821-1.422-5.992,1.013-1.261,3.222-4.435,1.855-6.674-1.726-2.828-4.776-1.352-5.778-.867l-.1.046a4.96,4.96,0,0,0-.74,1.071l-.121.206a5.19,5.19,0,0,1-1.159,1.369l-.12.1a.09.09,0,0,0-.031.073l.211.5a1.008,1.008,0,0,1,.045.648,7.754,7.754,0,0,0-.224,2.817c.091.87.331,1.181,1.5,1.195.049,0,.213.01.45.027a.374.374,0,0,1,.346.347l.334,4.74a.374.374,0,0,1-.318.4Z" transform="translate(-428.555 -146.436)" fill="#020202"/>
    <path id="패스_121" data-name="패스 121" d="M581.534,182.4c-.954-.206-2.05-.059-2.512-.23-.747-.275-.767-1.171-1.8-1.422a1.825,1.825,0,0,0-2.26.975,2.108,2.108,0,0,0-.212.421c-.786,2.112.206,3.141.648,3.476,0,0,2.813,1.456,3.294,1.872a2.606,2.606,0,0,1,.643,2.634.4.4,0,0,0,.176.435.375.375,0,0,0,.5-.115c.366-.531,1.164-1.558,1.733-1.315.714.305.492,2.45-1.084,2.7a1.031,1.031,0,0,0-.829,1.079,1.048,1.048,0,0,0,.806.839,1.077,1.077,0,0,0,.81-.209c1.028-.657,3.928-3.446,4.289-5.946.434-3.011-2.937-4.919-4.206-5.193" transform="translate(-431.446 -135.607)" fill="#020202"/>
    <path id="패스_122" data-name="패스 122" d="M579.012,232.147a.348.348,0,0,1-.013-.695,3.094,3.094,0,0,0,1.654-.612.347.347,0,0,1,.449.53,3.759,3.759,0,0,1-2.077.777h-.013" transform="translate(-434.608 -173.207)" fill="#020202"/>
    <path id="패스_123" data-name="패스 123" d="M273.784,748.352l1.765,6.488,4.052-.358-.875-6.8Z" transform="translate(-205.626 -561.214)" fill="#fff"/>
    <path id="패스_124" data-name="패스 124" d="M274.423,754.088a.373.373,0,0,1-.36-.276l-1.765-6.488a.374.374,0,0,1,.31-.469l4.942-.667a.373.373,0,0,1,.42.323l.875,6.8a.374.374,0,0,1-.338.421l-4.052.358-.033,0m-1.293-6.548,1.571,5.774,3.354-.3-.777-6.037Z" transform="translate(-204.5 -560.088)" fill="#020202"/>
    <path id="패스_125" data-name="패스 125" d="M274.6,771.542c2.976,1.413,10.713,4.832,16.758,5.288a1.827,1.827,0,0,0,1.792-2.405c-1.275-5.354-14.412-14.367-14.412-14.367l-1.9.641a1.19,1.19,0,0,0-.7,1.619l.392.867-3.044-.259a1.214,1.214,0,0,0-1.318,1.171,17.769,17.769,0,0,0,.723,5.425,3.219,3.219,0,0,0,1.709,2.02" transform="translate(-204.408 -570.501)" fill="#b2e0ff"/>
    <path id="패스_126" data-name="패스 126" d="M290.376,776.084c-.056,0-.113,0-.171-.006-6.091-.46-13.84-3.876-16.89-5.324a3.6,3.6,0,0,1-1.908-2.254,18.129,18.129,0,0,1-.737-5.541,1.57,1.57,0,0,1,.529-1.134,1.6,1.6,0,0,1,1.193-.4l2.409.205-.129-.285a1.564,1.564,0,0,1,.923-2.128l1.9-.641a.374.374,0,0,1,.33.046c.541.371,13.271,9.157,14.564,14.588a2.46,2.46,0,0,1-.473,2.163,1.981,1.981,0,0,1-1.54.709m-18.12-13.915a.84.84,0,0,0-.839.813,17.36,17.36,0,0,0,.708,5.31,2.848,2.848,0,0,0,1.51,1.786c3.011,1.43,10.66,4.8,16.626,5.253a1.264,1.264,0,0,0,1.086-.442,1.709,1.709,0,0,0,.315-1.5c-1.154-4.849-12.643-13.015-14.107-14.039l-1.72.581a.816.816,0,0,0-.482,1.11l.392.866a.374.374,0,0,1-.372.527l-3.044-.259c-.025,0-.049,0-.074,0" transform="translate(-203.282 -569.376)" fill="#020202"/>
    <path id="패스_127" data-name="패스 127" d="M299.1,802.2a.358.358,0,0,1-.057,0,59.865,59.865,0,0,1-16.11-5.274.374.374,0,0,1,.343-.665,59.055,59.055,0,0,0,15.879,5.2.374.374,0,0,1-.056.744" transform="translate(-212.35 -597.64)" fill="#020202"/>
    <path id="패스_128" data-name="패스 128" d="M322.792,790.383a.374.374,0,0,1-.3-.59l1.877-2.657a.374.374,0,1,1,.61.432l-1.877,2.657a.372.372,0,0,1-.305.158" transform="translate(-242.154 -590.707)" fill="#020202"/>
    <path id="패스_129" data-name="패스 129" d="M308.362,782.535a.374.374,0,0,1-.3-.59l2.358-3.34a.374.374,0,1,1,.61.432l-2.358,3.339a.373.373,0,0,1-.305.158" transform="translate(-231.316 -584.304)" fill="#020202"/>
    <path id="패스_130" data-name="패스 130" d="M198.552,617.655c1.1,2.868,4.131,10.153,7.917,14.351a1.7,1.7,0,0,0,2.751-.47c2.572-4.432-.514-18.967-.514-18.967l-1.692-.789a1.106,1.106,0,0,0-1.512.64l-.291.837-1.888-2.133a1.129,1.129,0,0,0-1.64-.058,16.526,16.526,0,0,0-2.991,4.126,3.006,3.006,0,0,0-.142,2.463" transform="translate(-148.974 -458.424)" fill="#b2e0ff"/>
    <path id="패스_131" data-name="패스 131" d="M206.483,631.776a1.882,1.882,0,0,1-1.418-.646c-3.817-4.231-6.858-11.527-7.988-14.467a3.384,3.384,0,0,1,.159-2.77,16.879,16.879,0,0,1,3.06-4.22,1.48,1.48,0,0,1,1.1-.432,1.515,1.515,0,0,1,1.078.508l1.465,1.656.081-.234a1.479,1.479,0,0,1,2.022-.857l1.692.789a.374.374,0,0,1,.208.261c.127.6,3.086,14.727.471,19.233a2.308,2.308,0,0,1-1.725,1.168,1.942,1.942,0,0,1-.208.011m-8.709-15.382c1.115,2.9,4.113,10.1,7.845,14.234a1.136,1.136,0,0,0,.994.393,1.56,1.56,0,0,0,1.157-.8c2.318-4-.177-16.834-.519-18.519l-1.521-.709a.732.732,0,0,0-1,.424l-.291.837a.373.373,0,0,1-.632.125l-1.887-2.133a.755.755,0,0,0-.544-.257.747.747,0,0,0-.554.217,16.137,16.137,0,0,0-2.922,4.032,2.635,2.635,0,0,0-.125,2.156" transform="translate(-147.847 -457.298)" fill="#020202"/>
    <path id="패스_132" data-name="패스 132" d="M212.383,647.336a.373.373,0,0,1-.3-.145,56.013,56.013,0,0,1-7.493-13.932.373.373,0,1,1,.706-.244,55.2,55.2,0,0,0,7.377,13.718.374.374,0,0,1-.295.6" transform="translate(-153.646 -474.953)" fill="#020202"/>
    <path id="패스_133" data-name="패스 133" d="M230.813,658.194a.374.374,0,0,1-.072-.741l2.97-.586a.374.374,0,0,1,.144.734l-2.97.585a.351.351,0,0,1-.072.007" transform="translate(-173.072 -493.041)" fill="#020202"/>
    <path id="패스_134" data-name="패스 134" d="M224.8,644.562a.374.374,0,0,1-.072-.741l3.732-.736a.374.374,0,0,1,.144.734l-3.732.736a.368.368,0,0,1-.072.007" transform="translate(-168.555 -482.696)" fill="#020202"/>
    <path id="패스_135" data-name="패스 135" d="M123.516,494.069c.3-.321,22.039-9.728,30.923-11.729s12.612-2.247,15.216,3.067c3.258,6.648-14.561,32.839-14.561,32.839l-37.409-9.769Z" transform="translate(-88.387 -361.058)" fill="#09f"/>
    <path id="패스_136" data-name="패스 136" d="M233.429,518.149a.368.368,0,0,1-.152-.033.374.374,0,0,1-.188-.494,62.656,62.656,0,0,1,12.105-17.469.374.374,0,0,1,.517.54,61.846,61.846,0,0,0-11.94,17.234.374.374,0,0,1-.341.221" transform="translate(-175.037 -375.338)" fill="#fff"/>
    <path id="패스_137" data-name="패스 137" d="M63.085,560.521s-1.727,4.56,3.7,9.938c6.8,6.737,38.692,3.2,38.692,3.2a77.562,77.562,0,0,0,.979,9.527c2.121,11.025,3.194,11.562,8.221,24.153l6.656-1.044s-.164-37.313-5.055-43.072-35.7-6.075-35.7-6.075Z" transform="translate(-47.184 -418.199)" fill="#09f"/>
    <path id="패스_138" data-name="패스 138" d="M174.871,566.651a.373.373,0,0,1-.353-.251,17.739,17.739,0,0,0-2.388-5.075c-2.57-3.026-19.36-5.229-34.216-6.282a.374.374,0,0,1,.053-.746c9.334.662,31.4,2.623,34.732,6.544a18.03,18.03,0,0,1,2.524,5.314.374.374,0,0,1-.353.5" transform="translate(-103.32 -416.055)" fill="#fff"/>
    <path id="패스_139" data-name="패스 139" d="M130.907,466.867l9.493-14.693a.931.931,0,0,1,.754-.425l8.464-.254,5.374-4.254,1.551,1.565-9.534,12.418-7.29,5.8Z" transform="translate(-98.318 -335.7)" fill="#fff"/>
    <path id="패스_140" data-name="패스 140" d="M138.592,466.277h-.007l-8.812-.161a.374.374,0,0,1-.307-.577l9.493-14.693a1.3,1.3,0,0,1,1.056-.6l8.34-.25,5.277-4.178a.373.373,0,0,1,.5.03l1.551,1.565a.374.374,0,0,1,.031.491l-9.534,12.419a.367.367,0,0,1-.064.065l-7.29,5.8a.374.374,0,0,1-.232.081m-8.133-.9,8.006.146,7.149-5.691,9.307-12.123-1.086-1.1-5.112,4.047a.373.373,0,0,1-.22.081l-8.463.254a.558.558,0,0,0-.451.255Z" transform="translate(-97.191 -334.575)" fill="#020202"/>
    <path id="패스_141" data-name="패스 141" d="M135.672,471.5l9.573-14.817a.649.649,0,0,1,.526-.3l8.611-.258,5.733-4.539a.343.343,0,0,1,.5.455l-8.843,13.813-7.29,5.8Z" transform="translate(-101.897 -338.903)" fill="#b2e0ff"/>
    <path id="패스_142" data-name="패스 142" d="M143.357,470.9h-.007l-8.812-.161a.374.374,0,0,1-.307-.577l9.574-14.817a1.022,1.022,0,0,1,.827-.467l8.488-.254,5.636-4.462a.717.717,0,0,1,1.048.951l-8.844,13.813a.367.367,0,0,1-.082.091l-7.29,5.8a.374.374,0,0,1-.232.081m-8.133-.9,8.006.146,7.136-5.681,8.712-13.608-5.592,4.427a.373.373,0,0,1-.22.08l-8.611.258a.276.276,0,0,0-.223.126Z" transform="translate(-100.77 -337.777)" fill="#020202"/>
    <path id="패스_143" data-name="패스 143" d="M175.245,485.9a.374.374,0,0,1-.313-.577l7.794-12.063a.374.374,0,1,1,.627.407l-7.794,12.063a.373.373,0,0,1-.314.171" transform="translate(-131.338 -355.103)" fill="#020202"/>
    <path id="패스_144" data-name="패스 144" d="M10.914,454.537s-4.555-5.8-3.553-17.807c.962-11.529,6.983-13.347,10.977-14.764,3.93-1.395,19.772.124,21.933,22.784.035.366-.265,10.165-.238,10.542l-16.6,4.1-.2-8.24Z" transform="translate(-5.421 -316.45)" fill="#fff"/>
    <path id="패스_145" data-name="패스 145" d="M22.306,458.642a.374.374,0,0,1-.373-.365l-.189-7.762L9.881,453.773a.373.373,0,0,1-.392-.129c-.19-.241-4.634-6.051-3.631-18.069C6.814,424.11,12.8,422,16.759,420.6l.323-.114c2.034-.721,7.066-.715,11.906,2.377,4.152,2.652,9.348,8.4,10.524,20.724.018.192-.026,1.949-.123,5.632-.058,2.212-.125,4.719-.114,4.92a.38.38,0,0,1-.283.389l-16.6,4.1a.379.379,0,0,1-.089.011m-.2-8.988a.373.373,0,0,1,.373.365l.19,7.774,15.86-3.919c.007-.624.046-2.129.113-4.673.063-2.368.141-5.314.126-5.544-1.146-12.02-6.169-17.6-10.181-20.16-4.371-2.792-9.213-3.027-11.255-2.3l-.324.115c-4,1.412-9.489,3.347-10.405,14.328-.876,10.5,2.582,16.237,3.333,17.346l12.071-3.314a.371.371,0,0,1,.1-.013" transform="translate(-4.289 -315.326)" fill="#020202"/>
    <path id="패스_146" data-name="패스 146" d="M67.252,501.631a.374.374,0,0,1-.366-.3l-2.165-11.07a.373.373,0,1,1,.733-.144l2.166,11.071a.374.374,0,0,1-.367.446" transform="translate(-48.603 -367.654)" fill="#020202"/>
    <path id="패스_147" data-name="패스 147" d="M65.627,505.181c.846-.289,1.63.281,1.027,1.054a19.374,19.374,0,0,1-3.157,2.181c-.09.057-.054.227.05.2,2.974-.656,4.523-.612,5.327-.408a1.1,1.1,0,0,1,.79,1.295c-.868,4.136-9.394,3.666-10.391,3.786-.819.1-6.183,5.04-6.183,5.04a31.09,31.09,0,0,1-8.083,5.72c-4.86,2.424-6.652-5.806-7.144-7.856,0,0,15.271-4.166,20.637-6.836a9.177,9.177,0,0,0,1.948-1.323,14.448,14.448,0,0,1,5.181-2.857" transform="translate(-28.436 -379.133)" fill="#fff"/>
    <path id="패스_148" data-name="패스 148" d="M42.179,523.747a3.251,3.251,0,0,1-1.4-.314c-2.753-1.29-3.924-6.221-4.366-8.078l-.046-.194a.374.374,0,0,1,.265-.449c.152-.041,15.3-4.186,20.569-6.81a8.841,8.841,0,0,0,1.868-1.27,14.711,14.711,0,0,1,5.307-2.929,1.37,1.37,0,0,1,1.569.363,1.038,1.038,0,0,1-.127,1.275,9.485,9.485,0,0,1-1.993,1.5,10.48,10.48,0,0,1,4.01-.113A1.466,1.466,0,0,1,68.9,508.46c-.812,3.871-7.469,4-9.975,4.054-.347.007-.622.012-.737.026-.5.116-3.435,2.6-5.974,4.944a31.763,31.763,0,0,1-8.169,5.78,4.184,4.184,0,0,1-1.867.482m-5-8.408c.413,1.731,1.567,6.314,3.918,7.416a2.863,2.863,0,0,0,2.613-.16,31.023,31.023,0,0,0,7.981-5.646c1.655-1.526,5.56-5.05,6.407-5.151.153-.018.414-.023.811-.031,2.12-.042,8.569-.172,9.259-3.46a.72.72,0,0,0-.516-.856c-.7-.177-2.162-.249-5.155.411a.448.448,0,0,1-.517-.276.5.5,0,0,1,.189-.61c.054-.034.149-.091.273-.166a17.186,17.186,0,0,0,2.788-1.929c.059-.076.189-.265.107-.381a.679.679,0,0,0-.719-.088,14.008,14.008,0,0,0-5.056,2.784,9.569,9.569,0,0,1-2.027,1.377c-4.951,2.464-17.994,6.114-20.356,6.766M64.5,504.057h0Z" transform="translate(-27.31 -378.009)" fill="#020202"/>
    <path id="패스_149" data-name="패스 149" d="M47.8,381.972c-.063.115-1.974,5.434-2.9,7.4a7.43,7.43,0,0,1-2.257,2.762l-1.791,1.343a13.733,13.733,0,0,0,4.961,2.2,15.16,15.16,0,0,0,5.969.362,4.875,4.875,0,0,0-2.107-2.69c.817-1.4,2.777-6.91,3.594-8.314Z" transform="translate(-30.676 -286.709)" fill="#fff"/>
    <path id="패스_150" data-name="패스 150" d="M48.553,395.426a15.438,15.438,0,0,1-3.969-.521,14.264,14.264,0,0,1-5.091-2.259.374.374,0,0,1,0-.6l1.792-1.343a7.084,7.084,0,0,0,2.143-2.623c.7-1.477,1.961-4.871,2.566-6.5.308-.829.323-.867.348-.912a.373.373,0,0,1,.51-.147l5.464,3.055a.374.374,0,0,1,.141.515c-.395.679-1.1,2.423-1.773,4.109-.63,1.568-1.23,3.06-1.653,3.894a5.24,5.24,0,0,1,1.972,2.7.374.374,0,0,1-.3.484,15.574,15.574,0,0,1-2.146.149m-8.2-3.084a14.515,14.515,0,0,0,4.425,1.841,14.7,14.7,0,0,0,5.358.41,4.5,4.5,0,0,0-1.787-2.058.374.374,0,0,1-.127-.507c.395-.679,1.1-2.423,1.773-4.109.624-1.553,1.219-3.032,1.641-3.87l-4.767-2.665-.17.457c-.609,1.641-1.878,5.057-2.592,6.563a7.834,7.834,0,0,1-2.37,2.9Z" transform="translate(-29.549 -285.584)" fill="#020202"/>
    <path id="패스_151" data-name="패스 151" d="M75.81,348.078c-2.09-1.111-3.893.856-6.351-.528-1.126-.634-1.372-1.4-2.615-1.619a3.363,3.363,0,0,0-2.985.8c-.972,1.112.151,2.311-.162,5.573-.219,2.29-.938,3.413-.275,4.067s1.755-.14,2.541.527c1.017.863-.136,2.77.618,4.127.476.858,2.038,1.872,5.32,1.8a1.063,1.063,0,0,0,1.029-.89c.11-.675.245-1.536.305-2.37.281-3.911-.565-5.214.263-5.879,1.269-1.02,3.435.9,4.35,0,.95-.931.109-4.463-2.037-5.6" transform="translate(-47.427 -259.612)" fill="#020202"/>
    <path id="패스_152" data-name="패스 152" d="M85.3,366.808l.578,1.015a42.957,42.957,0,0,0-.69,5.045c.012,1.343,4.165,1.62,4.165,1.62l.464-1.164.9-.139a.312.312,0,0,0,.257-.383,14.226,14.226,0,0,1-.371-4.286,1.7,1.7,0,0,0-1.079-1.7,5.685,5.685,0,0,0-4.228-.007" transform="translate(-63.979 -275.024)" fill="#fff"/>
    <path id="패스_153" data-name="패스 153" d="M88.226,373.738H88.2c-.751-.05-4.5-.382-4.513-1.99a39.85,39.85,0,0,1,.671-4.983l-.51-.9a.374.374,0,0,1,.19-.535,6.065,6.065,0,0,1,4.5.009,2.06,2.06,0,0,1,1.313,2.079,13.9,13.9,0,0,0,.361,4.167.687.687,0,0,1-.563.841l-.691.107-.385.966a.374.374,0,0,1-.347.235M84.72,365.89l.355.623a.374.374,0,0,1,.043.255,42.912,42.912,0,0,0-.683,4.972c.005.614,1.982,1.088,3.547,1.229l.362-.909a.373.373,0,0,1,.29-.231l.838-.129a14.664,14.664,0,0,1-.364-4.339,1.316,1.316,0,0,0-.845-1.323,5.31,5.31,0,0,0-3.542-.148" transform="translate(-62.854 -273.9)" fill="#020202"/>
    <path id="패스_154" data-name="패스 154" d="M77.376,374.312s-.2-2.562-1.214-2.27-.728,3.11,1.214,2.27" transform="translate(-56.771 -279.238)" fill="#fff"/>
    <path id="패스_155" data-name="패스 155" d="M681.579,339.463A3.512,3.512,0,0,0,683.367,338c.6-1.011.912-2.634-.465-4.964-3.108-5.262-8.223-2.815-10.19-3.435-4.409-1.388-3.383-3.617-5.184-5.8-1.348-1.633-5.986-4.727-12.962.938,0,0-3.123,4.019-6.7,2.46-4.4-1.916-13.183,2.3-10.355,8.669a7.886,7.886,0,0,0,4.038,4.029c.32.141.671.277,1.052.4a3.42,3.42,0,0,1,2.24,2.478c.923,3.873,4.367,11.362,16.913,3.927a3.329,3.329,0,0,1,3.059-.19c1.211.534,2.534,2.584,8.352,1.759,3.736-.53,4.9-4.613,5.873-6.468a4.867,4.867,0,0,1,2.545-2.345" transform="translate(-478.388 -241.304)" fill="#020202"/>
    <path id="패스_156" data-name="패스 156" d="M549.9,438.164c4.384,2.112,12.888-2.205,14.405-8.975,1.2-5.368,3.082-8.092,3.81-8.99a6.812,6.812,0,0,1,1.409-1.685c4.325-3.808,11.816-2.575,15.058-2.042,3.677.605,6.723,1.107,8.8,3.444a6.424,6.424,0,0,1,1.208,1.962v0c3.958,7.466.75,15.175-1.229,18.736-.326,14.278,5.316,18.569,1.6,23.858-4.023,5.725-13.966,5.438-19.189,4.3-1.832-.4-12.1-2.875-14.448-10.29-1.368-4.328,1.233-6.325,3.529-13.687-11.764,7.325-19.124-6.416-19.124-6.416l-.347-3.409s.137,1.087,4.522,3.2" transform="translate(-409.604 -312.138)" fill="#b2e0ff"/>
    <path id="패스_157" data-name="패스 157" d="M581.116,468.7a31.554,31.554,0,0,1-6.551-.688c-2.87-.627-12.415-3.24-14.725-10.543-.937-2.961-.078-4.928,1.222-7.906.59-1.352,1.306-2.993,2.005-5.076a11.838,11.838,0,0,1-8.967,1.334c-6.156-1.648-9.682-8.117-9.829-8.391a.373.373,0,0,1-.042-.139l-.347-3.409.742-.085a.118.118,0,0,0-.006-.033c0,.01.357,1.034,4.319,2.943,1.778.856,4.4.609,7.024-.662a12.5,12.5,0,0,0,6.856-8.058c1.206-5.381,3.092-8.158,3.866-9.122a7.176,7.176,0,0,1,1.471-1.753c4.457-3.925,12.1-2.667,15.364-2.13,3.678.605,6.854,1.128,9.014,3.564a6.784,6.784,0,0,1,1.265,2.043c3.948,7.458.973,15.073-1.192,19a48.33,48.33,0,0,0,1.9,14.48c1.024,3.946,1.7,6.553-.365,9.493-2.785,3.964-8.169,5.135-13.023,5.135m-17.391-25.405a.374.374,0,0,1,.357.486,56.016,56.016,0,0,1-2.335,6.083c-1.276,2.923-2.046,4.688-1.194,7.38,2.245,7.1,12.2,9.607,14.172,10.038,4.765,1.04,14.828,1.513,18.8-4.147,1.866-2.656,1.259-5,.253-8.874a49.622,49.622,0,0,1-1.921-14.777.369.369,0,0,1,.047-.174c2.093-3.768,5.034-11.157,1.241-18.348a.359.359,0,0,1-.035-.068,6.043,6.043,0,0,0-1.14-1.849c-1.984-2.238-4.893-2.717-8.577-3.323-3.159-.52-10.558-1.738-14.75,1.953a6.426,6.426,0,0,0-1.334,1.594.373.373,0,0,1-.032.047c-.73.9-2.555,3.568-3.736,8.836a13.261,13.261,0,0,1-7.258,8.568c-2.823,1.369-5.692,1.617-7.673.662a17.647,17.647,0,0,1-3.863-2.34l.214,2.1c.378.669,3.8,6.483,9.333,7.961a11.468,11.468,0,0,0,9.23-1.748.373.373,0,0,1,.2-.056" transform="translate(-408.484 -311.018)" fill="#020202"/>
    <path id="패스_158" data-name="패스 158" d="M593.392,460.5s-8.471-3.094-11.116-8.749l-5.453-5.09s.077,2.461,1.7,3.488c0,0-1.39,2.8.661,4.739a6.148,6.148,0,0,0,2.455,1.247s2.685,8.836,9.935,11.467a12.931,12.931,0,0,0,1.821-7.1" transform="translate(-433.225 -335.265)" fill="#fff"/>
    <path id="패스_159" data-name="패스 159" d="M590.445,466.852a.37.37,0,0,1-.127-.022c-6.763-2.454-9.6-10.013-10.089-11.476a7.109,7.109,0,0,1-2.406-1.3l-.023-.021a4.463,4.463,0,0,1-.864-4.879,5.242,5.242,0,0,1-1.611-3.608.374.374,0,0,1,.628-.286l5.453,5.09a.376.376,0,0,1,.084.115c2.548,5.448,10.822,8.526,10.905,8.556a.375.375,0,0,1,.245.331,13.19,13.19,0,0,1-1.882,7.328.372.372,0,0,1-.312.169M578.3,453.48a5.459,5.459,0,0,0,2.219,1.156.374.374,0,0,1,.348.265c.026.086,2.646,8.453,9.418,11.116a12.763,12.763,0,0,0,1.618-6.38c-1.419-.554-8.568-3.562-11.06-8.787l-4.612-4.3a3.518,3.518,0,0,0,1.362,2.162.375.375,0,0,1,.134.482c-.051.1-1.232,2.573.571,4.29" transform="translate(-432.098 -334.14)" fill="#020202"/>
    <path id="패스_160" data-name="패스 160" d="M647.166,529.629a24.772,24.772,0,0,1-8.663-1.648.374.374,0,0,1,.26-.7c11.924,4.432,19.086-1.729,19.157-1.792a.374.374,0,0,1,.495.56,17.978,17.978,0,0,1-11.248,3.582" transform="translate(-479.366 -394.362)" fill="#020202"/>
    <path id="패스_161" data-name="패스 161" d="M650.311,459.839a17.443,17.443,0,0,1-1.768-.092.374.374,0,0,1,.076-.744,12.7,12.7,0,0,0,12.841-6.2,21.53,21.53,0,0,0,2.849-7.321.373.373,0,1,1,.738.114,21.885,21.885,0,0,1-2.944,7.588,13.5,13.5,0,0,1-11.791,6.658" transform="translate(-486.838 -334.14)" fill="#020202"/>
    <path id="패스_162" data-name="패스 162" d="M522.2,472.032l16.709,19.45-8.351,1.313L513.367,473.97Z" transform="translate(-385.565 -354.308)" fill="#fff"/>
    <path id="패스_163" data-name="패스 163" d="M529.435,492.042a.373.373,0,0,1-.275-.121L511.965,473.1a.375.375,0,0,1,.2-.618L521,470.54a.373.373,0,0,1,.363.122l16.709,19.449a.374.374,0,0,1-.225.614l-8.351,1.313a.379.379,0,0,1-.058,0M512.954,473.07l16.621,18.2,7.49-1.177-16.126-18.771Z" transform="translate(-384.439 -353.182)" fill="#020202"/>
    <path id="패스_164" data-name="패스 164" d="M539.943,497.97a12.557,12.557,0,0,1-3.991-2.483c-1.174-1.375-.031-6.146-.031-6.146Z" transform="translate(-402.13 -367.3)" fill="#fff"/>
    <path id="패스_165" data-name="패스 165" d="M538.812,497.217a.372.372,0,0,1-.136-.026,12.737,12.737,0,0,1-4.138-2.588c-1.262-1.477-.232-5.969-.111-6.476a.374.374,0,0,1,.326-.285.37.37,0,0,1,.376.214l4.022,8.628a.374.374,0,0,1-.338.533M534.93,489.4c-.276,1.589-.5,3.927.175,4.717a9.757,9.757,0,0,0,2.947,1.98Z" transform="translate(-400.999 -366.174)" fill="#020202"/>
    <path id="패스_166" data-name="패스 166" d="M635.683,447.478a.374.374,0,0,1-.369-.32c-1.148-7.863,2.376-12.213,2.527-12.394a.374.374,0,0,1,.574.478c-.039.048-3.459,4.3-2.362,11.807a.374.374,0,0,1-.315.424.37.37,0,0,1-.055,0" transform="translate(-476.981 -326.234)" fill="#020202"/>
    <path id="패스_167" data-name="패스 167" d="M643.522,382.467a54.262,54.262,0,0,0-.073-5.663c.675.991,2.9-.182,4.9-.26s1.327,2.93,1.327,2.93.586-2.042,1.834-.763c.724.742-.074,1.7-.818,2.325.2.233,3.807,4.122,6.013,6.435l-4.893,3.721-2.45-2.292.5-.8a1.911,1.911,0,0,0,.084-1.881l-1.2-2.034a5.423,5.423,0,0,1-.943.938,1.537,1.537,0,0,1-1.994-.161,5.692,5.692,0,0,1-1.557-2.373Z" transform="translate(-483.258 -282.633)" fill="#fff"/>
    <path id="패스_168" data-name="패스 168" d="M650.693,390.44a.372.372,0,0,1-.255-.1l-2.451-2.292a.375.375,0,0,1-.061-.472l.5-.8a1.544,1.544,0,0,0,.068-1.512l-.924-1.568a4.391,4.391,0,0,1-.67.61,1.91,1.91,0,0,1-2.466-.2,6.207,6.207,0,0,1-1.582-2.312l-.5-.086a.374.374,0,0,1-.306-.424,32.212,32.212,0,0,0-.044-4.669c-.067-1.2-.067-1.2.218-1.295a.378.378,0,0,1,.431.146c.284.417,1.266.191,2.3-.048a12.588,12.588,0,0,1,2.266-.376,1.584,1.584,0,0,1,1.34.544,2.424,2.424,0,0,1,.475,1.38,1.092,1.092,0,0,1,.332-.148,1.339,1.339,0,0,1,1.295.5,1.292,1.292,0,0,1,.39.982,2.568,2.568,0,0,1-.944,1.632c.891.969,3.878,4.185,5.753,6.15a.375.375,0,0,1-.044.556l-4.894,3.721a.371.371,0,0,1-.225.076m-1.97-2.729,2,1.867,4.31-3.277c-2.192-2.307-5.509-5.885-5.735-6.144a.375.375,0,0,1,.04-.533,2.366,2.366,0,0,0,.969-1.355.543.543,0,0,0-.178-.423c-.159-.163-.39-.349-.578-.3-.3.075-.554.643-.631.906a.373.373,0,0,1-.723-.186,3.143,3.143,0,0,0-.211-2.2.85.85,0,0,0-.737-.274,11.811,11.811,0,0,0-2.128.357,5.479,5.479,0,0,1-2.388.231c0,.064.007.13.011.2a38.686,38.686,0,0,1,.079,4.457l.377.065a.373.373,0,0,1,.294.26,5.3,5.3,0,0,0,1.457,2.211,1.166,1.166,0,0,0,1.523.125,4.932,4.932,0,0,0,.869-.87.373.373,0,0,1,.609.048l1.2,2.034a2.306,2.306,0,0,1-.089,2.27Z" transform="translate(-482.145 -281.508)" fill="#020202"/>
    <path id="패스_169" data-name="패스 169" d="M665.115,405.05l-.383.535Z" transform="translate(-499.248 -304.031)" fill="#fff"/>
    <path id="패스_170" data-name="패스 170" d="M663.606,404.834a.374.374,0,0,1-.3-.592l.383-.535a.374.374,0,1,1,.607.436l-.382.535a.374.374,0,0,1-.3.156" transform="translate(-498.122 -302.906)" fill="#020202"/>
    <path id="패스_171" data-name="패스 171" d="M488.42,723.774c.048.2-2.3,10.947-2.3,10.947l5.389-.9,1.623-9.087Z" transform="translate(-365.104 -543.266)" fill="#fff"/>
    <path id="패스_172" data-name="패스 172" d="M485,733.969a.374.374,0,0,1-.365-.454c.9-4.1,2.235-10.346,2.288-10.859a.373.373,0,0,1,.447-.375l4.716.957a.374.374,0,0,1,.294.433l-1.623,9.086a.374.374,0,0,1-.306.3l-5.389.9a.386.386,0,0,1-.061.005m2.6-10.878c-.153.871-.639,3.262-2.117,10.044l4.585-.769,1.513-8.467Z" transform="translate(-363.978 -542.141)" fill="#020202"/>
    <path id="패스_173" data-name="패스 173" d="M474.61,751.281a2.327,2.327,0,0,0-1.4-.574,2.239,2.239,0,0,0-2.1,1.36c-.935,2.08-3.4,7.877-4.095,12.614-.246,1.674,1.015,3.036,2.98,1.939A24.069,24.069,0,0,0,480.02,754.6a2.211,2.211,0,0,0-.268-2.095,10.525,10.525,0,0,0-1.416-1.6,1.471,1.471,0,0,0-1.919-.031l-.506.417a1.013,1.013,0,0,1-1.3-.009" transform="translate(-350.729 -563.351)" fill="#09f"/>
    <path id="패스_174" data-name="패스 174" d="M470.85,775.086h-.027a.374.374,0,0,1-.36-.387.367.367,0,0,1,.383-.361h0c.078,0,4.508-.1,9.927-10.832a.374.374,0,1,1,.666.338c-5.542,10.972-10.156,11.242-10.59,11.242" transform="translate(-353.342 -572.936)" fill="#020202"/>
    <path id="패스_175" data-name="패스 175" d="M477.05,781.187a.371.371,0,0,1-.137-.026l-2.554-1.01a.374.374,0,0,1,.274-.7l2.554,1.01a.374.374,0,0,1-.137.722" transform="translate(-356.09 -585.041)" fill="#020202"/>
    <path id="패스_176" data-name="패스 176" d="M479.313,772.849a.369.369,0,0,1-.135-.026l-3-1.168a.374.374,0,0,1,.271-.7l3,1.168a.374.374,0,0,1-.135.723" transform="translate(-357.459 -578.664)" fill="#020202"/>
    <path id="패스_177" data-name="패스 177" d="M588.49,724.325c.128.161,2.51,10.9,2.51,10.9l4.51-3.089-2.339-8.929Z" transform="translate(-441.987 -542.842)" fill="#fff"/>
    <path id="패스_178" data-name="패스 178" d="M589.873,734.474a.374.374,0,0,1-.364-.293c-.91-4.1-2.313-10.33-2.481-10.817a.374.374,0,0,1,.249-.528l4.68-1.117a.374.374,0,0,1,.448.269l2.339,8.928a.375.375,0,0,1-.15.4l-4.51,3.089a.374.374,0,0,1-.211.065m-2.049-11c.227.855.789,3.229,2.294,10l3.838-2.628-2.18-8.32Z" transform="translate(-440.86 -541.716)" fill="#020202"/>
    <path id="패스_179" data-name="패스 179" d="M594.468,747.793a2.326,2.326,0,0,0-1.512.069,2.244,2.244,0,0,0-1.335,2.118c.025,2.281.221,8.578,1.577,13.17.479,1.623,2.195,2.327,3.517.5a24.109,24.109,0,0,0,4.054-15.129,2.208,2.208,0,0,0-1.122-1.788,10.477,10.477,0,0,0-1.955-.856,1.473,1.473,0,0,0-1.755.78l-.284.592a1.013,1.013,0,0,1-1.184.539" transform="translate(-444.338 -559.813)" fill="#09f"/>
    <path id="패스_180" data-name="패스 180" d="M601.99,770.991a.374.374,0,0,1-.148-.718c.061-.028,4.048-1.974,4.464-14.009a.381.381,0,0,1,.386-.361.374.374,0,0,1,.36.387c-.437,12.641-4.734,14.594-4.917,14.671a.369.369,0,0,1-.144.029" transform="translate(-451.845 -567.383)" fill="#020202"/>
    <path id="패스_181" data-name="패스 181" d="M593.488,786.608a.374.374,0,0,1-.021-.748l2.741-.16a.374.374,0,0,1,.043.747l-2.742.16h-.022" transform="translate(-445.461 -589.748)" fill="#020202"/>
    <path id="패스_182" data-name="패스 182" d="M591.569,778.006a.374.374,0,0,1-.023-.747l3.209-.2a.374.374,0,0,1,.047.747l-3.209.2h-.024" transform="translate(-444.019 -583.26)" fill="#020202"/>
    <path id="패스_183" data-name="패스 183" d="M540.018,557.054s-32.813-1.427-36.4,1.911c-4.866,4.527-13.225,42.211-13.225,42.211l8.071,2.267s12.161-30.927,15.174-30.927,31.423-1.016,31.423-1.016Z" transform="translate(-368.311 -417.899)" fill="#020202"/>
    <path id="패스_184" data-name="패스 184" d="M580.647,554.647a5.4,5.4,0,0,1,5.522,4.132c.945,3.918,1.764,9.275-.352,10.7-3.444,2.321-28.267,2.124-27.406,1.834s2.22,20.839,2.22,28.965l-7.816.3S540.36,567.9,541.7,564.255c2.4-6.528,20.891-8.023,26.807-8.9.795-.117,7.542-.476,12.138-.712" transform="translate(-406.771 -416.314)" fill="#020202"/>
    <path id="패스_185" data-name="패스 185" d="M544.43,586.856a.373.373,0,0,1-.355-.26q-.422-1.319-.834-2.591c-2.312-7.157-4.138-12.811-3.292-15.369,1.6-4.825,11.411-6.875,18.655-8a.374.374,0,0,1,.114.739c-4.062.63-16.423,2.545-18.06,7.494-.769,2.326,1.114,8.154,3.294,14.9q.411,1.271.835,2.593a.374.374,0,0,1-.356.488" transform="translate(-405.371 -420.813)" fill="#caddff"/>
    <path id="패스_186" data-name="패스 186" d="M44.51,626.135H.522a.374.374,0,0,1,0-.748H44.51a.374.374,0,0,1,0,.748" transform="translate(-0.112 -469.417)" fill="#020202"/>
    <path id="패스_187" data-name="패스 187" d="M675.7,629.942H624.926a.374.374,0,0,1,0-.748H675.7a.374.374,0,0,1,0,.748" transform="translate(-469.072 -472.274)" fill="#020202"/>
    <path id="패스_188" data-name="패스 188" d="M658.781,214.983a2.085,2.085,0,0,1-.61-4.079,2.085,2.085,0,1,1,.61,4.079m0-3.422a1.337,1.337,0,1,0,.389,2.615,1.337,1.337,0,0,0-.389-2.615" transform="translate(-493.215 -158.236)" fill="#020202"/>
    <path id="패스_189" data-name="패스 189" d="M675.1,191.269a.373.373,0,0,1-.3-.156l-2.014-2.815a.374.374,0,0,1,.243-.587c1.587-.262,3.206-.388,3.223-.389a.37.37,0,0,1,.326.147.375.375,0,0,1,.052.355l-1.176,3.2a.374.374,0,0,1-.3.241.388.388,0,0,1-.05,0m-1.356-2.912L675,190.1l.729-1.983c-.481.047-1.208.125-1.979.237" transform="translate(-505.245 -140.603)" fill="#020202"/>
    <path id="패스_190" data-name="패스 190" d="M613.431,74.167a.373.373,0,0,1-.373-.373c0-.677,0-1.324.007-1.947.037-5.233.061-8.69-3.51-14.236-4.245-6.591-10.791-11.8-19.459-15.471a.374.374,0,0,1,.291-.689c8.808,3.734,15.468,9.034,19.8,15.754,3.692,5.733,3.666,9.472,3.629,14.647,0,.621-.009,1.266-.007,1.94a.374.374,0,0,1-.373.375Z" transform="translate(-443.022 -31.09)" fill="#020202"/>
    <path id="패스_191" data-name="패스 191" d="M622.03,94.29a.374.374,0,0,1-.374-.373c0-.677,0-1.324.007-1.947.037-5.233.061-8.69-3.51-14.236a38.176,38.176,0,0,0-11.677-11.4.374.374,0,0,1,.4-.63,38.919,38.919,0,0,1,11.9,11.623c3.692,5.734,3.666,9.472,3.629,14.647,0,.621-.009,1.266-.008,1.94a.374.374,0,0,1-.372.375Z" transform="translate(-455.366 -49.273)" fill="#020202"/>
    <path id="패스_192" data-name="패스 192" d="M388.724,701.96a.374.374,0,0,1-.27-.633l1.175-1.231a.374.374,0,0,1,.54.518l-1.175,1.23a.372.372,0,0,1-.27.116" transform="translate(-291.672 -525.408)" fill="#020202"/>
    <path id="패스_193" data-name="패스 193" d="M372.2,719.229a.374.374,0,0,1-.27-.633l1.175-1.23a.374.374,0,1,1,.54.517l-1.175,1.23a.372.372,0,0,1-.27.116" transform="translate(-279.263 -538.37)" fill="#020202"/>
    <path id="패스_194" data-name="패스 194" d="M373.234,702.383a.373.373,0,0,1-.262-.108l-1.193-1.178a.374.374,0,0,1,.524-.533l1.193,1.178a.374.374,0,0,1-.262.64" transform="translate(-279.142 -525.765)" fill="#020202"/>
    <path id="패스_195" data-name="패스 195" d="M390.006,718.911a.372.372,0,0,1-.262-.108l-1.193-1.178a.374.374,0,0,1,.524-.533l1.193,1.178a.374.374,0,0,1-.262.64" transform="translate(-291.739 -538.171)" fill="#020202"/>
    <path id="패스_196" data-name="패스 196" d="M424.547,680.1a2.61,2.61,0,0,1-.949-.18,2.665,2.665,0,0,1-1.488-1.445,2.741,2.741,0,0,1,1.362-3.574,2.6,2.6,0,0,1,2.023-.053,2.664,2.664,0,0,1,1.487,1.445,2.74,2.74,0,0,1-1.362,3.574,2.6,2.6,0,0,1-1.074.233m-.769-4.516a1.989,1.989,0,0,0-.982,2.6,1.922,1.922,0,0,0,1.072,1.044,1.854,1.854,0,0,0,1.446-.038,1.989,1.989,0,0,0,.982-2.6,1.924,1.924,0,0,0-1.072-1.044,1.855,1.855,0,0,0-1.446.038" transform="translate(-316.859 -506.408)" fill="#020202"/>
  </g>
</svg>
