<svg xmlns="http://www.w3.org/2000/svg" xmlns:xlink="http://www.w3.org/1999/xlink" width="100" height="30.022" viewBox="0 0 100 30.022">
  <defs>
    <clipPath id="clip-path">
      <rect id="사각형_3" data-name="사각형 3" width="100" height="30.022" fill="none"/>
    </clipPath>
  </defs>
  <g id="그룹_6" data-name="그룹 6" transform="translate(0 0)">
    <g id="그룹_5" data-name="그룹 5" transform="translate(0 0)" clip-path="url(#clip-path)">
      <path id="패스_20" data-name="패스 20" d="M30.538,22.526a4.194,4.194,0,0,0-3.867-1.434l-.2.035q-.431.073-.908.133a2.518,2.518,0,0,1-.271.031,40.956,40.956,0,0,1-8.048-.035c-5.2-.488-9.573-1.689-11.263-2.964Q5.4,17.96,5.34,17.6a.856.856,0,0,1-.106-.48.768.768,0,0,1,.076-.265A13.964,13.964,0,0,0,2.39,18.54c-4.906,3.832-.742,10.6,21.288,15.656l.179.041a1.223,1.223,0,0,0,.19.015,1.247,1.247,0,0,0,1.244-1.158V23.262c0-.992.5-1.106.776-1.143.008,0,.023,0,.031,0a4.784,4.784,0,0,1,1.532.258c3.1,1.16,3.113,3.627,3.113,3.627a4.262,4.262,0,0,0-3.758-3.379c-.237,3,1.36,2.455,2.627,3.43a3.091,3.091,0,0,1,.892,1.736,4.11,4.11,0,0,0,.033-5.262" transform="translate(-0.137 -4.23)" fill="#0057aa"/>
      <path id="패스_21" data-name="패스 21" d="M9.619,11.034a41,41,0,0,1,8.046.036c6.788.637,12.164,2.486,12.008,4.132a.829.829,0,0,1-.136.375,13.923,13.923,0,0,0,2.847-1.65C37.3,10.088,32.8,4.051,10.945.041L10.749,0c-.036,0-.072,0-.107,0a1.164,1.164,0,0,0-1.16,1.062V9.207c-.178,1.382-1.262,1.276-1.262,1.276A4.709,4.709,0,0,1,4.75,9.018a3.421,3.421,0,0,1-.318-.566c1.252-.42,2.485-2.6,2.485-2.6,1.038-1.727,1.638-1.57,1.638-1.57A4.386,4.386,0,0,0,5.3,4.439a3.749,3.749,0,0,0-.845.548,18.893,18.893,0,0,0-1.7,1.6,1.225,1.225,0,0,1-1,.445,1.516,1.516,0,0,1-.529-.124,2.138,2.138,0,0,0-.2-.092C.108,6.436,0,7.228,0,7.228s.261-.219.537.4a8.22,8.22,0,0,0,.748,1.294,1.834,1.834,0,0,0,.506.531A4.068,4.068,0,0,0,3,10.291a13.794,13.794,0,0,0,6.615.742" transform="translate(0 0)" fill="#009c66"/>
      <path id="패스_22" data-name="패스 22" d="M7.6,25.21h0a.866.866,0,0,0-.288.655.885.885,0,0,0,.288.661.978.978,0,0,0,.7.276.945.945,0,0,0,.68-.276.89.89,0,0,0,.291-.661.868.868,0,0,0-.291-.655.952.952,0,0,0-.681-.273.979.979,0,0,0-.7.273m.227.655a.417.417,0,0,1,.135-.318.482.482,0,0,1,.335-.124.477.477,0,0,1,.327.124.41.41,0,0,1,.139.318.416.416,0,0,1-.139.315.456.456,0,0,1-.327.129.465.465,0,0,1-.336-.13.42.42,0,0,1-.134-.314m2.532-.85v2.423H7.2v.476h3.16V28.4H10.9v-3.39Z" transform="translate(-1.807 -6.256)" fill="#fff"/>
      <path id="패스_23" data-name="패스 23" d="M17.008,25.047v.473H16.46v.474h.548v.682h.537V25.047Zm-3.163,0v.476h.611s-.565.748-.626.826c.077.037.408.184.467.213l.644-.924s.6.864.639.925c.058-.025.4-.165.484-.2l-.614-.841h.591v-.476Zm1.814,2.064a.873.873,0,0,0-.268.64.863.863,0,0,0,.268.635.977.977,0,0,0,1.332,0,.873.873,0,0,0,0-1.275.93.93,0,0,0-.663-.263.948.948,0,0,0-.668.263m.372.925h0a.392.392,0,0,1,0-.569.413.413,0,0,1,.3-.117.408.408,0,0,1,.292.117.383.383,0,0,1,.123.285.388.388,0,0,1-.122.284.408.408,0,0,1-.293.118.416.416,0,0,1-.3-.116" transform="translate(-3.47 -6.284)" fill="#fff"/>
      <path id="패스_24" data-name="패스 24" d="M23.618,25.037v.372H21.131v-.372h-.539v1.716h3.565V25.037Zm-2.488,1.185v-.363h2.488v.411H21.131ZM20.5,27.261v.475h1.6v.76h.578v-.76h1.593v-.475Z" transform="translate(-5.143 -6.282)" fill="#fff"/>
      <path id="패스_25" data-name="패스 25" d="M30.31,28.434h.539V25.047H30.31Zm-2.267-3.387c-.025.051-.835,1.679-.873,1.757l.5.241.655-1.417.662,1.42c.072-.033.477-.212.55-.244-.043-.082-.9-1.706-.923-1.757Z" transform="translate(-6.817 -6.284)" fill="#fff"/>
      <path id="패스_26" data-name="패스 26" d="M54.2,14.763h0a3.129,3.129,0,0,0-1.04,2.362A3.19,3.19,0,0,0,54.2,19.51a3.52,3.52,0,0,0,2.512.995,3.412,3.412,0,0,0,2.454-.995,3.211,3.211,0,0,0,1.05-2.385,3.133,3.133,0,0,0-1.047-2.362,3.435,3.435,0,0,0-2.457-.984,3.523,3.523,0,0,0-2.512.984m.818,2.362a1.5,1.5,0,0,1,.485-1.148,1.739,1.739,0,0,1,1.208-.446,1.71,1.71,0,0,1,1.18.446,1.48,1.48,0,0,1,.5,1.148,1.5,1.5,0,0,1-.5,1.137,1.638,1.638,0,0,1-1.18.464,1.678,1.678,0,0,1-1.211-.47,1.507,1.507,0,0,1-.482-1.132m9.132-3.066V22.8h-11.4v1.718h11.4v1.771h1.939V14.058Z" transform="translate(-13.234 -3.457)" fill="#020202"/>
      <path id="패스_27" data-name="패스 27" d="M85.119,14.173v1.7H83.146V17.59h1.973V20.05h1.937V14.173Zm-11.407,0v1.718h2.2s-2.038,2.695-2.256,2.979c.279.133,1.47.665,1.683.768.161-.229,2.325-3.335,2.325-3.335s2.148,3.116,2.3,3.338c.211-.09,1.456-.594,1.746-.721L79.5,15.891h2.132V14.173Zm6.544,7.444a3.153,3.153,0,0,0-.969,2.309,3.109,3.109,0,0,0,.969,2.291,3.521,3.521,0,0,0,4.8,0,3.067,3.067,0,0,0,1-2.291,3.1,3.1,0,0,0-1-2.309,3.362,3.362,0,0,0-2.393-.948,3.422,3.422,0,0,0-2.409.948m1.34,3.338,0-.005a1.4,1.4,0,0,1-.44-1.024A1.379,1.379,0,0,1,81.6,22.9a1.485,1.485,0,0,1,1.069-.423,1.466,1.466,0,0,1,1.055.423,1.383,1.383,0,0,1,.443,1.029,1.411,1.411,0,0,1-.44,1.024,1.483,1.483,0,0,1-1.058.425,1.508,1.508,0,0,1-1.069-.42" transform="translate(-18.479 -3.556)" fill="#020202"/>
      <path id="패스_28" data-name="패스 28" d="M105.967,14.138v1.34H96.992v-1.34H95.051v6.191h12.858V14.138Zm-8.974,4.274V17.1h8.974v1.48H96.992ZM94.715,22.16v1.712h5.761v2.742h2.084V23.872h5.747V22.16Z" transform="translate(-23.763 -3.547)" fill="#020202"/>
      <path id="패스_29" data-name="패스 29" d="M127.1,26.39h1.942V14.173H127.1Zm-8.177-12.217c-.09.185-3.014,6.056-3.151,6.338.243.113,1.546.744,1.808.87.137-.3,2.364-5.111,2.364-5.111l2.388,5.119c.261-.119,1.723-.766,1.984-.881-.153-.3-3.237-6.156-3.33-6.336Z" transform="translate(-29.047 -3.556)" fill="#020202"/>
    </g>
  </g>
</svg>
