<svg id="그룹_38" data-name="그룹 38" xmlns="http://www.w3.org/2000/svg" xmlns:xlink="http://www.w3.org/1999/xlink" width="34" height="43" viewBox="0 0 34 43">
  <defs>
    <clipPath id="clip-path">
      <rect id="사각형_23" data-name="사각형 23" width="34" height="43" fill="#fff"/>
    </clipPath>
  </defs>
  <g id="그룹_37" data-name="그룹 37" clip-path="url(#clip-path)">
    <path id="패스_34" data-name="패스 34" d="M16.539,0a9.966,9.966,0,0,1,7.1,2.961,10.138,10.138,0,0,1-2.855,16.314A16.44,16.44,0,0,1,26.237,21.9H18.766a2.186,2.186,0,0,0-1.558.651l0,0a2.222,2.222,0,0,0-.648,1.569V38.68a2.221,2.221,0,0,0,.646,1.569,2.186,2.186,0,0,0,1.558.651h1v.141H3.643A3.617,3.617,0,0,1,1.07,39.963,3.674,3.674,0,0,1,0,37.371v-2a16.7,16.7,0,0,1,12.294-16.1A10.152,10.152,0,0,1,9.441,2.961,9.966,9.966,0,0,1,16.539,0m2.227,23.01a1.107,1.107,0,0,0-1.1,1.112V38.68a1.1,1.1,0,0,0,1.1,1.11h1V27.331a2.217,2.217,0,0,1,.648-1.567l0,0a2.183,2.183,0,0,1,1.558-.651h8.823v-.988a1.107,1.107,0,0,0-1.1-1.112Zm6.251,9.7,4.843-.029a1.106,1.106,0,0,0-.008-2.212l-4.843.029a1.106,1.106,0,0,0,.008,2.212m0,3.022L29.86,35.7a1.106,1.106,0,0,0-.008-2.212l-4.843.029a1.106,1.106,0,0,0,.008,2.212m0,3.02,4.843-.029a1.105,1.105,0,0,0-.008-2.21l-4.843.027a1.106,1.106,0,0,0,.008,2.212M21.972,26.22a1.1,1.1,0,0,0-1.1,1.11V41.888A1.107,1.107,0,0,0,21.972,43H32.9A1.107,1.107,0,0,0,34,41.888V27.331a1.1,1.1,0,0,0-1.1-1.11Z" transform="translate(0 0)" fill="#fff" fill-rule="evenodd"/>
  </g>
</svg>
