<svg xmlns="http://www.w3.org/2000/svg" xmlns:xlink="http://www.w3.org/1999/xlink" width="34" height="41" viewBox="0 0 34 41">
  <defs>
    <clipPath id="clip-path">
      <rect id="사각형_7" data-name="사각형 7" width="34" height="41" fill="#fff"/>
    </clipPath>
  </defs>
  <g id="그룹_9" data-name="그룹 9" clip-path="url(#clip-path)">
    <path id="패스_30" data-name="패스 30" d="M17,0a10.452,10.452,0,0,1,7.3,2.932,9.813,9.813,0,0,1,0,14.164,10.418,10.418,0,0,1-2.936,2,17.148,17.148,0,0,1,7.644,4.292,16.2,16.2,0,0,1,5,11.65v1.981a3.565,3.565,0,0,1-1.1,2.567,3.781,3.781,0,0,1-2.645,1.067H3.745A3.791,3.791,0,0,1,1.1,39.583,3.571,3.571,0,0,1,0,37.016V35.034a16.21,16.21,0,0,1,4.993-11.65,17.159,17.159,0,0,1,7.644-4.292,10.319,10.319,0,0,1-2.932-2,9.8,9.8,0,0,1,0-14.164A10.447,10.447,0,0,1,17,0" transform="translate(0 0)" fill="#fff" fill-rule="evenodd"/>
  </g>
</svg>
