<svg xmlns="http://www.w3.org/2000/svg" xmlns:xlink="http://www.w3.org/1999/xlink" width="31" height="42" viewBox="0 0 31 42">
  <defs>
    <clipPath id="clip-path">
      <rect id="사각형_9" data-name="사각형 9" width="31" height="42" fill="#fff"/>
    </clipPath>
  </defs>
  <g id="그룹_13" data-name="그룹 13" transform="translate(2)">
    <g id="그룹_12" data-name="그룹 12" transform="translate(-2)" clip-path="url(#clip-path)">
      <path id="패스_31" data-name="패스 31" d="M1.193,11.053H7.155V7.737a7.441,7.441,0,0,1,2.45-5.465,8.784,8.784,0,0,1,11.789,0,7.443,7.443,0,0,1,2.452,5.465v3.316h5.96A1.152,1.152,0,0,1,31,12.159V40.894A1.152,1.152,0,0,1,29.807,42H1.193A1.152,1.152,0,0,1,0,40.894V12.159a1.152,1.152,0,0,1,1.193-1.106m8.346,0H21.463V7.737a5.313,5.313,0,0,0-1.754-3.9,6.262,6.262,0,0,0-8.418,0,5.311,5.311,0,0,0-1.752,3.9ZM3.4,37.58H27.6a1.109,1.109,0,1,0,0-2.212H3.4a1.109,1.109,0,1,0,0,2.212m14.57-5.809a1.152,1.152,0,0,0,1.193-1.106,1.045,1.045,0,0,0-.1-.445l-1.3-3.454a4.379,4.379,0,0,0,1.4-1.275A3.967,3.967,0,0,0,19.9,23.21a4.028,4.028,0,0,0-1.325-2.96l0,0a4.766,4.766,0,0,0-6.388,0l0,0a4.026,4.026,0,0,0-1.323,2.96,3.965,3.965,0,0,0,.731,2.281,4.386,4.386,0,0,0,1.4,1.275L11.653,30.3a1.083,1.083,0,0,0,.731,1.4,1.254,1.254,0,0,0,.392.061v0Z" transform="translate(0 0)" fill="#fff" fill-rule="evenodd"/>
    </g>
  </g>
</svg>
