<svg xmlns="http://www.w3.org/2000/svg" xmlns:xlink="http://www.w3.org/1999/xlink" width="224" height="120" viewBox="0 0 224 120">
  <defs>
    <clipPath id="clip-path">
      <rect id="사각형_2" data-name="사각형 2" width="192.024" height="83.433" fill="#09f"/>
    </clipPath>
  </defs>
  <g id="그룹_8" data-name="그룹 8" transform="translate(-40 -204.279)">
    <g id="사각형_5" data-name="사각형 5" transform="translate(40 204.279)" fill="#fff" stroke="#707070" stroke-width="1" opacity="0">
      <rect width="224" height="120" stroke="none"/>
      <rect x="0.5" y="0.5" width="223" height="119" fill="none"/>
    </g>
    <g id="그룹_4" data-name="그룹 4" transform="translate(56.002 222.372)">
      <g id="그룹_3" data-name="그룹 3" clip-path="url(#clip-path)">
        <path id="패스_7" data-name="패스 7" d="M84.71,14.517h-.722a1.852,1.852,0,0,1-1.852-1.852V7.992H79.743a5.391,5.391,0,0,1-2.3,2.777,6.622,6.622,0,0,1-1.739.723,7.89,7.89,0,0,1-2.009.248,7.767,7.767,0,0,1-2.517-.4,5.978,5.978,0,0,1-2.032-1.151,5.378,5.378,0,0,1-1.366-1.84,5.9,5.9,0,0,1-.5-2.483,5.926,5.926,0,0,1,.5-2.473,5.349,5.349,0,0,1,1.366-1.851A5.994,5.994,0,0,1,71.175.4,7.78,7.78,0,0,1,73.693,0a7.865,7.865,0,0,1,2.133.283,6.347,6.347,0,0,1,1.818.824,5.511,5.511,0,0,1,1.388,1.321A5.289,5.289,0,0,1,79.878,4.2h2.258V2.078A1.852,1.852,0,0,1,83.988.226h.722a1.852,1.852,0,0,1,1.852,1.852V12.665a1.852,1.852,0,0,1-1.852,1.852m.113,5.644H71.2a1.707,1.707,0,0,1-1.707-1.707v-3.87a1.851,1.851,0,0,1,1.851-1.851h.723a1.851,1.851,0,0,1,1.851,1.851v1.447a.427.427,0,0,0,.427.426H84.823a1.851,1.851,0,0,1,1.851,1.851h0a1.851,1.851,0,0,1-1.851,1.851M73.693,7.992A1.888,1.888,0,0,0,75.115,7.4a2.121,2.121,0,0,0,.565-1.535A2.1,2.1,0,0,0,75.1,4.335a1.99,1.99,0,0,0-2.822,0,2.1,2.1,0,0,0-.576,1.535A2.1,2.1,0,0,0,72.282,7.4a1.9,1.9,0,0,0,1.411.587" transform="translate(-36.375)" fill="#707070"/>
        <path id="패스_8" data-name="패스 8" d="M129.247,2.266V18.539a1.707,1.707,0,0,1-1.707,1.707h-.7a1.707,1.707,0,0,1-1.707-1.707V16.975a1.882,1.882,0,0,1-3.388.131q-.238-.447-.469-.89-.689-1.321-1.3-2.653-.655,1.49-1.321,2.878-.229.477-.473.958a1.966,1.966,0,0,1-2.864.73,2.032,2.032,0,0,1-.614-2.561q.5-1.036.971-2.118.869-1.986,1.547-3.883a6.9,6.9,0,0,0,.271-1.016,6.548,6.548,0,0,0,.09-1.152V4.69h-.666a1.96,1.96,0,0,1-1.606-3.059,1.672,1.672,0,0,1,1.448-.8h5.915a1.96,1.96,0,0,1,1.606,3.059,1.673,1.673,0,0,1-1.448.8h-.757V7.4a4.644,4.644,0,0,0,.1,1.073,8.543,8.543,0,0,0,.282.914,36.691,36.691,0,0,0,1.411,3.465c.281.6.794,1.647,1.229,2.523.013.027.02.055.032.083V9.906h-.192a1.975,1.975,0,0,1,0-3.951h.192V2.266A1.707,1.707,0,0,1,126.844.559h.7a1.707,1.707,0,0,1,1.707,1.707M132.339.491h-.451a1.852,1.852,0,0,0-1.852,1.852V18.575a1.852,1.852,0,0,0,1.852,1.852h.451a1.852,1.852,0,0,0,1.852-1.852V2.343A1.852,1.852,0,0,0,132.339.491" transform="translate(-61.902 -0.265)" fill="#707070"/>
        <path id="패스_9" data-name="패스 9" d="M183.162,20.427h-.722a1.852,1.852,0,0,1-1.852-1.852v-6.5h-2.054v2.258a4.98,4.98,0,0,1-1.795,3.939,5.762,5.762,0,0,1-1.942,1.05,7.934,7.934,0,0,1-4.73,0,5.775,5.775,0,0,1-1.931-1.05,4.98,4.98,0,0,1-1.795-3.939V5.843a4.982,4.982,0,0,1,1.795-3.94,5.782,5.782,0,0,1,1.931-1.05,7.925,7.925,0,0,1,4.73,0A5.769,5.769,0,0,1,176.74,1.9a4.982,4.982,0,0,1,1.795,3.94v2.19h2.054V2.344A1.852,1.852,0,0,1,182.44.492h.722a1.851,1.851,0,0,1,1.851,1.852V18.576a1.851,1.851,0,0,1-1.851,1.852m-12.394-6.209a1.432,1.432,0,0,0,.486,1.129,1.851,1.851,0,0,0,2.37,0,1.432,1.432,0,0,0,.486-1.129V5.955a1.434,1.434,0,0,0-.486-1.129,1.851,1.851,0,0,0-2.37,0,1.433,1.433,0,0,0-.486,1.129Z" transform="translate(-89.932 -0.266)" fill="#707070"/>
        <path id="패스_10" data-name="패스 10" d="M227.951,15.076V2.343A1.851,1.851,0,0,1,229.8.491h.722a1.852,1.852,0,0,1,1.852,1.852V18.575a1.852,1.852,0,0,1-1.852,1.852H229.8a1.851,1.851,0,0,1-1.851-1.852v-1.6m-1.919,1.942H215.773a1.706,1.706,0,0,1-1.706-1.707V2.537A1.707,1.707,0,0,1,215.773.83h8.295a1.9,1.9,0,1,1,0,3.793h-5.149a.427.427,0,0,0-.427.427v9.6a.427.427,0,0,0,.427.427h7.114a1.919,1.919,0,1,1,0,3.838" transform="translate(-115.733 -0.265)" fill="#707070"/>
        <path id="패스_11" data-name="패스 11" d="M271.253,17.731a2.085,2.085,0,0,1-3.06-.359q-.414-.577-.8-1.168-1.016-1.535-1.851-2.98-.858,1.445-1.9,3.014-.433.654-.885,1.286a2.086,2.086,0,0,1-2.972.441l-.024-.018a2.08,2.08,0,0,1-.455-2.807q.808-1.2,1.48-2.4,1.118-2,1.953-3.849a3.99,3.99,0,0,0,.339-1.208,10.414,10.414,0,0,0,.09-1.343V2.568A1.851,1.851,0,0,1,265.018.717h1.038a1.851,1.851,0,0,1,1.852,1.851v3.77A10.25,10.25,0,0,0,268,7.682a3.963,3.963,0,0,0,.339,1.208q.835,1.851,1.862,3.736.643,1.179,1.44,2.407A2.078,2.078,0,0,1,271.253,17.731Zm4.985,2.7h-.722a1.852,1.852,0,0,1-1.852-1.852V9.883h-1.614a2.088,2.088,0,0,1,0-4.177h1.614V2.343A1.852,1.852,0,0,1,275.516.491h.722a1.852,1.852,0,0,1,1.852,1.852V18.575a1.852,1.852,0,0,1-1.852,1.852" transform="translate(-140 -0.265)" fill="#707070"/>
        <path id="패스_12" data-name="패스 12" d="M319.8,16.791a1.9,1.9,0,0,1-1.9,1.9h-9.492a1.706,1.706,0,0,1-1.707-1.707V3.042a2.212,2.212,0,1,1,4.425,0V14.468a.427.427,0,0,0,.427.427h6.346a1.9,1.9,0,0,1,1.9,1.9m5.114-9.347h-.689v-5.1A1.852,1.852,0,0,0,322.377.491h-.722A1.852,1.852,0,0,0,319.8,2.343V18.575a1.852,1.852,0,0,0,1.852,1.852h.722a1.852,1.852,0,0,0,1.852-1.852V11.486h.689a2.02,2.02,0,1,0,0-4.041" transform="translate(-165.82 -0.265)" fill="#707070"/>
        <path id="패스_13" data-name="패스 13" d="M83.773,82.9a3.172,3.172,0,0,1-4.6-.46q-.708-.928-1.4-1.88-1.7-2.332-3-4.526-1.3,2.195-3.051,4.578-.765,1.042-1.529,2.047a3.178,3.178,0,0,1-4.474.6l-.033-.026a3.165,3.165,0,0,1-.682-4.3q1.262-1.811,2.38-3.628a52.1,52.1,0,0,0,3.137-5.846,6.063,6.063,0,0,0,.514-1.834,15.685,15.685,0,0,0,.137-2.04V59.852a2.812,2.812,0,0,1,2.812-2.812h1.577a2.811,2.811,0,0,1,2.811,2.812v5.725a15.767,15.767,0,0,0,.137,2.04,6.037,6.037,0,0,0,.514,1.834,53.346,53.346,0,0,0,3,5.674Q83.1,76.9,84.331,78.741A3.173,3.173,0,0,1,83.773,82.9Zm6.91,4.071h-1.1a2.812,2.812,0,0,1-2.812-2.812V59.509A2.812,2.812,0,0,1,89.586,56.7h1.1a2.812,2.812,0,0,1,2.812,2.812V84.161a2.812,2.812,0,0,1-2.812,2.812" transform="translate(-34.842 -30.653)" fill="#09f"/>
        <path id="패스_14" data-name="패스 14" d="M152.759,73.67H139.53a2.592,2.592,0,0,1-2.592-2.592V59.632a2.592,2.592,0,0,1,2.592-2.592h13.229a2.592,2.592,0,0,1,2.592,2.592V71.078a2.592,2.592,0,0,1-2.592,2.592m10.032,13.3H142.1a2.592,2.592,0,0,1-2.592-2.592V78.5a2.812,2.812,0,0,1,2.812-2.812h1.1A2.812,2.812,0,0,1,146.23,78.5v2.2a.648.648,0,0,0,.648.648h15.913a2.812,2.812,0,0,1,0,5.623M148.63,67.365V63.346a.648.648,0,0,0-.648-.648h-3.676a.648.648,0,0,0-.648.648v4.018a.648.648,0,0,0,.648.648h3.676a.648.648,0,0,0,.648-.648M162.619,78.4h-1.1a2.812,2.812,0,0,1-2.812-2.812V59.51a2.812,2.812,0,0,1,2.812-2.812h1.1a2.812,2.812,0,0,1,2.812,2.812V75.59a2.812,2.812,0,0,1-2.812,2.812" transform="translate(-74.034 -30.653)" fill="#09f"/>
        <path id="패스_15" data-name="패스 15" d="M239.959,55.729h1.1a2.812,2.812,0,0,1,2.811,2.811V83.413a2.592,2.592,0,0,1-2.592,2.592h-23.57a2.812,2.812,0,1,1,0-5.623H236.5a.648.648,0,0,0,.648-.648V58.541a2.812,2.812,0,0,1,2.812-2.811m-4.32,4.251h0a2.537,2.537,0,0,0-2.537-2.537H229.3a2.537,2.537,0,0,0-2.537-2.537h-2.812a2.537,2.537,0,0,0-2.538,2.537H217.6a2.537,2.537,0,0,0,0,5.075h15.5a2.537,2.537,0,0,0,2.537-2.538M226.45,77.365a10.723,10.723,0,0,0,6.532-1.732A6.109,6.109,0,0,0,235.3,70.4a6.112,6.112,0,0,0-2.315-5.229,10.73,10.73,0,0,0-6.532-1.731h-2.195a10.73,10.73,0,0,0-6.532,1.731A6.113,6.113,0,0,0,215.41,70.4a6.11,6.11,0,0,0,2.314,5.228,10.724,10.724,0,0,0,6.532,1.732Zm-2.538-5.349a1.9,1.9,0,0,1-1.372-.463,1.615,1.615,0,0,1,0-2.3,1.894,1.894,0,0,1,1.372-.463h2.881a1.9,1.9,0,0,1,1.371.463,1.614,1.614,0,0,1,0,2.3,1.9,1.9,0,0,1-1.371.463Z" transform="translate(-116.181 -29.685)" fill="#09f"/>
        <path id="패스_16" data-name="패스 16" d="M301.955,72.5H289.069a2.592,2.592,0,0,1-2.592-2.592V59.632a2.592,2.592,0,0,1,2.592-2.592h12.886a2.592,2.592,0,0,1,2.592,2.592v10.28a2.592,2.592,0,0,1-2.592,2.592m6.26,1.3a7.923,7.923,0,0,1,3.086.549,5.869,5.869,0,0,1,2.143,1.492,6.137,6.137,0,0,1,1.252,2.194,8.344,8.344,0,0,1,.411,2.623,8.04,8.04,0,0,1-.429,2.623,6.234,6.234,0,0,1-1.286,2.194,6,6,0,0,1-2.177,1.492,8.048,8.048,0,0,1-3.1.548H293.986a7.791,7.791,0,0,1-3.068-.548,5.732,5.732,0,0,1-2.109-1.492,6.064,6.064,0,0,1-1.217-2.194,8.682,8.682,0,0,1-.394-2.623,8.332,8.332,0,0,1,.412-2.623,6.128,6.128,0,0,1,1.251-2.194A5.861,5.861,0,0,1,291,74.355a7.921,7.921,0,0,1,3.086-.549ZM297.826,66.2V63.345a.648.648,0,0,0-.648-.648h-3.333a.648.648,0,0,0-.648.648V66.2a.648.648,0,0,0,.648.648h3.333a.648.648,0,0,0,.648-.648m8.846,15.734a2.061,2.061,0,0,0,1.252-.343,1.093,1.093,0,0,0,.463-.926,1.154,1.154,0,0,0-.446-.943,1.971,1.971,0,0,0-1.269-.36h-11.04a1.972,1.972,0,0,0-1.269.36,1.154,1.154,0,0,0-.445.943,1.092,1.092,0,0,0,.463.926,2.057,2.057,0,0,0,1.251.343Zm4.457-8.915h-1.1a2.812,2.812,0,0,1-2.812-2.812v-10.7a2.812,2.812,0,0,1,2.812-2.812h1.1a2.812,2.812,0,0,1,2.812,2.812v1.919h.48a2.88,2.88,0,0,1,0,5.761h-.48v3.017a2.812,2.812,0,0,1-2.812,2.812" transform="translate(-154.881 -30.653)" fill="#09f"/>
        <path id="패스_17" data-name="패스 17" d="M105.038,138.8c-34.572,0-67.1-6.331-87-16.937a2.527,2.527,0,0,1,2.376-4.46c19.21,10.234,50.846,16.344,84.628,16.344s65.419-6.11,84.628-16.344a2.527,2.527,0,0,1,2.376,4.46c-19.907,10.605-52.432,16.937-87,16.937" transform="translate(-9.026 -55.366)" fill="#d8d8d8"/>
        <path id="패스_18" data-name="패스 18" d="M12.943,63.555H10.262V61.328a2.526,2.526,0,0,0-5.053,0v2.226H2.526a2.526,2.526,0,1,0,0,5.053H3.549L2.421,70.192a2.526,2.526,0,1,0,4.117,2.929l1.2-1.682,1.2,1.682a2.526,2.526,0,1,0,4.117-2.929l-1.128-1.585h1.023a2.526,2.526,0,0,0,0-5.053" transform="translate(0 -31.791)" fill="#d8d8d8"/>
        <path id="패스_19" data-name="패스 19" d="M399.819,66.081a2.527,2.527,0,0,0-2.526-2.526H394.61V61.328a2.527,2.527,0,0,0-5.053,0v2.226h-2.682a2.526,2.526,0,0,0,0,5.053H387.9l-1.128,1.585a2.526,2.526,0,0,0,4.117,2.929l1.2-1.682,1.2,1.682a2.526,2.526,0,1,0,4.117-2.929l-1.128-1.585h1.023a2.527,2.527,0,0,0,2.526-2.526" transform="translate(-207.795 -31.791)" fill="#d8d8d8"/>
      </g>
    </g>
  </g>
</svg>
