<svg xmlns="http://www.w3.org/2000/svg" xmlns:xlink="http://www.w3.org/1999/xlink" width="280" height="150" viewBox="0 0 280 150">
  <defs>
    <clipPath id="clip-path">
      <rect id="사각형_2" data-name="사각형 2" width="240" height="104.278" fill="#fff"/>
    </clipPath>
  </defs>
  <g id="그룹_8" data-name="그룹 8" transform="translate(-40 -204)">
    <g id="사각형_5" data-name="사각형 5" transform="translate(40 204)" fill="#fff" stroke="#707070" stroke-width="1" opacity="0">
      <rect width="280" height="150" stroke="none"/>
      <rect x="0.5" y="0.5" width="279" height="149" fill="none"/>
    </g>
    <g id="그룹_4" data-name="그룹 4" transform="translate(60 227)">
      <g id="그룹_3" data-name="그룹 3" clip-path="url(#clip-path)">
        <path id="패스_7" data-name="패스 7" d="M89.064,18.144h-.9a2.314,2.314,0,0,1-2.314-2.314V9.989H82.857a6.738,6.738,0,0,1-2.878,3.471,8.276,8.276,0,0,1-2.173.9,9.861,9.861,0,0,1-2.511.31,9.708,9.708,0,0,1-3.146-.494,7.472,7.472,0,0,1-2.539-1.439,6.722,6.722,0,0,1-1.707-2.3,7.369,7.369,0,0,1-.621-3.1A7.406,7.406,0,0,1,67.9,4.246a6.686,6.686,0,0,1,1.707-2.313A7.491,7.491,0,0,1,72.148.494,9.724,9.724,0,0,1,75.295,0a9.83,9.83,0,0,1,2.666.353,7.932,7.932,0,0,1,2.272,1.03,6.889,6.889,0,0,1,1.735,1.651,6.61,6.61,0,0,1,1.058,2.215h2.822V2.6A2.314,2.314,0,0,1,88.162.282h.9A2.314,2.314,0,0,1,91.378,2.6V15.83a2.314,2.314,0,0,1-2.314,2.314m.142,7.054H72.179a2.134,2.134,0,0,1-2.133-2.133V18.229a2.314,2.314,0,0,1,2.314-2.314h.9a2.313,2.313,0,0,1,2.314,2.314v1.809a.533.533,0,0,0,.533.533h13.1a2.313,2.313,0,0,1,2.314,2.313h0A2.314,2.314,0,0,1,89.206,25.2M75.295,9.989a2.359,2.359,0,0,0,1.778-.734,2.651,2.651,0,0,0,.706-1.918,2.624,2.624,0,0,0-.719-1.919,2.487,2.487,0,0,0-3.527,0,2.624,2.624,0,0,0-.719,1.919,2.622,2.622,0,0,0,.719,1.918,2.373,2.373,0,0,0,1.764.734" transform="translate(-28.653)" fill="#fff"/>
        <path id="패스_8" data-name="패스 8" d="M132.932,2.709V23.048a2.133,2.133,0,0,1-2.133,2.133h-.87a2.133,2.133,0,0,1-2.133-2.133V21.093a2.353,2.353,0,0,1-4.235.164q-.3-.559-.586-1.113-.861-1.651-1.622-3.316-.819,1.862-1.651,3.6-.286.6-.591,1.2a2.457,2.457,0,0,1-3.58.913,2.54,2.54,0,0,1-.768-3.2q.621-1.294,1.213-2.647,1.086-2.483,1.933-4.854a8.62,8.62,0,0,0,.339-1.269,8.184,8.184,0,0,0,.113-1.439V5.74h-.832a2.45,2.45,0,0,1-2.007-3.824,2.09,2.09,0,0,1,1.81-1h7.393a2.45,2.45,0,0,1,2.008,3.823,2.09,2.09,0,0,1-1.81,1h-.946V9.125a5.8,5.8,0,0,0,.127,1.341,10.687,10.687,0,0,0,.353,1.143,45.866,45.866,0,0,0,1.764,4.331c.351.755.992,2.059,1.536,3.154.017.033.025.069.04.1V12.258h-.239a2.469,2.469,0,0,1,0-4.938h.239V2.709A2.133,2.133,0,0,1,129.929.576h.87a2.133,2.133,0,0,1,2.133,2.133M136.8.491h-.563a2.314,2.314,0,0,0-2.314,2.314V23.093a2.314,2.314,0,0,0,2.314,2.314h.563a2.314,2.314,0,0,0,2.314-2.314V2.805A2.314,2.314,0,0,0,136.8.491" transform="translate(-48.761 -0.209)" fill="#fff"/>
        <path id="패스_9" data-name="패스 9" d="M187.365,25.408h-.9a2.315,2.315,0,0,1-2.314-2.314V14.967H181.58v2.822a6.224,6.224,0,0,1-2.243,4.924,7.2,7.2,0,0,1-2.427,1.312,9.917,9.917,0,0,1-5.911,0,7.218,7.218,0,0,1-2.413-1.312,6.224,6.224,0,0,1-2.243-4.924V7.179a6.227,6.227,0,0,1,2.243-4.924A7.227,7.227,0,0,1,171,.943a9.9,9.9,0,0,1,5.911,0,7.21,7.21,0,0,1,2.427,1.312,6.226,6.226,0,0,1,2.243,4.924V9.917h2.567V2.806A2.314,2.314,0,0,1,186.462.492h.9a2.314,2.314,0,0,1,2.314,2.314V23.094a2.314,2.314,0,0,1-2.314,2.314m-15.491-7.76a1.79,1.79,0,0,0,.607,1.411,2.314,2.314,0,0,0,2.962,0,1.79,1.79,0,0,0,.607-1.411V7.32a1.792,1.792,0,0,0-.607-1.411,2.314,2.314,0,0,0-2.962,0,1.792,1.792,0,0,0-.607,1.411Z" transform="translate(-70.841 -0.21)" fill="#fff"/>
        <path id="패스_10" data-name="패스 10" d="M231.42,18.72V2.805A2.314,2.314,0,0,1,233.733.491h.9a2.314,2.314,0,0,1,2.314,2.314V23.093a2.314,2.314,0,0,1-2.314,2.314h-.9a2.314,2.314,0,0,1-2.314-2.314v-2m-2.4,2.427H216.2a2.133,2.133,0,0,1-2.133-2.133V3.048A2.133,2.133,0,0,1,216.2.914h10.367a2.37,2.37,0,1,1,0,4.741H220.13a.533.533,0,0,0-.533.533v12a.533.533,0,0,0,.533.533h8.891a2.4,2.4,0,1,1,0,4.8" transform="translate(-91.165 -0.209)" fill="#fff"/>
        <path id="패스_11" data-name="패스 11" d="M274.327,22.039a2.606,2.606,0,0,1-3.824-.449q-.518-.721-1.006-1.459-1.27-1.919-2.314-3.724-1.073,1.806-2.371,3.767-.541.817-1.106,1.607a2.607,2.607,0,0,1-3.715.551l-.03-.023a2.6,2.6,0,0,1-.568-3.508q1.009-1.5,1.849-3,1.4-2.5,2.441-4.811a4.987,4.987,0,0,0,.424-1.509A13.009,13.009,0,0,0,264.22,7.8V3.087A2.314,2.314,0,0,1,266.534.773h1.3a2.314,2.314,0,0,1,2.314,2.314V7.8a12.808,12.808,0,0,0,.113,1.679,4.954,4.954,0,0,0,.423,1.509q1.044,2.314,2.328,4.67.8,1.473,1.8,3.008A2.6,2.6,0,0,1,274.327,22.039Zm6.23,3.368h-.9a2.314,2.314,0,0,1-2.314-2.314V12.23h-2.018a2.61,2.61,0,0,1,0-5.221h2.018v-4.2A2.314,2.314,0,0,1,279.655.491h.9a2.314,2.314,0,0,1,2.314,2.314V23.093a2.314,2.314,0,0,1-2.314,2.314" transform="translate(-110.28 -0.209)" fill="#fff"/>
        <path id="패스_12" data-name="패스 12" d="M323.075,20.864a2.37,2.37,0,0,1-2.37,2.37H308.842a2.133,2.133,0,0,1-2.133-2.133V3.68a2.765,2.765,0,1,1,5.531,0V17.961a.533.533,0,0,0,.533.533h7.932a2.37,2.37,0,0,1,2.37,2.37m6.391-11.682h-.861V2.805A2.315,2.315,0,0,0,326.291.491h-.9a2.314,2.314,0,0,0-2.314,2.314V23.093a2.314,2.314,0,0,0,2.314,2.314h.9a2.315,2.315,0,0,0,2.314-2.314v-8.86h.861a2.525,2.525,0,1,0,0-5.051" transform="translate(-130.619 -0.209)" fill="#fff"/>
        <path id="패스_13" data-name="패스 13" d="M88.6,89.449a3.964,3.964,0,0,1-5.749-.575q-.884-1.16-1.75-2.35-2.121-2.914-3.75-5.657-1.629,2.743-3.813,5.721-.956,1.3-1.911,2.559a3.972,3.972,0,0,1-5.591.744L66,89.859a3.956,3.956,0,0,1-.853-5.378q1.577-2.263,2.975-4.534a65.115,65.115,0,0,0,3.921-7.307,7.577,7.577,0,0,0,.642-2.292,19.6,19.6,0,0,0,.172-2.55V60.64a3.514,3.514,0,0,1,3.515-3.514h1.97a3.514,3.514,0,0,1,3.514,3.514V67.8a19.707,19.707,0,0,0,.172,2.55,7.545,7.545,0,0,0,.642,2.292,66.672,66.672,0,0,0,3.751,7.092q1.338,2.214,2.882,4.517A3.965,3.965,0,0,1,88.6,89.449Zm8.636,5.088h-1.37a3.515,3.515,0,0,1-3.515-3.515V60.212A3.515,3.515,0,0,1,95.867,56.7h1.37a3.515,3.515,0,0,1,3.514,3.515V91.022a3.515,3.515,0,0,1-3.514,3.515" transform="translate(-27.446 -24.146)" fill="#fff"/>
        <path id="패스_14" data-name="패스 14" d="M156.712,77.911H140.177a3.239,3.239,0,0,1-3.239-3.24V60.366a3.239,3.239,0,0,1,3.239-3.239h16.534a3.239,3.239,0,0,1,3.239,3.239V74.671a3.239,3.239,0,0,1-3.239,3.24M169.25,94.538H143.391a3.24,3.24,0,0,1-3.239-3.24V83.953a3.514,3.514,0,0,1,3.514-3.514h1.372a3.514,3.514,0,0,1,3.514,3.514V86.7a.81.81,0,0,0,.81.81H169.25a3.514,3.514,0,0,1,0,7.028m-17.7-24.508V65.007a.81.81,0,0,0-.81-.81h-4.594a.81.81,0,0,0-.81.81V70.03a.81.81,0,0,0,.81.81h4.594a.81.81,0,0,0,.81-.81m17.484,13.795h-1.37a3.515,3.515,0,0,1-3.515-3.515v-20.1a3.515,3.515,0,0,1,3.515-3.515h1.37a3.515,3.515,0,0,1,3.515,3.515v20.1a3.515,3.515,0,0,1-3.515,3.515" transform="translate(-58.318 -24.146)" fill="#fff"/>
        <path id="패스_15" data-name="패스 15" d="M246.222,55.935h1.372a3.514,3.514,0,0,1,3.514,3.514V90.535a3.239,3.239,0,0,1-3.239,3.24H218.409a3.514,3.514,0,1,1,0-7.028H241.9a.81.81,0,0,0,.81-.81V59.448a3.514,3.514,0,0,1,3.514-3.514m-5.4,5.314h0a3.171,3.171,0,0,0-3.171-3.171h-4.757a3.171,3.171,0,0,0-3.171-3.17h-3.514a3.171,3.171,0,0,0-3.171,3.17h-4.757a3.171,3.171,0,0,0,0,6.343h19.37a3.171,3.171,0,0,0,3.171-3.172M229.337,82.975q5.27,0,8.163-2.164t2.893-6.535q0-4.371-2.893-6.536t-8.163-2.163h-2.743q-5.271,0-8.164,2.163t-2.892,6.536q0,4.371,2.892,6.535t8.164,2.164Zm-3.171-6.685a2.372,2.372,0,0,1-1.714-.578,2.019,2.019,0,0,1,0-2.871,2.368,2.368,0,0,1,1.714-.579h3.6a2.369,2.369,0,0,1,1.714.579,2.018,2.018,0,0,1,0,2.871,2.374,2.374,0,0,1-1.714.578Z" transform="translate(-91.518 -23.383)" fill="#fff"/>
        <path id="패스_16" data-name="패스 16" d="M305.822,76.453H289.716a3.239,3.239,0,0,1-3.239-3.239V60.365a3.24,3.24,0,0,1,3.239-3.24h16.106a3.24,3.24,0,0,1,3.239,3.24V73.213a3.239,3.239,0,0,1-3.239,3.239m7.824,1.628a9.9,9.9,0,0,1,3.857.686,7.335,7.335,0,0,1,2.678,1.864,7.67,7.67,0,0,1,1.564,2.743,10.43,10.43,0,0,1,.514,3.278,10.05,10.05,0,0,1-.536,3.278,7.791,7.791,0,0,1-1.607,2.743,7.5,7.5,0,0,1-2.721,1.864,10.059,10.059,0,0,1-3.878.686H295.862a9.738,9.738,0,0,1-3.835-.686,7.164,7.164,0,0,1-2.636-1.864,7.58,7.58,0,0,1-1.521-2.743,10.852,10.852,0,0,1-.493-3.278,10.412,10.412,0,0,1,.514-3.278,7.66,7.66,0,0,1,1.564-2.743,7.325,7.325,0,0,1,2.678-1.864,9.9,9.9,0,0,1,3.857-.686Zm-12.984-9.509V65.006a.81.81,0,0,0-.81-.81h-4.165a.81.81,0,0,0-.81.81v3.566a.81.81,0,0,0,.81.81h4.165a.81.81,0,0,0,.81-.81m11.056,19.666a2.575,2.575,0,0,0,1.564-.428,1.366,1.366,0,0,0,.578-1.157,1.442,1.442,0,0,0-.557-1.179,2.464,2.464,0,0,0-1.586-.45h-13.8a2.464,2.464,0,0,0-1.586.45,1.443,1.443,0,0,0-.557,1.179,1.365,1.365,0,0,0,.579,1.157,2.571,2.571,0,0,0,1.564.428ZM317.289,77.1h-1.37a3.515,3.515,0,0,1-3.515-3.515V60.212a3.515,3.515,0,0,1,3.515-3.515h1.37a3.515,3.515,0,0,1,3.515,3.515v2.4h.6a3.6,3.6,0,0,1,0,7.2h-.6v3.77a3.515,3.515,0,0,1-3.515,3.515" transform="translate(-122.003 -24.146)" fill="#fff"/>
        <path id="패스_17" data-name="패스 17" d="M127.11,144.219c-43.209,0-83.86-7.913-108.741-21.168a3.158,3.158,0,0,1,2.969-5.574C45.347,130.267,84.888,137.9,127.11,137.9s81.763-7.636,105.772-20.427a3.158,3.158,0,0,1,2.969,5.574c-24.881,13.255-65.532,21.168-108.741,21.168" transform="translate(-7.11 -39.94)" fill="#fff"/>
        <path id="패스_18" data-name="패스 18" d="M16.177,64.742H12.825V61.96a3.158,3.158,0,0,0-6.315,0v2.782H3.158a3.158,3.158,0,1,0,0,6.315H4.436L3.026,73.038A3.157,3.157,0,1,0,8.172,76.7l1.5-2.1,1.5,2.1a3.157,3.157,0,1,0,5.145-3.661L14.9,71.057h1.278a3.158,3.158,0,1,0,0-6.315" transform="translate(0 -25.042)" fill="#fff"/>
        <path id="패스_19" data-name="패스 19" d="M403.684,67.9a3.158,3.158,0,0,0-3.158-3.158h-3.352V61.96a3.158,3.158,0,0,0-6.315,0v2.782h-3.352a3.158,3.158,0,1,0,0,6.315h1.278l-1.409,1.981a3.158,3.158,0,1,0,5.146,3.661l1.5-2.1,1.5,2.1a3.157,3.157,0,1,0,5.145-3.661l-1.409-1.981h1.278a3.158,3.158,0,0,0,3.158-3.158" transform="translate(-163.684 -25.042)" fill="#fff"/>
      </g>
    </g>
  </g>
</svg>
