<svg xmlns="http://www.w3.org/2000/svg" xmlns:xlink="http://www.w3.org/1999/xlink" width="162" height="162" viewBox="0 0 162 162">
  <defs>
    <clipPath id="clip-path">
      <rect id="사각형_57" data-name="사각형 57" width="162" height="162" fill="none"/>
    </clipPath>
  </defs>
  <g id="그룹_125" data-name="그룹 125" clip-path="url(#clip-path)">
    <path id="패스_60" data-name="패스 60" d="M7.077,50.328a79.292,79.292,0,0,0-6.6,41.156,81.682,81.682,0,0,0,28.763,52.98c42.691,34.9,120.842,12.355,131.191-20.524,1.877-5.965,1.35-11.718.7-18.8-2.066-22.515-12.948-29.207-20.267-53.113-6.66-21.756-.094-24.2-6.322-33.876C121.034-2.827,82.036-3.884,55.2,6.174,44.9,10.038,19.884,21.89,7.077,50.328" transform="translate(0 -0.048)" fill="#fff" opacity="0.35"/>
    <path id="패스_61" data-name="패스 61" d="M165.815,40.626a17.386,17.386,0,0,1,4.265.7c2,.453,2.549.758,2.795,1.281a2.641,2.641,0,0,1-.379,2.23c-1.021,1.793-2.889,2.028-4.121,2.847-3.985,2.65-1.953,7.15-5.258,9.965-3.148,2.681-6.088-.469-11.747,2.088-4.455,2.013-4.04,4.6-7.673,5.741-4.437,1.393-11.39-.479-14.21-6.074-2.681-5.319-.828-12.422,2.795-14.236,3.291-1.648,5.833,1.993,10.231.285,4.336-1.684,4.67-6.347,8.053-6.288.809.014.64.278,5.967,2.208a13.019,13.019,0,0,0,3.032.949c2.654.177,3.207-1.531,6.25-1.7" transform="translate(-103.231 -31.569)" fill="#020202"/>
    <path id="패스_62" data-name="패스 62" d="M218.249,131.929c1.9,11.629,2.116,11.8,2.372,13.018a51.338,51.338,0,0,1,.96,6.724c.181,2.863-.356,20.054-9.226,23.839-3.2,1.367-4.131-1.146-10.952-.873-6.989.28-8.406,2.771-11.456,1.9-6.6-1.889-8.756-16.076-8.392-24.842.3-7.14,3.843-13.881,10.936-27.365,1.08-2.054,2.81-5.19,5.6-5.589,1.277-.183,1.788.014,6.916,1.423,5.578,1.534,6.993-.1,9.388,1.414,2.474,1.562,2.91,4.533,3.858,10.353" transform="translate(-146.147 -95.562)" fill="#09f"/>
    <path id="패스_63" data-name="패스 63" d="M304.425,531.477V537.1l-2.7-.165-.532-5.459Z" transform="translate(-242.503 -427.775)" fill="#fff"/>
    <path id="패스_64" data-name="패스 64" d="M303.217,536.186H303.2l-2.7-.165a.293.293,0,0,1-.273-.264l-.532-5.459a.293.293,0,0,1,.291-.321h3.233a.293.293,0,0,1,.292.293v5.624a.293.293,0,0,1-.292.293m-2.434-.735,2.142.131v-5.02h-2.618Z" transform="translate(-241.295 -426.568)" fill="#020202"/>
    <path id="패스_65" data-name="패스 65" d="M297.525,558.956a18.325,18.325,0,0,0,5-.167,1.177,1.177,0,0,0,.934-1.478,52.725,52.725,0,0,0-2.393-7.04l-.5.912-.4-.963a.417.417,0,0,0-.319-.2l-1.035-.1a.541.541,0,0,0-.513.407l-.682.854-.393-1.014-.737,7.5a1.174,1.174,0,0,0,1.039,1.284" transform="translate(-238.709 -442.619)" fill="#fff"/>
    <path id="패스_66" data-name="패스 66" d="M298.195,558.142a17.953,17.953,0,0,1-1.909-.1,1.471,1.471,0,0,1-1.3-1.6l.737-7.5a.292.292,0,0,1,.563-.078l.21.541.326-.408a.843.843,0,0,1,.808-.565l1.035.1a.711.711,0,0,1,.542.342.324.324,0,0,1,.019.038l.165.4.206-.376a.287.287,0,0,1,.262-.152.293.293,0,0,1,.256.163,54,54,0,0,1,2.412,7.091,1.47,1.47,0,0,1-1.166,1.846,18.7,18.7,0,0,1-3.169.27m-2-7.969-.621,6.323a.883.883,0,0,0,.779.964,17.988,17.988,0,0,0,4.916-.165.887.887,0,0,0,.6-.4.873.873,0,0,0,.1-.709,62.457,62.457,0,0,0-2.134-6.469l-.22.4a.3.3,0,0,1-.272.152.292.292,0,0,1-.254-.18l-.388-.937a.124.124,0,0,0-.087-.047l-1.035-.1a.264.264,0,0,0-.2.166.293.293,0,0,1-.06.132l-.682.854a.292.292,0,0,1-.447.012" transform="translate(-237.502 -441.413)" fill="#020202"/>
    <path id="패스_67" data-name="패스 67" d="M302.433,587.99a12.914,12.914,0,0,1-2.879-.318.293.293,0,0,1,.142-.568,12.048,12.048,0,0,0,5.231,0,.293.293,0,0,1,.149.567,10.467,10.467,0,0,1-2.642.318" transform="translate(-241.006 -472.537)" fill="#020202"/>
    <path id="패스_68" data-name="패스 68" d="M308.61,574.3h-2.465a.293.293,0,0,1,0-.586h2.465a.293.293,0,0,1,0,.586" transform="translate(-246.255 -461.77)" fill="#020202"/>
    <path id="패스_69" data-name="패스 69" d="M202.061,516.235l-.8,6.78-2.532-.088v-6.692Z" transform="translate(-160.007 -415.509)" fill="#fff"/>
    <path id="패스_70" data-name="패스 70" d="M200.055,522.1h-.011l-2.531-.088a.293.293,0,0,1-.282-.293v-6.692a.292.292,0,0,1,.292-.293h3.33a.293.293,0,0,1,.29.327l-.8,6.78a.293.293,0,0,1-.29.258m-2.24-.664,1.981.069.728-6.185h-2.709Z" transform="translate(-158.799 -414.301)" fill="#020202"/>
    <path id="패스_71" data-name="패스 71" d="M185.295,542.272a34.527,34.527,0,0,1,.225,4.222,25.924,25.924,0,0,1-1.928,4.9,1.633,1.633,0,0,1-1.383.983c-.71.031-1.7.067-2.495.068a1.759,1.759,0,0,1-1.458-2.411,18.09,18.09,0,0,1,1.837-3.853,28.351,28.351,0,0,0,1.671-4.012h2.063l.4,1.716Z" transform="translate(-143.437 -436.383)" fill="#fff"/>
    <path id="패스_72" data-name="패스 72" d="M178.5,551.534a1.776,1.776,0,0,1-1.445-.772,2.248,2.248,0,0,1-.289-2.025,18.346,18.346,0,0,1,1.866-3.916,28.3,28.3,0,0,0,1.642-3.949.292.292,0,0,1,.277-.2h2.063a.293.293,0,0,1,.284.226l.249,1.056.691-1.051a.292.292,0,0,1,.535.129,34.06,34.06,0,0,1,.226,4.278,24.487,24.487,0,0,1-1.956,5,1.931,1.931,0,0,1-1.634,1.151c-.7.031-1.7.067-2.507.068Zm2.259-10.275a25.8,25.8,0,0,1-1.632,3.875,17.771,17.771,0,0,0-1.807,3.791,1.661,1.661,0,0,0,.21,1.5,1.183,1.183,0,0,0,.97.528h0c.8,0,1.79-.037,2.482-.067a1.35,1.35,0,0,0,1.131-.816,23.263,23.263,0,0,0,1.9-4.8,25.823,25.823,0,0,0-.144-3.346l-.609.926a.292.292,0,0,1-.528-.094l-.352-1.491Z" transform="translate(-142.227 -435.176)" fill="#020202"/>
    <path id="패스_73" data-name="패스 73" d="M183.324,572.818h0l-2.349,0a.293.293,0,0,1,0-.586h0l2.349,0h0a1.884,1.884,0,0,0,1.681-1.081,12.722,12.722,0,0,1,1.246-2.362.293.293,0,0,1,.4.421c-.04.062-.233.4-1.126,2.2a2.465,2.465,0,0,1-2.205,1.407m3.3-3.575h0" transform="translate(-145.474 -457.751)" fill="#020202"/>
    <path id="패스_74" data-name="패스 74" d="M188.8,574.733h-2.259a.293.293,0,0,1,0-.586H188.8a.293.293,0,0,1,0,.586" transform="translate(-149.958 -462.116)" fill="#020202"/>
    <path id="패스_75" data-name="패스 75" d="M223.319,230.66s-.269,20.693-1.137,34.164-2.58,23.771-2.58,23.771-2.946,1.061-4.88.505c0,0-1.6-11.817-1.965-15.811s.6-5.976.684-9.245-1.406-17.7-1.406-17.7-11.105,32.63-12.375,39.837a8.222,8.222,0,0,1-4.585-.581s-.059-12.832.21-14.814c.5-3.673,3.362-7.29,3.876-11.191s.813-13.694,2.23-19.567a96.2,96.2,0,0,1,4.2-12.471Z" transform="translate(-157.058 -183.18)" fill="#020202"/>
    <path id="패스_76" data-name="패스 76" d="M241.749,259.539a.293.293,0,0,1-.111-.564,8.464,8.464,0,0,0,4.624-4.984.292.292,0,1,1,.561.164,8.931,8.931,0,0,1-4.964,5.362.292.292,0,0,1-.111.022" transform="translate(-194.407 -204.288)" fill="#fff"/>
    <path id="패스_77" data-name="패스 77" d="M224.536,262.569l-.038,0a.293.293,0,0,1-.252-.328,47.776,47.776,0,0,1,5.168-16.531.292.292,0,1,1,.5.3,47.17,47.17,0,0,0-5.092,16.308.292.292,0,0,1-.289.255" transform="translate(-180.548 -197.676)" fill="#fff"/>
    <path id="패스_78" data-name="패스 78" d="M476.5,132.7l-4.84,2.016-1.767,3.809a20.878,20.878,0,0,1-3.161,1.744c.191.408.38.817.559,1.23.291.671.57,1.346.848,2.022a13.99,13.99,0,0,0,2.929-4.083c2.986-.174,3.06-2.482,2.912-3.079s.124-1.276,1.5-2.18c1.5-.989,1.022-1.478,1.022-1.478" transform="translate(-375.786 -106.84)" fill="#fff"/>
    <path id="패스_79" data-name="패스 79" d="M466.93,142.6a.316.316,0,0,1-.057-.005.3.3,0,0,1-.213-.176c-.252-.612-.545-1.323-.846-2.016-.181-.419-.374-.835-.555-1.222a.294.294,0,0,1,.147-.392,20.661,20.661,0,0,0,3.049-1.674l1.732-3.734a.293.293,0,0,1,.153-.147l4.84-2.016a.292.292,0,0,1,.321.066.633.633,0,0,1,.152.511c-.047.436-.458.913-1.222,1.416-1.414.931-1.461,1.51-1.374,1.865a2.881,2.881,0,0,1-.493,2.2,3.3,3.3,0,0,1-2.507,1.231,14.75,14.75,0,0,1-2.919,4.011.291.291,0,0,1-.206.085m-1.017-3.4c.145.312.294.639.437.968.237.547.47,1.1.682,1.616a13.539,13.539,0,0,0,2.558-3.672.293.293,0,0,1,.253-.181,2.839,2.839,0,0,0,2.249-1.007,2.29,2.29,0,0,0,.4-1.71c-.207-.838.308-1.631,1.62-2.495a2.89,2.89,0,0,0,.883-.791l-4.323,1.8-1.72,3.706a.293.293,0,0,1-.1.12,21.361,21.361,0,0,1-2.933,1.645m2.771-1.889h0Z" transform="translate(-374.577 -105.633)" fill="#020202"/>
    <path id="패스_80" data-name="패스 80" d="M262.272,121.629s-6.627-.95-13.151-1.14c0,0-8.182,21.382-8.182,22.825s3.494,3.289,8.182,2.111a34.369,34.369,0,0,1,13.993-.51c5.018,1.174-.842-23.286-.842-23.286" transform="translate(-193.99 -97.016)" fill="#fff"/>
    <path id="패스_81" data-name="패스 81" d="M244.968,144.889a7.7,7.7,0,0,1-4.633-1.312,1.987,1.987,0,0,1-.9-1.471c0-1.455,7.362-20.736,8.2-22.93a.288.288,0,0,1,.281-.188c6.465.188,13.117,1.133,13.184,1.143a.292.292,0,0,1,.243.221c.2.828,4.824,20.312,1.9,23.263a1.427,1.427,0,0,1-1.406.377c-3.49-.817-9.446-.6-13.855.51a12.4,12.4,0,0,1-3.016.388m3.144-25.31c-3.28,8.577-8.089,21.515-8.088,22.526a1.466,1.466,0,0,0,.671,1.01c1.26.984,3.958,1.618,7.148.818,4.487-1.127,10.561-1.347,14.13-.512a.839.839,0,0,0,.858-.219c2.215-2.232-.654-16.822-2-22.519-1.133-.155-6.97-.922-12.714-1.1" transform="translate(-192.783 -95.807)" fill="#020202"/>
    <path id="패스_82" data-name="패스 82" d="M372.68,131.194l3.056,1.941s-3.222,7.462-10.232,9.742-13.637-4.181-13.637-4.181l.6,13.853a31.623,31.623,0,0,1-3.387,1.833c0-.178-1.481-30.9-1.481-30.9s2.734.044,3.953,1.782,5.833,8.922,11.137,9.009a19.63,19.63,0,0,0,9.987-3.077" transform="translate(-279.87 -99.423)" fill="#09f"/>
    <path id="패스_83" data-name="패스 83" d="M324.456,150.671l-12.047-1.244a.912.912,0,0,0-.855.759l-2.909,17.988a.619.619,0,0,0,.609.759l12.774-.628c.4,0,.828.288.9-.131l2.909-17.988c.068-.419-.974.485-1.378.485" transform="translate(-248.496 -120.305)" fill="#020202"/>
    <path id="패스_84" data-name="패스 84" d="M308.061,168.018a.9.9,0,0,1-.707-.312.97.97,0,0,1-.2-.786l2.909-17.988a1.2,1.2,0,0,1,1.143-1h.03l12.025,1.242a2.818,2.818,0,0,0,.6-.3c.41-.239.681-.4.912-.236a.372.372,0,0,1,.146.387l-2.909,17.988a.548.548,0,0,1-.223.385.808.808,0,0,1-.652.039,1.547,1.547,0,0,0-.309-.047l-12.76.627Zm3.128-19.505a.621.621,0,0,0-.553.513l-2.909,17.988a.381.381,0,0,0,.072.313.315.315,0,0,0,.249.107l12.76-.627h0a2.025,2.025,0,0,1,.445.06c.054.012.126.028.178.034l2.845-17.591-.127.073a2.07,2.07,0,0,1-.9.375l-.03,0Z" transform="translate(-247.289 -119.098)" fill="#020202"/>
    <path id="패스_85" data-name="패스 85" d="M327.272,149.426H314.457a.912.912,0,0,0-.855.759l-2.909,17.988a.619.619,0,0,0,.609.759h12.816a.912.912,0,0,0,.855-.759l2.909-17.988a.619.619,0,0,0-.609-.759" transform="translate(-250.144 -120.304)" fill="#fff"/>
    <path id="패스_86" data-name="패스 86" d="M322.913,168.017H310.1a.893.893,0,0,1-.694-.313.97.97,0,0,1-.2-.786l2.909-17.988a1.2,1.2,0,0,1,1.143-1h12.816a.893.893,0,0,1,.694.313.969.969,0,0,1,.2.786l-2.909,17.988a1.2,1.2,0,0,1-1.143,1m-9.662-19.506a.619.619,0,0,0-.566.513l-2.909,17.988a.379.379,0,0,0,.072.313.314.314,0,0,0,.249.107h12.816a.619.619,0,0,0,.566-.513l2.909-17.988a.381.381,0,0,0-.072-.313.315.315,0,0,0-.249-.107Z" transform="translate(-248.938 -119.097)" fill="#020202"/>
    <path id="패스_87" data-name="패스 87" d="M310.312,191.085l.138,1.693,5.132-.934a1.505,1.505,0,0,1,.189.444,1.667,1.667,0,0,1-.364,1.51c-.224.279-1.111.287-1.042.842.06.484-1.946.861-3.681,1.184-1.943.361-1.777-2.412-1.3-3.832.374-1.107.923-.907.923-.907" transform="translate(-248.85 -153.82)" fill="#fff"/>
    <path id="패스_88" data-name="패스 88" d="M309.141,194.943a1.358,1.358,0,0,1-1.07-.469c-.768-.888-.526-2.748-.176-3.782a1.67,1.67,0,0,1,.752-1.038.727.727,0,0,1,.547-.05.293.293,0,0,1,.192.251l.112,1.371,4.815-.877a.292.292,0,0,1,.292.121,1.786,1.786,0,0,1,.232.538,1.95,1.95,0,0,1-.419,1.767,1.267,1.267,0,0,1-.555.327c-.346.134-.437.2-.425.295.086.69-1.128.99-3.918,1.509a2.079,2.079,0,0,1-.38.037m-.312-4.715a1.38,1.38,0,0,0-.381.653c-.367,1.084-.446,2.62.065,3.211a.885.885,0,0,0,.9.24,12.971,12.971,0,0,0,3.441-.905c-.039-.545.483-.747.8-.869a1.256,1.256,0,0,0,.309-.148,1.378,1.378,0,0,0,.309-1.253,1.406,1.406,0,0,0-.065-.191l-4.922.9a.292.292,0,0,1-.344-.264Zm.181-.069h0Z" transform="translate(-247.632 -152.614)" fill="#020202"/>
    <path id="패스_89" data-name="패스 89" d="M241.967,137.739l-1.029-1.568s-5.105,1.037-7.461,0c-4.116-1.811-3.337-8.141-2.637-11.291a24.512,24.512,0,0,1,2.247-5.9,18.543,18.543,0,0,0-6.345,6.845c-2.564,4.705-3.4,15.235,5.177,17.138,5.61,1.245,10.048-5.223,10.048-5.223" transform="translate(-181.146 -95.8)" fill="#09f"/>
    <path id="패스_90" data-name="패스 90" d="M226.5,199.634a.29.29,0,0,1-.188-.069c-2.79-2.35-2.611-7.241-2.6-7.448a.292.292,0,1,1,.584.025c0,.048-.173,4.811,2.395,6.974a.293.293,0,0,1-.188.517" transform="translate(-180.118 -154.437)" fill="#fff"/>
    <path id="패스_91" data-name="패스 91" d="M299.552,69.611a.239.239,0,0,0,.346-.116c.266-.655.693-1.923,1.565-2.125,1.118-.258,2.929-.592,3.084.293.137.777-.024,2.116.792,3.087.078.093.011.242-.086.315l-.514.434a.913.913,0,0,0-.214.5,4.518,4.518,0,0,1-.239,1.433,4.748,4.748,0,0,1-1.7.138l-1.134,3.907a.273.273,0,0,0,.193.341l1.35.46s-1.084,1.522-4.469,1.292a6.648,6.648,0,0,1-3.748-1.674,5.986,5.986,0,0,0,4.776-5.581.312.312,0,0,0-.122-.284c-.336-.253-1.239-1-1.081-1.752.168-.8.765-.923,1.2-.664" transform="translate(-237.339 -54.039)" fill="#fff"/>
    <path id="패스_92" data-name="패스 92" d="M298,78.672c-.222,0-.455-.008-.7-.024a6.885,6.885,0,0,1-3.931-1.756.293.293,0,0,1,.162-.5c.162-.024,3.992-.637,4.526-5.325-.53-.41-1.38-1.2-1.2-2.062a1.242,1.242,0,0,1,.667-.937,1.042,1.042,0,0,1,.917.052l.05-.126c.3-.757.752-1.9,1.7-2.119,1.606-.371,2.549-.386,3.057-.049a.857.857,0,0,1,.381.577,6.989,6.989,0,0,1,.07.707,3.755,3.755,0,0,0,.657,2.243.445.445,0,0,1,.1.34.6.6,0,0,1-.233.4l-.5.424a.764.764,0,0,0-.112.3c-.006.064-.013.139-.02.221-.08.928-.139,1.262-.328,1.413a3.309,3.309,0,0,1-1.663.213l-1.07,3.685,1.356.442a.293.293,0,0,1,.144.447c-.045.063-1.061,1.438-4.027,1.438m-3.795-1.85a6.165,6.165,0,0,0,3.134,1.241,5.587,5.587,0,0,0,3.9-.877l-.887-.3a.558.558,0,0,1-.336-.263.571.571,0,0,1-.052-.44l1.134-3.907a.293.293,0,0,1,.3-.21A5.344,5.344,0,0,0,302.87,72a6.867,6.867,0,0,0,.136-1.016c.007-.084.014-.161.02-.227a1.172,1.172,0,0,1,.329-.7l.485-.41a4.335,4.335,0,0,1-.726-2.5c-.016-.239-.031-.465-.063-.645a.271.271,0,0,0-.128-.19c-.349-.231-1.224-.187-2.6.131-.647.15-1.047,1.16-1.286,1.764l-.074.186a.531.531,0,0,1-.766.257.475.475,0,0,0-.435-.049.678.678,0,0,0-.33.521c-.122.582.712,1.263.971,1.458a.607.607,0,0,1,.237.551,6.353,6.353,0,0,1-4.433,5.689m4.289-8.673h0" transform="translate(-236.131 -52.829)" fill="#020202"/>
    <path id="패스_93" data-name="패스 93" d="M459.2,314.566s-2.007,18.26-15.487,19.455l15.487.221s5.734-11.641,5.967-16.173-5.967-3.5-5.967-3.5" transform="translate(-357.251 -253.127)" fill="#fff"/>
    <path id="패스_94" data-name="패스 94" d="M457.991,333.317h0L442.5,333.1a.293.293,0,0,1-.021-.585c5.474-.485,9.7-3.848,12.553-9.994a33.4,33.4,0,0,0,2.67-9.2.292.292,0,0,1,.243-.257c.142-.024,3.508-.561,5.275,1.019a3.316,3.316,0,0,1,1.032,2.787c-.233,4.541-5.762,15.81-6,16.288a.292.292,0,0,1-.262.163m-12.611-.765,12.43.177c.7-1.436,5.644-11.763,5.857-15.893a2.76,2.76,0,0,0-.837-2.32c-1.325-1.185-3.832-.994-4.577-.907a34.329,34.329,0,0,1-2.685,9.143c-2.4,5.17-5.885,8.509-10.187,9.8" transform="translate(-356.044 -251.91)" fill="#020202"/>
    <path id="패스_95" data-name="패스 95" d="M461.143,566.861c-.377-.382-2.553-7.165-2.553-7.165l-4.3,3.074L459,569.119Z" transform="translate(-365.767 -450.486)" fill="#fff"/>
    <path id="패스_96" data-name="패스 96" d="M457.8,568.206h-.017a.294.294,0,0,1-.217-.117l-4.716-6.349a.293.293,0,0,1,.065-.413l4.3-3.075a.292.292,0,0,1,.448.149c1.021,3.18,2.24,6.734,2.491,7.057a.283.283,0,0,1,0,.4l-2.139,2.258a.292.292,0,0,1-.212.091m-4.3-6.577,4.33,5.83,1.751-1.849c-.509-1.027-1.71-4.671-2.348-6.65Z" transform="translate(-364.559 -449.279)" fill="#020202"/>
    <path id="패스_97" data-name="패스 97" d="M445.879,591.481l2.861-.017a5.626,5.626,0,0,0,4.685-2.564l2.828-4.486a2.522,2.522,0,0,0-.948-3.57,11.612,11.612,0,0,0-2.707-1.213c-.588.056-.826,2.845-.826,2.845l-2.548.1s-1.259,5.245-2.367,5.841a4.867,4.867,0,0,0-1.749,1.654.915.915,0,0,0,.772,1.412" transform="translate(-358.255 -466.528)" fill="#020202"/>
    <path id="패스_98" data-name="패스 98" d="M449.956,601.576a.293.293,0,0,1-.043-.582l3.913-.59a2.669,2.669,0,0,0,1.9-1.275l3.457-5.786a.292.292,0,1,1,.5.3l-3.457,5.786a3.25,3.25,0,0,1-2.313,1.553l-3.913.59a.274.274,0,0,1-.044,0" transform="translate(-362.043 -477.449)" fill="#fff"/>
    <path id="패스_99" data-name="패스 99" d="M465.733,608.951a.291.291,0,0,1-.077-.01l-2.18-.595a.293.293,0,0,1,.154-.565l2.18.595a.293.293,0,0,1-.077.575" transform="translate(-372.991 -489.176)" fill="#fff"/>
    <path id="패스_100" data-name="패스 100" d="M462.875,615.672a.293.293,0,0,1-.07-.009l-1.462-.358a.293.293,0,0,1,.139-.569l1.461.358a.293.293,0,0,1-.069.578" transform="translate(-371.268 -494.775)" fill="#fff"/>
    <path id="패스_101" data-name="패스 101" d="M382.574,579.967l-4.994,5.027-2.647-.974,4.6-6.431Z" transform="translate(-301.875 -464.886)" fill="#fff"/>
    <path id="패스_102" data-name="패스 102" d="M376.372,584.079a.3.3,0,0,1-.1-.018l-2.647-.974a.293.293,0,0,1-.137-.446l4.6-6.431a.292.292,0,0,1,.417-.06l3.038,2.378a.293.293,0,0,1,.027.437l-4.994,5.027a.292.292,0,0,1-.207.086m-2.186-1.409,2.111.777,4.629-4.66-2.538-1.987Z" transform="translate(-300.667 -463.678)" fill="#020202"/>
    <path id="패스_103" data-name="패스 103" d="M332.5,605.9a14.418,14.418,0,0,1-.168,4.028,2.2,2.2,0,0,1-2.153,1.715H317.928a.939.939,0,0,1-.6-1.659,24.188,24.188,0,0,1,11.117-5.442l1.375,1.927Z" transform="translate(-255.221 -486.576)" fill="#020202"/>
    <path id="패스_104" data-name="패스 104" d="M336.293,631.353h-12.7a.293.293,0,0,1,0-.586h12.7a.293.293,0,0,1,0,.586" transform="translate(-260.302 -507.683)" fill="#fff"/>
    <path id="패스_105" data-name="패스 105" d="M357.184,613.037a.292.292,0,0,1-.27-.181l-.672-1.634a.292.292,0,1,1,.54-.224l.672,1.634a.293.293,0,0,1-.27.4" transform="translate(-286.807 -491.628)" fill="#fff"/>
    <path id="패스_106" data-name="패스 106" d="M346.608,615.9a.292.292,0,0,1-.277-.2l-.487-1.474a.292.292,0,1,1,.555-.184l.486,1.474a.293.293,0,0,1-.186.37.3.3,0,0,1-.092.015" transform="translate(-278.441 -494.058)" fill="#fff"/>
    <path id="패스_107" data-name="패스 107" d="M421,407.111s-22.823-2.661-29.609,3.224S402.1,441.529,402.1,441.529l5.534-4.112-5.25-17.888,21.1-6Z" transform="translate(-313.863 -327.204)" fill="#020202"/>
    <path id="패스_108" data-name="패스 108" d="M433.685,412.173a55.764,55.764,0,0,1-17.538,2.3,6.186,6.186,0,0,0-5.6,3.374c-2.456,4.825-7.771,13.512-16.429,19.142l-4.135-2.232,10.554-23.8a8.775,8.775,0,0,1,4.994-4.681l20.917-7.684s6.486-1.816,9.666,3.984c.568,1.036,1.622-.816,1.874.02.861,2.866-1.454,8.668-4.3,9.573" transform="translate(-313.992 -320.617)" fill="#020202"/>
    <path id="패스_109" data-name="패스 109" d="M418.463,438.418a.293.293,0,0,1-.267-.412l4.769-10.755a9.115,9.115,0,0,1,5.161-4.837l10.017-3.68a.293.293,0,0,1,.2.55l-10.017,3.68a8.529,8.529,0,0,0-4.828,4.525l-4.769,10.755a.292.292,0,0,1-.267.174" transform="translate(-336.687 -337.027)" fill="#fff"/>
    <path id="패스_110" data-name="패스 110" d="M447.04,551.482a.293.293,0,0,1-.211-.5c.95-.99,1.885-2.053,2.78-3.161a.293.293,0,1,1,.454.368c-.9,1.12-1.851,2.2-2.813,3.2a.291.291,0,0,1-.211.09" transform="translate(-359.696 -440.845)" fill="#fff"/>
    <path id="패스_111" data-name="패스 111" d="M461.39,541.338a.293.293,0,0,1-.227-.477c.44-.545.878-1.11,1.3-1.68a.292.292,0,1,1,.469.35c-.429.576-.871,1.148-1.316,1.7a.291.291,0,0,1-.227.109" transform="translate(-371.25 -433.88)" fill="#fff"/>
    <path id="패스_112" data-name="패스 112" d="M522.721,253.437c-2.615-.616-3.706-.624-13.211-.279-2.323.084-5.087,3.005-5.36,5.318.739,2.218,4.146,13.171-1.8,21.729a18.5,18.5,0,0,1-3.567,3.823,11.954,11.954,0,0,0,4.108,2.2c3.067.912,4.609-.074,7.08,0,6.538.2,8.935,7.489,13.157,6.573,1.128-.245,2.622-1.126,4.023-4.081a45.556,45.556,0,0,0,1.894-8.58,47.132,47.132,0,0,0-2.238-20.762c-.463-1.454-1-5.215-4.083-5.941" transform="translate(-401.589 -203.603)" fill="#09f"/>
    <path id="패스_113" data-name="패스 113" d="M514.1,270.213s1.537-12.347,5.967-13.4l-1.017,16.242Z" transform="translate(-413.923 -206.728)" fill="#09f"/>
    <path id="패스_114" data-name="패스 114" d="M636.145,311.608c.032,1.467.025,2.807-.036,3.9-.388,7.018-1.335,14.405-1.914,20.516-.123,1.294,1.928-.439,4.57-.426a3.344,3.344,0,0,1,2.085.757,19.488,19.488,0,0,1,2.729,2.417h-9.742a2.885,2.885,0,0,1-2.879-2.749L629.653,308.8Z" transform="translate(-506.961 -248.57)" fill="#fff"/>
    <path id="패스_115" data-name="패스 115" d="M642.373,337.854h-9.742a3.174,3.174,0,0,1-3.171-3.028l-1.306-27.214a.292.292,0,0,1,.408-.283l6.492,2.8a.293.293,0,0,1,.177.262c.034,1.551.022,2.869-.036,3.92-.269,4.859-.794,9.788-1.3,14.556-.224,2.1-.435,4.087-.614,5.971a.477.477,0,0,0,0,.156,3.6,3.6,0,0,0,1.083-.267,9.961,9.961,0,0,1,3.163-.635h.032a3.645,3.645,0,0,1,2.267.822c2.956,2.4,2.924,2.49,2.837,2.734a.323.323,0,0,1-.292.2m-13.613-29.8,1.283,26.746a2.589,2.589,0,0,0,2.587,2.471h9.09c-.357-.322-1.022-.892-2.261-1.9a3.063,3.063,0,0,0-1.9-.691,9.348,9.348,0,0,0-3.008.606c-.787.26-1.307.432-1.637.168a.716.716,0,0,1-.215-.669c.179-1.888.39-3.874.614-5.978.507-4.76,1.031-9.682,1.3-14.526.055-.993.068-2.232.039-3.686Zm4.527,26.956h0Z" transform="translate(-505.753 -247.363)" fill="#020202"/>
    <path id="패스_116" data-name="패스 116" d="M629.642,308.58c2.023.858,4.4,1.869,6.493,2.769,0,.026,0,.052,0,.078l-6.493-2.8Z" transform="translate(-506.952 -248.39)" fill="#fff"/>
    <path id="패스_117" data-name="패스 117" d="M634.929,310.512a.289.289,0,0,1-.116-.024l-6.492-2.8a.293.293,0,0,1-.176-.255l0-.044a.292.292,0,0,1,.406-.284c2.514,1.066,4.7,2,6.495,2.77a.292.292,0,0,1,.177.263l0,.078a.293.293,0,0,1-.292.3" transform="translate(-505.744 -247.182)" fill="#020202"/>
    <path id="패스_118" data-name="패스 118" d="M627.02,270.295a99.78,99.78,0,0,0-1.066-10.169c-1.331-5.962-9.043-6.025-9.043-6.025l1.347,15.174Z" transform="translate(-496.701 -204.546)" fill="#09f"/>
    <path id="패스_119" data-name="패스 119" d="M574.195,207.823l-.261-3.71c-.177-.012-.3-.02-.335-.02-1.033-.012-1.369-.347-1.458-1.2a6.352,6.352,0,0,1,.184-2.309.492.492,0,0,0-.021-.318l-.177-.415a.362.362,0,0,1,.119-.372l.094-.077a3.785,3.785,0,0,0,.842-.995c.207-.347.558-1,.8-1.114.679-.325,3.433-1.768,4.972.754,1.2,1.966-.761,4.673-1.474,5.56-.172.214,1.164,4.418,1.164,4.418l1.727.418s-1.333,2.371-5.381,1.39c-2.883-.7-2.425-1.773-2.425-1.773Z" transform="translate(-460.627 -158.261)" fill="#fff"/>
    <path id="패스_120" data-name="패스 120" d="M575.646,209.163a8.211,8.211,0,0,1-1.934-.249c-1.394-.338-2.255-.817-2.56-1.425a.917.917,0,0,1-.065-.747.292.292,0,0,1,.226-.175l1.363-.2-.224-3.184-.065,0c-1.147-.013-1.636-.422-1.745-1.46a6.641,6.641,0,0,1,.191-2.414.2.2,0,0,0-.007-.129l-.177-.415a.328.328,0,0,1-.013-.039.654.654,0,0,1,.216-.674l.094-.077a3.488,3.488,0,0,0,.776-.918l.092-.157a2.807,2.807,0,0,1,.832-1.072l.072-.035c2.421-1.172,4.2-.869,5.276.9,1.24,2.032-.555,4.711-1.446,5.834a36.255,36.255,0,0,0,1.115,4.051l1.568.379a.293.293,0,0,1,.186.428,4.187,4.187,0,0,1-3.77,1.78m-4.014-2.051a.558.558,0,0,0,.057.141c.137.246.6.714,2.16,1.092,2.884.7,4.288-.355,4.81-.926l-1.293-.313a.293.293,0,0,1-.21-.2c-1.383-4.353-1.221-4.556-1.113-4.69.793-.987,2.522-3.471,1.452-5.224-1.351-2.214-3.738-1.058-4.523-.679l-.074.036a3.881,3.881,0,0,0-.579.839l-.095.161a4.062,4.062,0,0,1-.907,1.072l-.094.077a.07.07,0,0,0-.024.057l.165.388a.79.79,0,0,1,.035.507,6.066,6.066,0,0,0-.176,2.2c.071.681.259.925,1.171.935.038,0,.166.008.352.021a.292.292,0,0,1,.271.272l.261,3.71a.293.293,0,0,1-.249.31Z" transform="translate(-459.419 -157.055)" fill="#020202"/>
    <path id="패스_121" data-name="패스 121" d="M580,182.026c-.747-.161-1.6-.046-1.967-.18-.585-.215-.6-.916-1.409-1.113a1.428,1.428,0,0,0-1.769.763,1.647,1.647,0,0,0-.166.329,2.179,2.179,0,0,0,.507,2.721s2.2,1.139,2.578,1.465a2.04,2.04,0,0,1,.5,2.062.312.312,0,0,0,.138.341.293.293,0,0,0,.395-.09c.286-.416.911-1.22,1.356-1.029.559.239.385,1.918-.848,2.111a.807.807,0,0,0-.649.845.82.82,0,0,0,.631.657.843.843,0,0,0,.634-.163c.8-.515,3.075-2.7,3.357-4.654.339-2.357-2.3-3.85-3.292-4.064" transform="translate(-462.519 -145.445)" fill="#020202"/>
    <path id="패스_122" data-name="패스 122" d="M578.937,231.845a.272.272,0,0,1-.01-.544,2.421,2.421,0,0,0,1.294-.479.272.272,0,0,1,.352.415,2.942,2.942,0,0,1-1.626.608h-.01" transform="translate(-465.908 -185.759)" fill="#020202"/>
    <path id="패스_123" data-name="패스 123" d="M273.784,748.207l1.382,5.078,3.171-.281-.685-5.32Z" transform="translate(-220.435 -601.778)" fill="#fff"/>
    <path id="패스_124" data-name="패스 124" d="M273.958,752.371a.292.292,0,0,1-.282-.216l-1.382-5.078a.294.294,0,0,1,.038-.239.291.291,0,0,1,.2-.128l3.868-.522a.29.29,0,0,1,.217.058.293.293,0,0,1,.112.195l.685,5.32a.293.293,0,0,1-.264.329l-3.171.281h-.026m-1.012-5.125,1.23,4.519,2.625-.232-.609-4.726Z" transform="translate(-219.228 -600.57)" fill="#020202"/>
    <path id="패스_125" data-name="패스 125" d="M274.071,769.047c2.329,1.106,8.385,3.782,13.117,4.139a1.43,1.43,0,0,0,1.4-1.883c-1-4.19-11.281-11.245-11.281-11.245l-1.486.5a.932.932,0,0,0-.55,1.267l.307.678-2.382-.2a.95.95,0,0,0-1.032.916,13.906,13.906,0,0,0,.566,4.247,2.52,2.52,0,0,0,1.337,1.581" transform="translate(-219.129 -611.735)" fill="#b2e0ff"/>
    <path id="패스_126" data-name="패스 126" d="M286.093,772.276c-.044,0-.089,0-.134-.005-4.767-.36-10.833-3.034-13.22-4.167a2.815,2.815,0,0,1-1.493-1.765,14.19,14.19,0,0,1-.577-4.337,1.229,1.229,0,0,1,.414-.888,1.25,1.25,0,0,1,.934-.311l1.885.161-.1-.223a1.224,1.224,0,0,1,.723-1.665l1.486-.5a.293.293,0,0,1,.259.036c.424.291,10.387,7.167,11.4,11.419a1.926,1.926,0,0,1-.37,1.693,1.551,1.551,0,0,1-1.205.555M271.91,761.385a.657.657,0,0,0-.657.636,13.588,13.588,0,0,0,.554,4.156,2.229,2.229,0,0,0,1.182,1.4c2.357,1.119,8.344,3.759,13.013,4.112a.989.989,0,0,0,.85-.346,1.337,1.337,0,0,0,.247-1.177c-.9-3.8-9.9-10.187-11.042-10.989l-1.346.455a.639.639,0,0,0-.377.869l.307.678a.293.293,0,0,1-.291.413l-2.382-.2-.058,0" transform="translate(-217.922 -610.529)" fill="#020202"/>
    <path id="패스_127" data-name="패스 127" d="M295.548,800.9a.3.3,0,0,1-.044,0,46.858,46.858,0,0,1-12.61-4.128.293.293,0,0,1,.269-.52,46.228,46.228,0,0,0,12.429,4.069.293.293,0,0,1-.044.582" transform="translate(-227.643 -640.833)" fill="#020202"/>
    <path id="패스_128" data-name="패스 128" d="M322.711,789.643a.293.293,0,0,1-.238-.462l1.469-2.08a.292.292,0,1,1,.477.338l-1.469,2.08a.292.292,0,0,1-.239.124" transform="translate(-259.593 -633.4)" fill="#020202"/>
    <path id="패스_129" data-name="패스 129" d="M308.281,781.647a.293.293,0,0,1-.238-.462l1.846-2.614a.292.292,0,1,1,.477.338l-1.846,2.614a.292.292,0,0,1-.239.124" transform="translate(-247.975 -626.535)" fill="#020202"/>
    <path id="패스_130" data-name="패스 130" d="M198.508,616.153c.863,2.245,3.233,7.947,6.2,11.233a1.329,1.329,0,0,0,2.153-.368c2.013-3.469-.4-14.846-.4-14.846l-1.324-.617a.865.865,0,0,0-1.183.5l-.228.655-1.477-1.67a.884.884,0,0,0-1.284-.046,12.938,12.938,0,0,0-2.341,3.229,2.353,2.353,0,0,0-.111,1.928" transform="translate(-159.703 -491.567)" fill="#b2e0ff"/>
    <path id="패스_131" data-name="패스 131" d="M204.391,626.88a1.473,1.473,0,0,1-1.11-.505c-2.988-3.312-5.368-9.022-6.253-11.324a2.649,2.649,0,0,1,.125-2.168,13.211,13.211,0,0,1,2.4-3.3,1.158,1.158,0,0,1,.864-.338,1.186,1.186,0,0,1,.844.4l1.147,1.3.064-.184a1.158,1.158,0,0,1,1.583-.67l1.324.617a.293.293,0,0,1,.163.2c.1.469,2.415,11.527.369,15.054a1.807,1.807,0,0,1-1.351.914,1.525,1.525,0,0,1-.163.009m-6.817-12.04c.873,2.271,3.219,7.9,6.141,11.141a.889.889,0,0,0,.778.307,1.221,1.221,0,0,0,.906-.626c1.815-3.127-.139-13.176-.406-14.5l-1.191-.555a.573.573,0,0,0-.784.332l-.228.655a.292.292,0,0,1-.495.1l-1.477-1.67a.592.592,0,0,0-.859-.031,12.634,12.634,0,0,0-2.287,3.156,2.062,2.062,0,0,0-.1,1.688" transform="translate(-158.495 -490.359)" fill="#020202"/>
    <path id="패스_132" data-name="패스 132" d="M210.686,644.17a.293.293,0,0,1-.231-.113,43.843,43.843,0,0,1-5.865-10.9.292.292,0,1,1,.552-.191,43.2,43.2,0,0,0,5.774,10.737.293.293,0,0,1-.231.472" transform="translate(-164.711 -509.289)" fill="#020202"/>
    <path id="패스_133" data-name="패스 133" d="M230.731,657.9a.293.293,0,0,1-.056-.58l2.324-.458a.293.293,0,0,1,.113.575l-2.324.458a.278.278,0,0,1-.057.006" transform="translate(-185.537 -528.683)" fill="#020202"/>
    <path id="패스_134" data-name="패스 134" d="M224.717,644.24a.293.293,0,0,1-.056-.58l2.921-.576a.293.293,0,0,1,.113.575l-2.921.576a.282.282,0,0,1-.057.006" transform="translate(-180.695 -517.591)" fill="#020202"/>
    <path id="패스_135" data-name="패스 135" d="M122.248,491.235c.239-.252,17.25-7.614,24.2-9.18s9.872-1.759,11.91,2.4c2.55,5.2-11.4,25.7-11.4,25.7l-29.281-7.646Z" transform="translate(-94.752 -387.172)" fill="#09f"/>
    <path id="패스_136" data-name="패스 136" d="M233.348,514.217a.287.287,0,0,1-.119-.026.293.293,0,0,1-.147-.387,49.044,49.044,0,0,1,9.475-13.673.293.293,0,0,1,.4.423,48.408,48.408,0,0,0-9.346,13.49.292.292,0,0,1-.267.173" transform="translate(-187.643 -402.483)" fill="#fff"/>
    <path id="패스_137" data-name="패스 137" d="M63.028,559.789s-1.352,3.57,2.9,7.778c5.324,5.274,30.285,2.508,30.285,2.508a60.709,60.709,0,0,0,.766,7.457c1.66,8.629,2.5,9.05,6.435,18.905l5.21-.817s-.128-29.206-3.957-33.714-27.942-4.755-27.942-4.755Z" transform="translate(-50.582 -448.438)" fill="#09f"/>
    <path id="패스_138" data-name="패스 138" d="M166.765,563.966a.292.292,0,0,1-.276-.2,13.887,13.887,0,0,0-1.869-3.972c-2.012-2.369-15.154-4.093-26.782-4.917a.293.293,0,0,1,.041-.584c7.306.518,24.579,2.053,27.186,5.122a14.111,14.111,0,0,1,1.976,4.159.292.292,0,0,1-.276.389" transform="translate(-110.761 -446.139)" fill="#fff"/>
    <path id="패스_139" data-name="패스 139" d="M130.907,462.6l7.43-11.5a.729.729,0,0,1,.59-.333l6.625-.2,4.206-3.33,1.214,1.225-7.462,9.72-5.706,4.542Z" transform="translate(-105.399 -359.983)" fill="#fff"/>
    <path id="패스_140" data-name="패스 140" d="M136.6,461.815h-.005l-6.9-.126a.293.293,0,0,1-.24-.452l7.43-11.5a1.02,1.02,0,0,1,.826-.467l6.528-.2,4.13-3.27a.292.292,0,0,1,.389.023l1.214,1.225a.293.293,0,0,1,.024.385l-7.462,9.72a.287.287,0,0,1-.05.051l-5.706,4.542a.293.293,0,0,1-.182.064m-6.366-.7,6.266.114,5.6-4.454,7.284-9.489-.85-.858-4,3.168a.292.292,0,0,1-.172.063l-6.625.2a.437.437,0,0,0-.353.2Z" transform="translate(-104.191 -358.776)" fill="#020202"/>
    <path id="패스_141" data-name="패스 141" d="M135.672,467.153l7.493-11.6a.508.508,0,0,1,.411-.232l6.74-.2,4.488-3.553a.269.269,0,0,1,.393.356l-6.922,10.812-5.706,4.542Z" transform="translate(-109.235 -363.417)" fill="#b2e0ff"/>
    <path id="패스_142" data-name="패스 142" d="M141.362,466.365h-.005l-6.9-.126a.293.293,0,0,1-.24-.452l7.493-11.6a.8.8,0,0,1,.648-.366l6.644-.2,4.412-3.493a.561.561,0,0,1,.82.744l-6.922,10.812a.284.284,0,0,1-.064.071l-5.706,4.542a.293.293,0,0,1-.182.063m-6.366-.7,6.266.114,5.586-4.446,6.819-10.651-4.377,3.465a.292.292,0,0,1-.172.063l-6.74.2a.216.216,0,0,0-.175.1Z" transform="translate(-108.028 -362.21)" fill="#020202"/>
    <path id="패스_143" data-name="패스 143" d="M175.164,483.118a.293.293,0,0,1-.245-.452l6.1-9.442a.292.292,0,1,1,.491.318l-6.1,9.442a.292.292,0,0,1-.246.134" transform="translate(-140.797 -380.786)" fill="#020202"/>
    <path id="패스_144" data-name="패스 144" d="M10.111,447.379s-3.565-4.538-2.781-13.938c.753-9.024,5.466-10.447,8.592-11.556,3.076-1.092,15.476.1,17.168,17.833.027.286-.208,7.956-.186,8.252l-12.99,3.21-.157-6.449Z" transform="translate(-5.811 -339.344)" fill="#fff"/>
    <path id="패스_145" data-name="패스 145" d="M18.7,450.267a.292.292,0,0,1-.292-.286l-.148-6.075-9.285,2.549a.292.292,0,0,1-.307-.1c-.148-.189-3.627-4.737-2.842-14.143.749-8.973,5.433-10.625,8.532-11.718l.253-.089c1.592-.565,5.53-.559,9.319,1.861,3.25,2.076,7.317,6.575,8.237,16.221.014.15-.02,1.525-.1,4.408-.046,1.731-.1,3.694-.089,3.851a.3.3,0,0,1-.222.3l-12.99,3.21a.3.3,0,0,1-.07.008m-.157-7.035a.292.292,0,0,1,.292.286l.149,6.085L31.4,446.535c.006-.488.036-1.667.089-3.657.049-1.853.11-4.16.1-4.34-.9-9.408-4.829-13.774-7.969-15.78-3.421-2.185-7.211-2.369-8.81-1.8l-.254.09c-3.134,1.105-7.427,2.619-8.144,11.215-.686,8.217,2.021,12.709,2.609,13.577l9.448-2.594a.291.291,0,0,1,.077-.01" transform="translate(-4.598 -338.138)" fill="#020202"/>
    <path id="패스_146" data-name="패스 146" d="M66.7,499.063a.293.293,0,0,1-.287-.237l-1.695-8.665a.292.292,0,1,1,.574-.113l1.7,8.665a.292.292,0,0,1-.287.349" transform="translate(-52.104 -394.244)" fill="#020202"/>
    <path id="패스_147" data-name="패스 147" d="M59.595,505.165c.663-.226,1.276.22.8.825a15.165,15.165,0,0,1-2.471,1.707c-.071.044-.042.178.039.16a9.846,9.846,0,0,1,4.17-.319.859.859,0,0,1,.618,1.014c-.679,3.237-7.353,2.87-8.134,2.963-.641.077-4.839,3.945-4.839,3.945a24.333,24.333,0,0,1-6.327,4.477c-3.8,1.9-5.207-4.545-5.592-6.149,0,0,11.953-3.26,16.153-5.35a7.181,7.181,0,0,0,1.524-1.036,11.308,11.308,0,0,1,4.056-2.236" transform="translate(-30.484 -406.551)" fill="#fff"/>
    <path id="패스_148" data-name="패스 148" d="M40.915,519.371a2.545,2.545,0,0,1-1.092-.246c-2.155-1.01-3.072-4.87-3.417-6.323l-.036-.152a.293.293,0,0,1,.207-.351c.119-.032,11.973-3.277,16.1-5.33a6.922,6.922,0,0,0,1.462-.994,11.514,11.514,0,0,1,4.154-2.293,1.072,1.072,0,0,1,1.228.284.812.812,0,0,1-.1,1,7.423,7.423,0,0,1-1.56,1.171A8.2,8.2,0,0,1,61,506.048a1.147,1.147,0,0,1,.833,1.358c-.636,3.03-5.846,3.134-7.808,3.173-.272.006-.487.01-.577.021a34.707,34.707,0,0,0-4.676,3.87,24.86,24.86,0,0,1-6.394,4.524,3.275,3.275,0,0,1-1.461.377M37,512.79c.323,1.355,1.226,4.942,3.067,5.8a2.241,2.241,0,0,0,2.045-.126,24.278,24.278,0,0,0,6.247-4.419c1.3-1.194,4.352-3.953,5.015-4.032.119-.014.324-.018.635-.025,1.659-.033,6.707-.134,7.248-2.708a.563.563,0,0,0-.4-.67,9.579,9.579,0,0,0-4.035.321.35.35,0,0,1-.4-.216.393.393,0,0,1,.148-.478l.214-.13a13.456,13.456,0,0,0,2.182-1.51c.047-.06.148-.208.084-.3a.532.532,0,0,0-.563-.069,10.963,10.963,0,0,0-3.958,2.179,7.489,7.489,0,0,1-1.587,1.078c-3.875,1.929-14.085,4.786-15.933,5.3m21.383-8.83h0Z" transform="translate(-29.277 -405.346)" fill="#020202"/>
    <path id="패스_149" data-name="패스 149" d="M46.286,381.972c-.049.09-1.545,4.253-2.273,5.789a5.816,5.816,0,0,1-1.767,2.162l-1.4,1.051a10.749,10.749,0,0,0,3.883,1.718,11.865,11.865,0,0,0,4.672.283,3.816,3.816,0,0,0-1.649-2.106c.639-1.1,2.174-5.408,2.813-6.508Z" transform="translate(-32.885 -307.455)" fill="#fff"/>
    <path id="패스_150" data-name="패스 150" d="M46.552,392.177a12.084,12.084,0,0,1-3.107-.407A11.165,11.165,0,0,1,39.46,390a.293.293,0,0,1,0-.468l1.4-1.052a5.545,5.545,0,0,0,1.678-2.053c.548-1.156,1.535-3.813,2.009-5.09.241-.649.253-.679.272-.714a.292.292,0,0,1,.4-.115L49.5,382.9a.293.293,0,0,1,.11.4c-.309.532-.857,1.9-1.388,3.216-.493,1.227-.963,2.4-1.293,3.048a4.1,4.1,0,0,1,1.544,2.114.293.293,0,0,1-.238.379,12.2,12.2,0,0,1-1.68.117m-6.42-2.414a11.361,11.361,0,0,0,3.463,1.441,11.5,11.5,0,0,0,4.194.321,3.52,3.52,0,0,0-1.4-1.611.293.293,0,0,1-.1-.4c.309-.532.857-1.9,1.388-3.216.489-1.216.954-2.373,1.284-3.029l-3.731-2.086-.133.357c-.477,1.285-1.47,3.958-2.029,5.137a6.131,6.131,0,0,1-1.855,2.271Z" transform="translate(-31.678 -306.248)" fill="#020202"/>
    <path id="패스_151" data-name="패스 151" d="M73.059,347.6c-1.636-.87-3.047.67-4.971-.413-.882-.5-1.074-1.1-2.047-1.267a2.632,2.632,0,0,0-2.337.623c-.761.87.118,1.809-.127,4.362-.172,1.793-.734,2.672-.215,3.183s1.374-.11,1.989.412c.8.676-.106,2.168.483,3.23.373.672,1.595,1.465,4.164,1.409a.832.832,0,0,0,.805-.7c.086-.528.192-1.2.239-1.855.22-3.061-.443-4.081.206-4.6.993-.8,2.689.7,3.4,0,.744-.729.086-3.493-1.595-4.387" transform="translate(-50.843 -278.402)" fill="#020202"/>
    <path id="패스_152" data-name="패스 152" d="M85.274,366.72l.453.794a33.623,33.623,0,0,0-.54,3.949c.009,1.051,3.26,1.268,3.26,1.268l.363-.911.706-.109a.244.244,0,0,0,.2-.3,11.135,11.135,0,0,1-.29-3.354,1.329,1.329,0,0,0-.845-1.332,4.451,4.451,0,0,0-3.309-.006" transform="translate(-68.587 -294.927)" fill="#fff"/>
    <path id="패스_153" data-name="패스 153" d="M87.24,371.819h-.02c-.588-.039-3.521-.3-3.533-1.558a31.191,31.191,0,0,1,.525-3.9l-.4-.7a.293.293,0,0,1,.149-.419,4.747,4.747,0,0,1,3.522.007,1.613,1.613,0,0,1,1.028,1.627,10.88,10.88,0,0,0,.283,3.262.538.538,0,0,1-.441.658l-.541.083-.3.756a.293.293,0,0,1-.271.184M84.5,365.677l.278.487a.293.293,0,0,1,.033.2,33.585,33.585,0,0,0-.535,3.892c0,.48,1.551.852,2.776.962l.284-.711a.292.292,0,0,1,.227-.181l.656-.1a11.478,11.478,0,0,1-.285-3.4,1.03,1.03,0,0,0-.661-1.036,4.156,4.156,0,0,0-2.772-.116" transform="translate(-67.38 -293.721)" fill="#020202"/>
    <path id="패스_154" data-name="패스 154" d="M76.987,373.814s-.158-2.005-.95-1.777-.57,2.434.95,1.777" transform="translate(-60.86 -299.445)" fill="#fff"/>
    <path id="패스_155" data-name="패스 155" d="M671.884,335.556a2.749,2.749,0,0,0,1.4-1.144c.468-.791.714-2.061-.363-3.885-2.432-4.119-6.436-2.2-7.976-2.689-3.451-1.087-2.648-2.831-4.058-4.539-1.055-1.278-4.685-3.7-10.145.735,0,0-2.445,3.146-5.247,1.925-3.442-1.5-10.319,1.8-8.105,6.786a6.172,6.172,0,0,0,3.161,3.153c.251.11.525.217.823.315a2.677,2.677,0,0,1,1.754,1.94c.722,3.032,3.418,8.893,13.239,3.074a2.606,2.606,0,0,1,2.394-.149c.947.418,1.984,2.023,6.537,1.377,2.925-.415,3.833-3.611,4.6-5.063a3.809,3.809,0,0,1,1.992-1.835" transform="translate(-512.842 -258.772)" fill="#020202"/>
    <path id="패스_156" data-name="패스 156" d="M548.913,433.316c3.432,1.654,10.088-1.726,11.275-7.025a17.2,17.2,0,0,1,2.982-7.037,5.334,5.334,0,0,1,1.1-1.319c3.385-2.981,9.249-2.016,11.786-1.6,2.878.474,5.263.866,6.884,2.7a5.029,5.029,0,0,1,.946,1.536v0c3.1,5.844.587,11.878-.962,14.665-.255,11.176,4.161,14.534,1.253,18.674-3.148,4.481-10.932,4.256-15.02,3.363-1.434-.313-9.473-2.25-11.309-8.054-1.071-3.387.965-4.951,2.762-10.713-9.208,5.734-14.969-5.022-14.969-5.022l-.272-2.668s.107.851,3.539,2.5" transform="translate(-439.104 -334.72)" fill="#b2e0ff"/>
    <path id="패스_157" data-name="패스 157" d="M573.026,456.892a24.7,24.7,0,0,1-5.128-.538c-2.247-.491-9.718-2.536-11.526-8.252-.733-2.318-.061-3.858.957-6.188.462-1.058,1.023-2.343,1.569-3.973a9.265,9.265,0,0,1-7.019,1.044c-4.818-1.29-7.578-6.353-7.693-6.568a.293.293,0,0,1-.033-.109l-.272-2.668.581-.066a.09.09,0,0,0,0-.026c0,.008.279.81,3.381,2.3,1.391.67,3.446.476,5.5-.518a9.785,9.785,0,0,0,5.366-6.307,17.557,17.557,0,0,1,3.026-7.14,5.616,5.616,0,0,1,1.152-1.372c3.489-3.072,9.471-2.088,12.026-1.667,2.879.474,5.365.883,7.056,2.79a5.31,5.31,0,0,1,.99,1.6c3.09,5.838.762,11.8-.933,14.873a37.833,37.833,0,0,0,1.487,11.334c.8,3.089,1.331,5.129-.286,7.43-2.18,3.1-6.394,4.019-10.193,4.019m-13.613-19.885a.293.293,0,0,1,.279.38,43.871,43.871,0,0,1-1.827,4.761c-1,2.288-1.6,3.669-.935,5.777,1.757,5.555,9.549,7.52,11.092,7.857,3.73.814,11.606,1.184,14.719-3.246,1.461-2.079.985-3.911.2-6.946a38.839,38.839,0,0,1-1.5-11.567.288.288,0,0,1,.037-.136c1.638-2.949,3.94-8.733.971-14.362a.281.281,0,0,1-.027-.053,4.73,4.73,0,0,0-.892-1.448c-1.553-1.752-3.83-2.127-6.713-2.6-2.473-.407-8.264-1.36-11.545,1.529a5.03,5.03,0,0,0-1.044,1.247.279.279,0,0,1-.025.037,16.905,16.905,0,0,0-2.924,6.916,10.38,10.38,0,0,1-5.681,6.706c-2.21,1.072-4.455,1.266-6.006.518a13.813,13.813,0,0,1-3.023-1.832l.167,1.641c.3.524,2.976,5.074,7.305,6.231a8.977,8.977,0,0,0,7.225-1.368.292.292,0,0,1,.154-.044" transform="translate(-437.903 -333.519)" fill="#020202"/>
    <path id="패스_158" data-name="패스 158" d="M589.792,457.493s-6.63-2.421-8.7-6.848l-4.268-3.984a3.689,3.689,0,0,0,1.328,2.73s-1.088,2.195.517,3.71a4.813,4.813,0,0,0,1.921.976s2.1,6.916,7.776,8.976a10.121,10.121,0,0,0,1.425-5.559" transform="translate(-464.426 -359.516)" fill="#fff"/>
    <path id="패스_159" data-name="패스 159" d="M587.159,462.139a.289.289,0,0,1-.1-.018c-5.294-1.921-7.512-7.837-7.9-8.982a5.564,5.564,0,0,1-1.883-1.015l-.018-.016a3.493,3.493,0,0,1-.676-3.819,4.1,4.1,0,0,1-1.261-2.824.292.292,0,0,1,.491-.224l4.268,3.984a.293.293,0,0,1,.065.09c1.994,4.264,8.471,6.673,8.536,6.7a.294.294,0,0,1,.192.259,10.323,10.323,0,0,1-1.473,5.735.291.291,0,0,1-.244.132m-9.506-10.466a4.272,4.272,0,0,0,1.737.9.292.292,0,0,1,.272.207c.021.067,2.071,6.617,7.372,8.7a9.988,9.988,0,0,0,1.267-4.993c-1.11-.434-6.707-2.788-8.657-6.877l-3.61-3.37a2.754,2.754,0,0,0,1.066,1.692.293.293,0,0,1,.105.378,2.987,2.987,0,0,0,.447,3.358" transform="translate(-463.218 -358.31)" fill="#020202"/>
    <path id="패스_160" data-name="패스 160" d="M645.231,528.709a19.389,19.389,0,0,1-6.781-1.29.293.293,0,0,1,.2-.549c9.333,3.469,14.939-1.353,14.994-1.4a.293.293,0,0,1,.387.438,14.072,14.072,0,0,1-8.8,2.8" transform="translate(-513.89 -422.88)" fill="#020202"/>
    <path id="패스_161" data-name="패스 161" d="M649.854,456.65a13.658,13.658,0,0,1-1.384-.072.293.293,0,0,1,.06-.583,9.944,9.944,0,0,0,10.051-4.856,16.856,16.856,0,0,0,2.23-5.73.292.292,0,1,1,.578.089,17.133,17.133,0,0,1-2.3,5.94,10.563,10.563,0,0,1-9.229,5.211" transform="translate(-521.9 -358.31)" fill="#020202"/>
    <path id="패스_162" data-name="패스 162" d="M520.283,472.032l13.078,15.224-6.537,1.027-13.458-14.734Z" transform="translate(-413.333 -379.935)" fill="#fff"/>
    <path id="패스_163" data-name="패스 163" d="M525.618,487.368a.291.291,0,0,1-.216-.1l-13.458-14.734a.293.293,0,0,1,.153-.484l6.916-1.517a.292.292,0,0,1,.284.1l13.078,15.224a.293.293,0,0,1-.176.48l-6.537,1.027a.293.293,0,0,1-.045,0m-12.9-14.85,13.01,14.243,5.863-.922-12.622-14.692Z" transform="translate(-412.126 -378.727)" fill="#020202"/>
    <path id="패스_164" data-name="패스 164" d="M538.961,496.095a9.829,9.829,0,0,1-3.124-1.943c-.919-1.077-.024-4.811-.024-4.811Z" transform="translate(-431.092 -393.865)" fill="#fff"/>
    <path id="패스_165" data-name="패스 165" d="M537.748,495.179a.29.29,0,0,1-.107-.02,9.97,9.97,0,0,1-3.239-2.026c-.988-1.156-.182-4.672-.087-5.069a.292.292,0,0,1,.255-.223.289.289,0,0,1,.294.168l3.148,6.754a.293.293,0,0,1-.265.417m-3.038-6.118c-.216,1.244-.391,3.074.137,3.692a7.638,7.638,0,0,0,2.307,1.55Z" transform="translate(-429.878 -392.656)" fill="#020202"/>
    <path id="패스_166" data-name="패스 166" d="M635.553,444.687a.293.293,0,0,1-.289-.251c-.9-6.155,1.86-9.559,1.978-9.7a.293.293,0,0,1,.449.374c-.031.038-2.707,3.365-1.849,9.242a.293.293,0,0,1-.29.335" transform="translate(-511.334 -349.833)" fill="#020202"/>
    <path id="패스_167" data-name="패스 167" d="M643.5,381.18a42.431,42.431,0,0,0-.057-4.433c.528.776,2.266-.142,3.831-.2s1.038,2.293,1.038,2.293.458-1.6,1.436-.6c.567.581-.058,1.33-.641,1.82.16.182,2.98,3.227,4.706,5.037l-3.83,2.912-1.918-1.794.391-.624a1.5,1.5,0,0,0,.066-1.472l-.938-1.592a4.246,4.246,0,0,1-.738.735,1.2,1.2,0,0,1-1.561-.126,4.455,4.455,0,0,1-1.218-1.857Z" transform="translate(-518.062 -303.085)" fill="#fff"/>
    <path id="패스_168" data-name="패스 168" d="M648.8,387.094a.291.291,0,0,1-.2-.079l-1.918-1.794a.294.294,0,0,1-.048-.37l.391-.624a1.209,1.209,0,0,0,.053-1.184l-.723-1.228a3.439,3.439,0,0,1-.525.477,1.5,1.5,0,0,1-1.93-.155,4.859,4.859,0,0,1-1.238-1.81l-.395-.067a.293.293,0,0,1-.24-.332,25.2,25.2,0,0,0-.035-3.655c-.052-.937-.052-.937.171-1.013a.3.3,0,0,1,.338.114c.222.327.991.15,1.8-.038a9.858,9.858,0,0,1,1.774-.294,1.24,1.24,0,0,1,1.049.426,1.9,1.9,0,0,1,.372,1.081.853.853,0,0,1,.259-.116,1.048,1.048,0,0,1,1.014.393,1.011,1.011,0,0,1,.305.769,2.009,2.009,0,0,1-.739,1.277c.7.759,3.036,3.276,4.5,4.814a.293.293,0,0,1-.035.436l-3.831,2.913a.29.29,0,0,1-.176.06m-1.542-2.136,1.562,1.461,3.374-2.565c-1.716-1.805-4.312-4.607-4.489-4.809a.293.293,0,0,1,.031-.417,1.852,1.852,0,0,0,.759-1.06.425.425,0,0,0-.139-.331c-.125-.128-.305-.273-.452-.235-.234.059-.434.5-.494.709a.292.292,0,0,1-.566-.145,2.46,2.46,0,0,0-.165-1.722.665.665,0,0,0-.577-.215,9.246,9.246,0,0,0-1.666.279,4.288,4.288,0,0,1-1.869.181c0,.05.006.1.008.153a30.276,30.276,0,0,1,.062,3.489l.3.051a.292.292,0,0,1,.23.2,4.145,4.145,0,0,0,1.141,1.731.912.912,0,0,0,1.192.1,3.855,3.855,0,0,0,.68-.681.292.292,0,0,1,.477.038l.938,1.592a1.805,1.805,0,0,1-.07,1.777Z" transform="translate(-516.869 -301.878)" fill="#020202"/>
    <path id="패스_169" data-name="패스 169" d="M665.031,405.05l-.3.419Z" transform="translate(-535.204 -326.028)" fill="#fff"/>
    <path id="패스_170" data-name="패스 170" d="M663.525,404.555a.293.293,0,0,1-.237-.463l.3-.419a.292.292,0,1,1,.475.341l-.3.419a.293.293,0,0,1-.238.122" transform="translate(-533.997 -324.821)" fill="#020202"/>
    <path id="패스_171" data-name="패스 171" d="M487.921,723.774c.038.156-1.8,8.569-1.8,8.569l4.218-.708,1.271-7.112Z" transform="translate(-391.399 -582.534)" fill="#fff"/>
    <path id="패스_172" data-name="패스 172" d="M484.916,731.428a.293.293,0,0,1-.286-.355c.7-3.213,1.75-8.1,1.791-8.5a.292.292,0,0,1,.35-.293l3.691.749a.293.293,0,0,1,.23.339l-1.271,7.112a.292.292,0,0,1-.24.237l-4.218.707a.3.3,0,0,1-.048,0m2.034-8.515c-.119.682-.5,2.553-1.657,7.862l3.589-.6,1.184-6.627Z" transform="translate(-390.191 -581.327)" fill="#020202"/>
    <path id="패스_173" data-name="패스 173" d="M472.953,751.118a1.82,1.82,0,0,0-1.1-.449,1.753,1.753,0,0,0-1.644,1.064,43.144,43.144,0,0,0-3.205,9.873c-.193,1.31.794,2.376,2.332,1.518a18.839,18.839,0,0,0,7.847-9.409,1.73,1.73,0,0,0-.21-1.639,8.245,8.245,0,0,0-1.108-1.252,1.152,1.152,0,0,0-1.5-.024l-.4.326a.793.793,0,0,1-1.018-.007" transform="translate(-375.989 -604.069)" fill="#09f"/>
    <path id="패스_174" data-name="패스 174" d="M470.766,772.526h-.021a.293.293,0,0,1-.282-.3.288.288,0,0,1,.3-.282h0c.061,0,3.528-.08,7.77-8.478a.292.292,0,1,1,.522.264c-4.338,8.588-7.95,8.8-8.289,8.8" transform="translate(-378.79 -614.346)" fill="#020202"/>
    <path id="패스_175" data-name="패스 175" d="M476.414,780.8a.291.291,0,0,1-.107-.021l-2-.79a.293.293,0,0,1,.215-.545l2,.79a.293.293,0,0,1-.107.565" transform="translate(-381.736 -627.325)" fill="#020202"/>
    <path id="패스_176" data-name="패스 176" d="M478.581,772.432a.29.29,0,0,1-.106-.02l-2.345-.914a.293.293,0,0,1,.212-.546l2.345.914a.293.293,0,0,1-.106.566" transform="translate(-383.203 -620.487)" fill="#020202"/>
    <path id="패스_177" data-name="패스 177" d="M588.49,724.083c.1.126,1.964,8.532,1.964,8.532l3.53-2.418-1.831-6.989Z" transform="translate(-473.819 -582.079)" fill="#fff"/>
    <path id="패스_178" data-name="패스 178" d="M589.246,731.7a.292.292,0,0,1-.285-.229c-.712-3.21-1.81-8.085-1.942-8.467a.293.293,0,0,1,.2-.413l3.663-.875a.292.292,0,0,1,.35.211l1.831,6.988a.293.293,0,0,1-.118.316l-3.53,2.418a.293.293,0,0,1-.165.051m-1.6-8.61c.178.669.617,2.527,1.8,7.831l3-2.057-1.706-6.512Z" transform="translate(-472.611 -580.872)" fill="#020202"/>
    <path id="패스_179" data-name="패스 179" d="M593.849,747.364a1.821,1.821,0,0,0-1.183.054,1.756,1.756,0,0,0-1.045,1.658,43.169,43.169,0,0,0,1.234,10.308c.375,1.27,1.718,1.821,2.753.395a18.87,18.87,0,0,0,3.173-11.842,1.728,1.728,0,0,0-.878-1.4,8.2,8.2,0,0,0-1.53-.67,1.153,1.153,0,0,0-1.373.611l-.223.463a.793.793,0,0,1-.927.422" transform="translate(-476.339 -600.275)" fill="#09f"/>
    <path id="패스_180" data-name="패스 180" d="M601.909,767.713a.293.293,0,0,1-.116-.562c.047-.022,3.168-1.546,3.494-10.965a.3.3,0,0,1,.3-.283.293.293,0,0,1,.282.3c-.342,9.894-3.706,11.423-3.849,11.484a.292.292,0,0,1-.113.023" transform="translate(-484.387 -608.392)" fill="#020202"/>
    <path id="패스_181" data-name="패스 181" d="M593.407,786.411a.293.293,0,0,1-.017-.585l2.146-.125a.293.293,0,0,1,.034.585l-2.146.125h-.017" transform="translate(-477.543 -632.372)" fill="#020202"/>
    <path id="패스_182" data-name="패스 182" d="M591.488,777.8a.293.293,0,0,1-.018-.585l2.512-.158a.293.293,0,0,1,.036.585l-2.511.158h-.019" transform="translate(-475.997 -625.415)" fill="#020202"/>
    <path id="패스_183" data-name="패스 183" d="M529.236,556.989s-25.684-1.117-28.491,1.5c-3.809,3.543-10.352,33.04-10.352,33.04l6.318,1.774s9.519-24.207,11.877-24.207,24.6-.795,24.6-.795Z" transform="translate(-394.836 -448.116)" fill="#020202"/>
    <path id="패스_184" data-name="패스 184" d="M572.164,554.646a4.225,4.225,0,0,1,4.322,3.234c.74,3.066,1.381,7.259-.276,8.376-2.7,1.817-22.125,1.662-21.451,1.435S556.5,584,556.5,590.363l-6.117.237s-9.749-25.577-8.7-28.433c1.88-5.109,16.352-6.28,20.983-6.963.622-.092,5.9-.373,9.5-.557" transform="translate(-436.066 -446.417)" fill="#020202"/>
    <path id="패스_185" data-name="패스 185" d="M543.411,581.159a.292.292,0,0,1-.278-.2q-.33-1.032-.653-2.028c-1.81-5.6-3.239-10.028-2.577-12.03,1.249-3.776,8.932-5.381,14.6-6.26a.293.293,0,0,1,.089.579c-3.18.493-12.855,1.992-14.136,5.866-.6,1.82.872,6.383,2.578,11.665q.321,1,.653,2.03a.293.293,0,0,1-.189.368.29.29,0,0,1-.089.014" transform="translate(-434.566 -451.241)" fill="#caddff"/>
    <path id="패스_188" data-name="패스 188" d="M658.328,214.076a1.632,1.632,0,0,1-.478-3.192,1.632,1.632,0,1,1,.478,3.192m0-2.679a1.046,1.046,0,1,0,.3,2.047,1.047,1.047,0,0,0-.3-2.047" transform="translate(-528.736 -169.707)" fill="#020202"/>
    <path id="패스_189" data-name="패스 189" d="M674.585,190.411a.292.292,0,0,1-.237-.122l-1.577-2.2a.293.293,0,0,1,.19-.46c1.242-.2,2.51-.3,2.522-.3a.29.29,0,0,1,.256.115.294.294,0,0,1,.041.278l-.921,2.5a.293.293,0,0,1-.235.189l-.039,0m-1.062-2.28.978,1.367.57-1.552c-.377.037-.946.1-1.549.185" transform="translate(-541.633 -150.801)" fill="#020202"/>
    <path id="패스_190" data-name="패스 190" d="M608.311,67.052a.292.292,0,0,1-.292-.292c0-.53,0-1.036.006-1.524.029-4.1.048-6.8-2.747-11.143-3.322-5.159-8.447-9.233-15.231-12.109a.293.293,0,0,1,.228-.539c6.894,2.922,12.107,7.071,15.494,12.331,2.889,4.488,2.869,7.414,2.841,11.465,0,.486-.007.991-.006,1.519a.293.293,0,0,1-.292.293Z" transform="translate(-474.928 -33.383)" fill="#020202"/>
    <path id="패스_191" data-name="패스 191" d="M618.613,88.066a.293.293,0,0,1-.292-.292c0-.53,0-1.036.006-1.524.029-4.1.048-6.8-2.747-11.143a29.88,29.88,0,0,0-9.14-8.922.293.293,0,0,1,.315-.493,30.461,30.461,0,0,1,9.316,9.1c2.89,4.488,2.869,7.414,2.841,11.465,0,.486-.007.991-.006,1.519a.292.292,0,0,1-.292.293Z" transform="translate(-488.162 -52.878)" fill="#020202"/>
    <path id="패스_192" data-name="패스 192" d="M388.643,701.53a.293.293,0,0,1-.211-.5l.92-.963a.293.293,0,0,1,.422.405l-.92.963a.292.292,0,0,1-.211.09" transform="translate(-312.678 -563.386)" fill="#020202"/>
    <path id="패스_193" data-name="패스 193" d="M372.121,718.8a.293.293,0,0,1-.211-.5l.92-.963a.293.293,0,1,1,.422.4l-.92.963a.291.291,0,0,1-.211.091" transform="translate(-299.375 -577.284)" fill="#020202"/>
    <path id="패스_194" data-name="패스 194" d="M372.894,701.964a.292.292,0,0,1-.205-.084l-.934-.922a.293.293,0,0,1,.41-.417l.934.922a.293.293,0,0,1-.205.5" transform="translate(-299.246 -563.769)" fill="#020202"/>
    <path id="패스_195" data-name="패스 195" d="M389.666,718.493a.291.291,0,0,1-.205-.084l-.934-.922a.293.293,0,0,1,.41-.417l.934.922a.293.293,0,0,1-.205.5" transform="translate(-312.75 -577.071)" fill="#020202"/>
    <path id="패스_196" data-name="패스 196" d="M423.969,678.92a2.042,2.042,0,0,1-.743-.141,2.086,2.086,0,0,1-1.164-1.131,2.145,2.145,0,0,1,1.066-2.8,2.033,2.033,0,0,1,1.583-.041,2.085,2.085,0,0,1,1.164,1.131,2.145,2.145,0,0,1-1.066,2.8,2.04,2.04,0,0,1-.84.182m-.6-3.535a1.557,1.557,0,0,0-.768,2.032,1.5,1.5,0,0,0,.839.817,1.451,1.451,0,0,0,1.132-.03,1.557,1.557,0,0,0,.769-2.032,1.506,1.506,0,0,0-.839-.817,1.453,1.453,0,0,0-1.132.03" transform="translate(-339.679 -543.015)" fill="#020202"/>
  </g>
</svg>
