<svg xmlns="http://www.w3.org/2000/svg" width="34" height="46" viewBox="0 0 34 46">
  <g id="그룹_315" data-name="그룹 315" transform="translate(-4071 -1326)">
    <path id="패스_530" data-name="패스 530" d="M4072,1364.3a3.853,3.853,0,0,1,3.879-3.826H4104V1327h-28.121a3.853,3.853,0,0,0-3.879,3.826V1364.3m7.758,0v6.7l3.878-2.551,3.879,2.551v-6.7Z" fill="#b2e0ff"/>
    <path id="패스_531" data-name="패스 531" d="M4076.848,1356.652v-25.826m2.91,33.478v6.7l3.878-2.551,3.879,2.551v-6.7Zm7.757,3.826H4104m-.97,0V1360.6m-23.272,7.532h-3.879a3.826,3.826,0,1,1,0-7.652H4104V1327h-28.121a3.853,3.853,0,0,0-3.879,3.826V1364.3" fill="none" stroke="#343434" stroke-linecap="round" stroke-linejoin="round" stroke-width="2"/>
  </g>
</svg>
