<svg xmlns="http://www.w3.org/2000/svg" width="67" height="45.991" viewBox="0 0 67 45.991">
  <g id="그룹_308" data-name="그룹 308" transform="translate(-3975.518 -1325.619)">
    <path id="패스_523" data-name="패스 523" d="M3982.171,1334.583v30.442l18.369-3.409,8.478,2.981,8.652-3.353,18.546,4.014-.353-30.89,5.655-.058v36.3l-25.435-2.792-2.826,2.792h-8.478l-2.826-2.792-25.435,2.792v-36.3l5.649.058" fill="#b2e0ff"/>
    <path id="패스_524" data-name="패스 524" d="M4035.863,1334.367l5.655-.058v36.3l-25.434-2.793-2.826,2.793h-8.479l-2.826-2.793-25.435,2.793v-36.3l5.649.058m26.851,30.658c7.066-6.981,16.957,0,26.848,0v-36.3c-9.891,0-19.782-5.584-26.848,1.4v34.9c-7.065-6.981-16.956,0-26.847,0v-34.9c9.891,0,19.782-6.981,26.847,0m-18.369,9.773h9.891m-9.891,5.584h9.891m-9.891,5.585h5.652m21.9-11.111h9.891m-9.891,5.584h9.891m-9.891,5.585h5.652" fill="none" stroke="#343434" stroke-linecap="round" stroke-linejoin="round" stroke-width="2"/>
  </g>
</svg>
