<svg xmlns="http://www.w3.org/2000/svg" xmlns:xlink="http://www.w3.org/1999/xlink" width="24" height="33" viewBox="0 0 24 33">
  <defs>
    <clipPath id="clip-path">
      <rect id="사각형_93" data-name="사각형 93" width="24" height="33" transform="translate(0 -1)" fill="none"/>
    </clipPath>
  </defs>
  <g id="그룹_188" data-name="그룹 188" transform="translate(0 1)">
    <g id="그룹_187" data-name="그룹 187" clip-path="url(#clip-path)">
      <rect id="사각형_91" data-name="사각형 91" width="22.5" height="16.727" rx="2" transform="translate(0.75 14.545)" fill="#b2e0ff"/>
      <rect id="사각형_92" data-name="사각형 92" width="22.5" height="16.727" rx="2" transform="translate(0.75 14.545)" fill="none" stroke="#343434" stroke-linejoin="round" stroke-width="2"/>
      <path id="패스_314" data-name="패스 314" d="M6,14.818V8.273A7.389,7.389,0,0,1,13.5,1,7.389,7.389,0,0,1,21,8.273v6.545" transform="translate(-1.5 -0.273)" fill="none" stroke="#343434" stroke-linejoin="round" stroke-width="2"/>
      <path id="패스_315" data-name="패스 315" d="M14.28,25.082a2.93,2.93,0,0,0-2.188,2.1A2.864,2.864,0,0,0,13.5,30.415V33a1.5,1.5,0,0,0,3,0V30.415A2.884,2.884,0,0,0,18,27.909a2.984,2.984,0,0,0-3.72-2.828" transform="translate(-3 -6.818)" fill="#fff"/>
      <path id="패스_316" data-name="패스 316" d="M14.28,25.082a2.93,2.93,0,0,0-2.188,2.1A2.864,2.864,0,0,0,13.5,30.415V33a1.5,1.5,0,0,0,3,0V30.415A2.884,2.884,0,0,0,18,27.909,2.984,2.984,0,0,0,14.28,25.082Z" transform="translate(-3 -6.818)" fill="none" stroke="#343434" stroke-linejoin="round" stroke-width="2"/>
    </g>
  </g>
</svg>
