<svg xmlns="http://www.w3.org/2000/svg" xmlns:xlink="http://www.w3.org/1999/xlink" width="32" height="32" viewBox="0 0 32 32">
  <defs>
    <clipPath id="clip-path">
      <rect id="사각형_94" data-name="사각형 94" width="32" height="32" fill="none"/>
    </clipPath>
  </defs>
  <g id="그룹_189" data-name="그룹 189" clip-path="url(#clip-path)">
    <path id="패스_317" data-name="패스 317" d="M15.342,1A14.327,14.327,0,0,0,4.555,24.772l6.757-1.941a1.6,1.6,0,0,0,1.162-1.367v-1.1c-2.151-.65-2.273-2.614-2.273-4.3a3.534,3.534,0,0,1-.839-.717,9.383,9.383,0,0,1-.7-2.926l.946-.66V9.864a5.544,5.544,0,0,1,5.737-5.277,5.544,5.544,0,0,1,5.737,5.277v1.892l.946.66a9.383,9.383,0,0,1-.7,2.926,3.534,3.534,0,0,1-.839.717c0,1.688-.122,3.653-2.273,4.3v1.1a1.6,1.6,0,0,0,1.162,1.367L26.008,24.9A14.325,14.325,0,0,0,15.342,1" transform="translate(0.658 0.658)" fill="#b2e0ff"/>
    <path id="패스_318" data-name="패스 318" d="M15.342,1A14.327,14.327,0,0,0,4.555,24.772l6.757-1.941a1.6,1.6,0,0,0,1.162-1.367v-1.1c-2.151-.65-2.273-2.614-2.273-4.3a3.534,3.534,0,0,1-.839-.717,9.383,9.383,0,0,1-.7-2.926l.946-.66V9.864a5.544,5.544,0,0,1,5.737-5.277,5.544,5.544,0,0,1,5.737,5.277v1.892l.946.66a9.383,9.383,0,0,1-.7,2.926,3.534,3.534,0,0,1-.839.717c0,1.688-.122,3.653-2.273,4.3v1.1a1.6,1.6,0,0,0,1.162,1.367L26.008,24.9A14.325,14.325,0,0,0,15.342,1Z" transform="translate(0.658 0.658)" fill="none" stroke="#343434" stroke-linejoin="round" stroke-width="2"/>
    <path id="패스_319" data-name="패스 319" d="M19.612,22.879v-1.1c2.151-.65,2.273-2.614,2.273-4.3a3.552,3.552,0,0,0,.839-.717,9.383,9.383,0,0,0,.7-2.926l-.946-.66V11.279A5.544,5.544,0,0,0,16.744,6a5.544,5.544,0,0,0-5.737,5.277v1.892l-.946.66a9.383,9.383,0,0,0,.7,2.926,3.552,3.552,0,0,0,.839.717c0,1.688.122,3.652,2.273,4.3v1.1a1.6,1.6,0,0,1-1.162,1.367l-6.757,1.94a14.3,14.3,0,0,0,21.454.133l-6.637-2.074a1.6,1.6,0,0,1-1.162-1.367" transform="translate(-0.744 -0.757)" fill="#fff"/>
    <path id="패스_320" data-name="패스 320" d="M19.612,22.879v-1.1c2.151-.65,2.273-2.614,2.273-4.3a3.552,3.552,0,0,0,.839-.717,9.383,9.383,0,0,0,.7-2.926l-.946-.66V11.279A5.544,5.544,0,0,0,16.744,6a5.544,5.544,0,0,0-5.737,5.277v1.892l-.946.66a9.383,9.383,0,0,0,.7,2.926,3.552,3.552,0,0,0,.839.717c0,1.688.122,3.652,2.273,4.3v1.1a1.6,1.6,0,0,1-1.162,1.367l-6.757,1.94a14.3,14.3,0,0,0,21.454.133l-6.637-2.074A1.6,1.6,0,0,1,19.612,22.879Z" transform="translate(-0.744 -0.757)" fill="none" stroke="#343434" stroke-linejoin="round" stroke-width="2"/>
  </g>
</svg>
